  0
SECTION
  2
HEADER
  9
$ACADVER
  1
AC1014
  9
$ACADMAINTVER
 70
     9
  9
$DWGCODEPAGE
  3
ANSI_1252
  9
$INSBASE
 10
0.0
 20
0.0
 30
0.0
  9
$EXTMIN
 10
-0.5
 20
-0.5
 30
-0.5
  9
$EXTMAX
 10
5.0
 20
5.0
 30
5.0
  9
$LIMMIN
 10
-0.5
 20
-0.5
  9
$LIMMAX
 10
5.0
 20
5.0
  9
$ORTHOMODE
 70
     0
  9
$REGENMODE
 70
     1
  9
$FILLMODE
 70
     1
  9
$QTEXTMODE
 70
     0
  9
$MIRRTEXT
 70
     1
  9
$DRAGMODE
 70
     2
  9
$LTSCALE
 40
1.0
  9
$OSMODE
 70
    37
  9
$ATTMODE
 70
     1
  9
$TEXTSIZE
 40
0.2
  9
$TRACEWID
 40
0.05
  9
$TEXTSTYLE
  7
STANDARD
  9
$CLAYER
  8
0
  9
$CELTYPE
  6
BYLAYER
  9
$CECOLOR
 62
   256
  9
$CELTSCALE
 40
1.0
  9
$DELOBJ
 70
     1
  9
$DISPSILH
 70
     0
  9
$DIMSCALE
 40
1.0
  9
$DIMASZ
 40
0.18
  9
$DIMEXO
 40
0.0625
  9
$DIMDLI
 40
0.38
  9
$DIMRND
 40
0.0
  9
$DIMDLE
 40
0.0
  9
$DIMEXE
 40
0.18
  9
$DIMTP
 40
0.0
  9
$DIMTM
 40
0.0
  9
$DIMTXT
 40
0.18
  9
$DIMCEN
 40
0.09
  9
$DIMTSZ
 40
0.0
  9
$DIMTOL
 70
     0
  9
$DIMLIM
 70
     0
  9
$DIMTIH
 70
     1
  9
$DIMTOH
 70
     1
  9
$DIMSE1
 70
     0
  9
$DIMSE2
 70
     0
  9
$DIMTAD
 70
     0
  9
$DIMZIN
 70
     0
  9
$DIMBLK
  1

  9
$DIMASO
 70
     1
  9
$DIMSHO
 70
     1
  9
$DIMPOST
  1

  9
$DIMAPOST
  1

  9
$DIMALT
 70
     0
  9
$DIMALTD
 70
     2
  9
$DIMALTF
 40
25.4
  9
$DIMLFAC
 40
1.0
  9
$DIMTOFL
 70
     0
  9
$DIMTVP
 40
0.0
  9
$DIMTIX
 70
     0
  9
$DIMSOXD
 70
     0
  9
$DIMSAH
 70
     0
  9
$DIMBLK1
  1

  9
$DIMBLK2
  1

  9
$DIMSTYLE
  2
STANDARD
  9
$DIMCLRD
 70
     0
  9
$DIMCLRE
 70
     0
  9
$DIMCLRT
 70
     0
  9
$DIMTFAC
 40
1.0
  9
$DIMGAP
 40
0.09
  9
$DIMJUST
 70
     0
  9
$DIMSD1
 70
     0
  9
$DIMSD2
 70
     0
  9
$DIMTOLJ
 70
     1
  9
$DIMTZIN
 70
     0
  9
$DIMALTZ
 70
     0
  9
$DIMALTTZ
 70
     0
  9
$DIMFIT
 70
     3
  9
$DIMUPT
 70
     0
  9
$DIMUNIT
 70
     2
  9
$DIMDEC
 70
     4
  9
$DIMTDEC
 70
     4
  9
$DIMALTU
 70
     2
  9
$DIMALTTD
 70
     2
  9
$DIMTXSTY
  7
STANDARD
  9
$DIMAUNIT
 70
     0
  9
$LUNITS
 70
     2
  9
$LUPREC
 70
     4
  9
$SKETCHINC
 40
0.1
  9
$FILLETRAD
 40
0.5
  9
$AUNITS
 70
     0
  9
$AUPREC
 70
     0
  9
$MENU
  1
.
  9
$ELEVATION
 40
0.0
  9
$PELEVATION
 40
0.0
  9
$THICKNESS
 40
0.0
  9
$LIMCHECK
 70
     0
  9
$CHAMFERA
 40
0.5
  9
$CHAMFERB
 40
0.5
  9
$CHAMFERC
 40
1.0
  9
$CHAMFERD
 40
0.0
  9
$SKPOLY
 70
     0
  9
$TDCREATE
 40
2456818.902899745
  9
$TDUPDATE
 40
2456818.902899757
  9
$TDINDWG
 40
0.0000000116
  9
$TDUSRTIMER
 40
0.0000000116
  9
$USRTIMER
 70
     1
  9
$ANGBASE
 50
0.0
  9
$ANGDIR
 70
     0
  9
$PDMODE
 70
     0
  9
$PDSIZE
 40
0.0
  9
$PLINEWID
 40
0.0
  9
$COORDS
 70
     1
  9
$SPLFRAME
 70
     0
  9
$SPLINETYPE
 70
     6
  9
$SPLINESEGS
 70
     8
  9
$ATTDIA
 70
     0
  9
$ATTREQ
 70
     1
  9
$HANDLING
 70
     1
  9
$HANDSEED
  5
2F3
  9
$SURFTAB1
 70
     6
  9
$SURFTAB2
 70
     6
  9
$SURFTYPE
 70
     6
  9
$SURFU
 70
     6
  9
$SURFV
 70
     6
  9
$UCSNAME
  2

  9
$UCSORG
 10
0.0
 20
0.0
 30
0.0
  9
$UCSXDIR
 10
1.0
 20
0.0
 30
0.0
  9
$UCSYDIR
 10
0.0
 20
1.0
 30
0.0
  9
$PUCSNAME
  2

  9
$PUCSORG
 10
0.0
 20
0.0
 30
0.0
  9
$PUCSXDIR
 10
1.0
 20
0.0
 30
0.0
  9
$PUCSYDIR
 10
0.0
 20
1.0
 30
0.0
  9
$USERI1
 70
     0
  9
$USERI2
 70
     0
  9
$USERI3
 70
     0
  9
$USERI4
 70
     0
  9
$USERI5
 70
     0
  9
$USERR1
 40
0.0
  9
$USERR2
 40
0.0
  9
$USERR3
 40
0.0
  9
$USERR4
 40
0.0
  9
$USERR5
 40
0.0
  9
$WORLDVIEW
 70
     1
  9
$SHADEDGE
 70
     3
  9
$SHADEDIF
 70
    70
  9
$TILEMODE
 70
     1
  9
$MAXACTVP
 70
    64
  9
$PINSBASE
 10
0.0
 20
0.0
 30
0.0
  9
$PLIMCHECK
 70
     0
  9
$PEXTMIN
 10
-0.5
 20
-0.5
 30
-0.5
  9
$PEXTMAX
 10
5.0
 20
5.0
 30
5.0
  9
$PLIMMIN
 10
-0.5
 20
-0.5
  9
$PLIMMAX
 10
5.0
 20
5.0
  9
$UNITMODE
 70
     0
  9
$VISRETAIN
 70
     1
  9
$PLINEGEN
 70
     0
  9
$PSLTSCALE
 70
     1
  9
$TREEDEPTH
 70
  3020
  9
$PICKSTYLE
 70
     1
  9
$CMLSTYLE
  2
STANDARD
  9
$CMLJUST
 70
     0
  9
$CMLSCALE
 40
1.0
  9
$PROXYGRAPHICS
 70
     1
  9
$MEASUREMENT
 70
     1
  0
ENDSEC
  0
SECTION
  2
CLASSES
  0
CLASS
  1
ACDBDICTIONARYWDFLT
  2
AcDbDictionaryWithDefault
  3
ObjectDBX Classes
 90
        0
280
     0
281
     0
  0
CLASS
  1
VISUALSTYLE
  2
AcDbVisualStyle
  3
ObjectDBX Classes
 90
     4095
280
     0
281
     0
  0
CLASS
  1
DICTIONARYVAR
  2
AcDbDictionaryVar
  3
ObjectDBX Classes
 90
        0
280
     0
281
     0
  0
CLASS
  1
XRECORD
  2
AcDbXrecord
  3
AutoCAD 2000
 90
        0
280
     0
281
     0
  0
CLASS
  1
LWPOLYLINE
  2
AcDbPolyline
  3
AutoCAD 2000
 90
        0
280
     0
281
     1
  0
CLASS
  1
HATCH
  2
AcDbHatch
  3
AutoCAD 2000
 90
        0
280
     0
281
     1
  0
CLASS
  1
ACDBPLACEHOLDER
  2
AcDbPlaceHolder
  3
ObjectDBX Classes
 90
        0
280
     0
281
     0
  0
CLASS
  1
LAYOUT
  2
AcDbLayout
  3
ObjectDBX Classes
 90
        0
280
     0
281
     0
  0
ENDSEC
  0
SECTION
  2
TABLES
  0
TABLE
  2
VPORT
  5
8
330
0
100
AcDbSymbolTable
 70
    17
  0
VPORT
  5
29
330
8
100
AcDbSymbolTableRecord
100
AcDbViewportTableRecord
  2
DUMMY
 70
     0
 10
0.0
 20
0.0
 11
1.0
 21
1.0
 12
10.429907
 22
4.5
 13
0.0
 23
0.0
 14
0.5
 24
0.5
 15
0.5
 25
0.5
 16
0.0
 26
0.0
 36
1.0
 17
0.0
 27
0.0
 37
0.0
 40
9.0
 41
1.972973
 42
50.0
 43
0.0
 44
0.0
 50
0.0
 51
0.0
 71
     0
 72
   100
 73
     1
 74
     3
 75
     0
 76
     0
 77
     0
 78
     0
  0
VPORT
  5
2BE
330
8
100
AcDbSymbolTableRecord
100
AcDbViewportTableRecord
  2
*ACTIVE
 70
     0
 10
0.0
 20
0.0
 11
1.0
 21
1.0
 12
0.0
 22
0.0
 13
0.0
 23
0.0
 14
0.5
 24
0.5
 15
0.5
 25
0.5
 16
0.7188730927569434
 26
-0.5850486126764431
 36
0.3754192287502549
 17
0.0
 27
0.0
 37
0.0
 40
1995.393421
 41
0.008899
 42
50.0
 43
985.406154
 44
-985.406154
 50
0.0
 51
0.0
 71
     0
 72
   100
 73
     1
 74
     3
 75
     0
 76
     0
 77
     0
 78
     0
  0
VPORT
  5
2BF
330
8
100
AcDbSymbolTableRecord
100
AcDbViewportTableRecord
  2
L1
 70
     0
 10
0.0
 20
0.0
 11
1.0
 21
1.0
 12
0.0
 22
0.0
 13
0.0
 23
0.0
 14
0.5
 24
0.5
 15
0.5
 25
0.5
 16
0.7188730927569434
 26
-0.5850486126764431
 36
0.3754192287502549
 17
0.0
 27
0.0
 37
0.0
 40
1995.393421
 41
0.008899
 42
50.0
 43
985.406154
 44
-985.406154
 50
0.0
 51
0.0
 71
     0
 72
   100
 73
     1
 74
     3
 75
     0
 76
     0
 77
     0
 78
     0
  0
VPORT
  5
2C0
330
8
100
AcDbSymbolTableRecord
100
AcDbViewportTableRecord
  2
L2
 70
     0
 10
0.0
 20
0.0
 11
0.5
 21
1.0
 12
0.0
 22
0.0
 13
0.0
 23
0.0
 14
0.5
 24
0.5
 15
0.5
 25
0.5
 16
0.0
 26
-1.0
 36
0.0
 17
0.0
 27
0.0
 37
0.0
 40
1922.743715
 41
0.009235
 42
50.0
 43
994.171357
 44
-994.171357
 50
0.0
 51
0.0
 71
     0
 72
   100
 73
     1
 74
     3
 75
     0
 76
     0
 77
     0
 78
     0
  0
VPORT
  5
2C1
330
8
100
AcDbSymbolTableRecord
100
AcDbViewportTableRecord
  2
L2
 70
     0
 10
0.5
 20
0.0
 11
1.0
 21
1.0
 12
0.0
 22
0.0
 13
0.0
 23
0.0
 14
0.5
 24
0.5
 15
0.5
 25
0.5
 16
1.0
 26
0.0
 36
0.0
 17
0.0
 27
0.0
 37
0.0
 40
1922.743715
 41
0.009235
 42
50.0
 43
971.345389
 44
-971.345389
 50
0.0
 51
0.0
 71
     0
 72
   100
 73
     1
 74
     3
 75
     0
 76
     0
 77
     0
 78
     0
  0
VPORT
  5
2C2
330
8
100
AcDbSymbolTableRecord
100
AcDbViewportTableRecord
  2
L3
 70
     0
 10
0.0
 20
0.5
 11
1.0
 21
1.0
 12
0.0
 22
0.0
 13
0.0
 23
0.0
 14
0.5
 24
0.5
 15
0.5
 25
0.5
 16
0.0
 26
0.0
 36
1.0
 17
0.0
 27
0.0
 37
0.0
 40
277.67619
 41
0.063948
 42
50.0
 43
961.371857
 44
-961.371857
 50
0.0
 51
0.0
 71
     0
 72
   100
 73
     1
 74
     3
 75
     0
 76
     0
 77
     0
 78
     0
  0
VPORT
  5
2C3
330
8
100
AcDbSymbolTableRecord
100
AcDbViewportTableRecord
  2
L3
 70
     0
 10
0.0
 20
0.0
 11
1.0
 21
0.5
 12
0.0
 22
0.0
 13
0.0
 23
0.0
 14
0.5
 24
0.5
 15
0.5
 25
0.5
 16
0.0
 26
-1.0
 36
0.0
 17
0.0
 27
0.0
 37
0.0
 40
1922.743715
 41
0.009235
 42
50.0
 43
994.171357
 44
-994.171357
 50
0.0
 51
0.0
 71
     0
 72
   100
 73
     1
 74
     3
 75
     0
 76
     0
 77
     0
 78
     0
  0
VPORT
  5
2C4
330
8
100
AcDbSymbolTableRecord
100
AcDbViewportTableRecord
  2
L4
 70
     0
 10
0.0
 20
0.5
 11
0.5
 21
1.0
 12
0.0
 22
0.0
 13
0.0
 23
0.0
 14
0.5
 24
0.5
 15
0.5
 25
0.5
 16
0.0
 26
0.0
 36
1.0
 17
0.0
 27
0.0
 37
0.0
 40
277.67619
 41
0.063948
 42
50.0
 43
961.371857
 44
-961.371857
 50
0.0
 51
0.0
 71
     0
 72
   100
 73
     1
 74
     3
 75
     0
 76
     0
 77
     0
 78
     0
  0
VPORT
  5
2C5
330
8
100
AcDbSymbolTableRecord
100
AcDbViewportTableRecord
  2
L4
 70
     0
 10
0.0
 20
0.0
 11
0.5
 21
0.5
 12
0.0
 22
0.0
 13
0.0
 23
0.0
 14
0.5
 24
0.5
 15
0.5
 25
0.5
 16
0.0
 26
-1.0
 36
0.0
 17
0.0
 27
0.0
 37
0.0
 40
1922.743715
 41
0.009235
 42
50.0
 43
994.171357
 44
-994.171357
 50
0.0
 51
0.0
 71
     0
 72
   100
 73
     1
 74
     3
 75
     0
 76
     0
 77
     0
 78
     0
  0
VPORT
  5
2C6
330
8
100
AcDbSymbolTableRecord
100
AcDbViewportTableRecord
  2
L4
 70
     0
 10
0.5
 20
0.0
 11
1.0
 21
0.5
 12
0.0
 22
0.0
 13
0.0
 23
0.0
 14
0.5
 24
0.5
 15
0.5
 25
0.5
 16
1.0
 26
0.0
 36
0.0
 17
0.0
 27
0.0
 37
0.0
 40
1922.743715
 41
0.009235
 42
50.0
 43
971.345389
 44
-971.345389
 50
0.0
 51
0.0
 71
     0
 72
   100
 73
     1
 74
     3
 75
     0
 76
     0
 77
     0
 78
     0
  0
VPORT
  5
2C7
330
8
100
AcDbSymbolTableRecord
100
AcDbViewportTableRecord
  2
L4
 70
     0
 10
0.5
 20
0.5
 11
1.0
 21
1.0
 12
0.0
 22
0.0
 13
0.0
 23
0.0
 14
0.5
 24
0.5
 15
0.5
 25
0.5
 16
0.5773502691896258
 26
-0.5773502691896258
 36
0.5773502691896258
 17
0.0
 27
0.0
 37
0.0
 40
1890.060764
 41
0.009395
 42
50.0
 43
984.861942
 44
-984.861942
 50
0.0
 51
0.0
 71
     0
 72
   100
 73
     1
 74
     3
 75
     0
 76
     0
 77
     0
 78
     0
  0
VPORT
  5
2C8
330
8
100
AcDbSymbolTableRecord
100
AcDbViewportTableRecord
  2
L6
 70
     0
 10
0.0
 20
0.5
 11
0.333333
 21
1.0
 12
0.0
 22
0.0
 13
0.0
 23
0.0
 14
0.5
 24
0.5
 15
0.5
 25
0.5
 16
0.7188730927569434
 26
-0.5850486126764431
 36
0.3754192287502549
 17
0.0
 27
0.0
 37
0.0
 40
1995.393421
 41
0.008899
 42
50.0
 43
985.406154
 44
-985.406154
 50
0.0
 51
0.0
 71
     0
 72
   100
 73
     1
 74
     3
 75
     0
 76
     0
 77
     0
 78
     0
  0
VPORT
  5
2C9
330
8
100
AcDbSymbolTableRecord
100
AcDbViewportTableRecord
  2
L6
 70
     0
 10
0.0
 20
0.0
 11
0.333333
 21
0.5
 12
0.0
 22
0.0
 13
0.0
 23
0.0
 14
0.5
 24
0.5
 15
0.5
 25
0.5
 16
-1.0
 26
0.0
 36
0.0
 17
0.0
 27
0.0
 37
0.0
 40
1922.743715
 41
0.009235
 42
50.0
 43
971.345389
 44
-971.345389
 50
0.0
 51
0.0
 71
     0
 72
   100
 73
     1
 74
     3
 75
     0
 76
     0
 77
     0
 78
     0
  0
VPORT
  5
2CA
330
8
100
AcDbSymbolTableRecord
100
AcDbViewportTableRecord
  2
L6
 70
     0
 10
0.333333
 20
0.5
 11
0.666667
 21
1.0
 12
0.0
 22
0.0
 13
0.0
 23
0.0
 14
0.5
 24
0.5
 15
0.5
 25
0.5
 16
0.0
 26
0.0
 36
1.0
 17
0.0
 27
0.0
 37
0.0
 40
277.67619
 41
0.063948
 42
50.0
 43
961.371857
 44
-961.371857
 50
0.0
 51
0.0
 71
     0
 72
   100
 73
     1
 74
     3
 75
     0
 76
     0
 77
     0
 78
     0
  0
VPORT
  5
2CB
330
8
100
AcDbSymbolTableRecord
100
AcDbViewportTableRecord
  2
L6
 70
     0
 10
0.333333
 20
0.0
 11
0.666667
 21
0.5
 12
0.0
 22
0.0
 13
0.0
 23
0.0
 14
0.5
 24
0.5
 15
0.5
 25
0.5
 16
0.0
 26
-1.0
 36
0.0
 17
0.0
 27
0.0
 37
0.0
 40
1922.743715
 41
0.009235
 42
50.0
 43
994.171357
 44
-994.171357
 50
0.0
 51
0.0
 71
     0
 72
   100
 73
     1
 74
     3
 75
     0
 76
     0
 77
     0
 78
     0
  0
VPORT
  5
2CC
330
8
100
AcDbSymbolTableRecord
100
AcDbViewportTableRecord
  2
L6
 70
     0
 10
0.666667
 20
0.5
 11
1.0
 21
1.0
 12
0.0
 22
0.0
 13
0.0
 23
0.0
 14
0.5
 24
0.5
 15
0.5
 25
0.5
 16
0.5773502691896258
 26
-0.5773502691896258
 36
0.5773502691896258
 17
0.0
 27
0.0
 37
0.0
 40
1890.060764
 41
0.009395
 42
50.0
 43
984.861942
 44
-984.861942
 50
0.0
 51
0.0
 71
     0
 72
   100
 73
     1
 74
     3
 75
     0
 76
     0
 77
     0
 78
     0
  0
VPORT
  5
2CD
330
8
100
AcDbSymbolTableRecord
100
AcDbViewportTableRecord
  2
L6
 70
     0
 10
0.666667
 20
0.0
 11
1.0
 21
0.5
 12
0.0
 22
0.0
 13
0.0
 23
0.0
 14
0.5
 24
0.5
 15
0.5
 25
0.5
 16
1.0
 26
0.0
 36
0.0
 17
0.0
 27
0.0
 37
0.0
 40
1922.743715
 41
0.009235
 42
50.0
 43
971.345389
 44
-971.345389
 50
0.0
 51
0.0
 71
     0
 72
   100
 73
     1
 74
     3
 75
     0
 76
     0
 77
     0
 78
     0
  0
ENDTAB
  0
TABLE
  2
LTYPE
  5
5
330
0
100
AcDbSymbolTable
 70
     7
  0
LTYPE
  5
14
330
5
100
AcDbSymbolTableRecord
100
AcDbLinetypeTableRecord
  2
BYBLOCK
 70
     0
  3

 72
    65
 73
     0
 40
0.0
  0
LTYPE
  5
15
330
5
100
AcDbSymbolTableRecord
100
AcDbLinetypeTableRecord
  2
BYLAYER
 70
     0
  3

 72
    65
 73
     0
 40
0.0
  0
LTYPE
  5
16
330
5
100
AcDbSymbolTableRecord
100
AcDbLinetypeTableRecord
  2
CONTINUOUS
 70
     0
  3
Solid line
 72
    65
 73
     0
 40
0.0
  0
LTYPE
  5
3B
330
5
100
AcDbSymbolTableRecord
100
AcDbLinetypeTableRecord
  2
DASHED
 70
     0
  3
__ __ __ __ __ __ __ __ __
 72
    65
 73
     2
 40
25.72
 49
12.86
 74
     4
 75
     0
340
0
 46
0.0
 50
0.0
 44
0.0
 45
0.0
 49
-12.86
 74
     4
 75
     0
340
0
 46
0.0
 50
0.0
 44
0.0
 45
0.0
  0
LTYPE
  5
3C
330
5
100
AcDbSymbolTableRecord
100
AcDbLinetypeTableRecord
  2
HIDDEN
 70
     0
  3
_ _ _ _ _ _ _ _ _ _ _ _ _ _ _
 72
    65
 73
     2
 40
0.5
 49
0.25
 74
     4
 75
     0
340
0
 46
0.0
 50
0.0
 44
0.0
 45
0.0
 49
-0.25
 74
     4
 75
     0
340
0
 46
0.0
 50
0.0
 44
0.0
 45
0.0
  0
LTYPE
  5
3D
330
5
100
AcDbSymbolTableRecord
100
AcDbLinetypeTableRecord
  2
PHANTOM
 70
     0
  3
____ _ _ ____ _ _ _____ _ _ ____
 72
    65
 73
     6
 40
50.5
 49
18.0
 74
     4
 75
     0
340
0
 46
0.0
 50
0.0
 44
0.0
 45
0.0
 49
-6.5
 74
     4
 75
     0
340
0
 46
0.0
 50
0.0
 44
0.0
 45
0.0
 49
6.5
 74
     4
 75
     0
340
0
 46
0.0
 50
0.0
 44
0.0
 45
0.0
 49
-6.5
 74
     4
 75
     0
340
0
 46
0.0
 50
0.0
 44
0.0
 45
0.0
 49
6.5
 74
     4
 75
     0
340
0
 46
0.0
 50
0.0
 44
0.0
 45
0.0
 49
-6.5
 74
     4
 75
     0
340
0
 46
0.0
 50
0.0
 44
0.0
 45
0.0
  0
LTYPE
  5
3E
330
5
100
AcDbSymbolTableRecord
100
AcDbLinetypeTableRecord
  2
CENTER
 70
     0
  3
____ _ ____ _ ____ _ ____
 72
    65
 73
     4
 40
47.4
 49
22.0
 74
     4
 75
     0
340
0
 46
0.0
 50
0.0
 44
0.0
 45
0.0
 49
-8.5
 74
     4
 75
     0
340
0
 46
0.0
 50
0.0
 44
0.0
 45
0.0
 49
8.5
 74
     4
 75
     0
340
0
 46
0.0
 50
0.0
 44
0.0
 45
0.0
 49
-8.5
 74
     4
 75
     0
340
0
 46
0.0
 50
0.0
 44
0.0
 45
0.0
  0
LTYPE
  5
3F
330
5
100
AcDbSymbolTableRecord
100
AcDbLinetypeTableRecord
  2
DOT
 70
     0
  3
.........................
 72
    65
 73
     2
 40
10.0
 49
0.0
 74
     4
 75
     0
340
0
 46
0.0
 50
0.0
 44
0.0
 45
0.0
 49
-10.0
 74
     4
 75
     0
340
0
 46
0.0
 50
0.0
 44
0.0
 45
0.0
  0
LTYPE
  5
40
330
5
100
AcDbSymbolTableRecord
100
AcDbLinetypeTableRecord
  2
DASHDOT
 70
     0
  3
_._._._._._._._._._._._._._._._.
 72
    65
 73
     4
 40
70.0
 49
31.0
 74
     4
 75
     0
340
0
 46
0.0
 50
0.0
 44
0.0
 45
0.0
 49
-13.0
 74
     4
 75
     0
340
0
 46
0.0
 50
0.0
 44
0.0
 45
0.0
 49
13.0
 74
     4
 75
     0
340
0
 46
0.0
 50
0.0
 44
0.0
 45
0.0
 49
-13.0
 74
     4
 75
     0
340
0
 46
0.0
 50
0.0
 44
0.0
 45
0.0
  0
ENDTAB
  0
TABLE
  2
LAYER
  5
2
330
0
100
AcDbSymbolTable
 70
     3
  0
LAYER
  5
10
330
2
100
AcDbSymbolTableRecord
100
AcDbLayerTableRecord
  2
0
 70
     0
 62
     7
  6
CONTINUOUS
  0
LAYER
  5
42
330
2
100
AcDbSymbolTableRecord
100
AcDbLayerTableRecord
  2
61
 70
     0
 62
     7
  6
CONTINUOUS
  0
LAYER
  5
44
330
2
100
AcDbSymbolTableRecord
100
AcDbLayerTableRecord
  2
1
 70
     0
 62
     7
  6
CONTINUOUS
  0
ENDTAB
  0
TABLE
  2
STYLE
  5
3
330
0
100
AcDbSymbolTable
 70
     1
  0
STYLE
  5
11
330
3
100
AcDbSymbolTableRecord
100
AcDbTextStyleTableRecord
  2
STANDARD
 70
     0
 40
0.0
 41
1.0
 50
0.0
 71
     0
 42
0.2
  3
txt
  4

  0
ENDTAB
  0
TABLE
  2
VIEW
  5
6
330
0
100
AcDbSymbolTable
 70
     1
  0
VIEW
  5
2BD
330
6
100
AcDbSymbolTableRecord
100
AcDbViewTableRecord
  2
TOP
 70
     0
 40
277.67619
 10
0.0
 20
0.0
 41
506.520833
 11
0.0
 21
0.0
 31
1.0
 12
0.0
 22
0.0
 32
0.0
 42
50.0
 43
961.371857
 44
-961.371857
 50
0.0
 71
     0
  0
ENDTAB
  0
TABLE
  2
UCS
  5
7
330
0
100
AcDbSymbolTable
 70
     0
  0
ENDTAB
  0
TABLE
  2
APPID
  5
9
330
0
100
AcDbSymbolTable
 70
     1
  0
APPID
  5
12
330
9
100
AcDbSymbolTableRecord
100
AcDbRegAppTableRecord
  2
ACAD
 70
     0
  0
ENDTAB
  0
TABLE
  2
DIMSTYLE
  5
A
330
0
100
AcDbSymbolTable
 70
     1
  0
DIMSTYLE
105
27
330
A
100
AcDbSymbolTableRecord
100
AcDbDimStyleTableRecord
  2
STANDARD
 70
     0
  3

  4

  5

  6

  7

 40
1.0
 41
0.18
 42
0.0625
 43
0.38
 44
0.18
 45
0.0
 46
0.0
 47
0.0
 48
0.0
140
0.18
141
0.09
142
0.0
143
25.4
144
1.0
145
0.0
146
1.0
147
0.09
 71
     0
 72
     0
 73
     1
 74
     1
 75
     0
 76
     0
 77
     0
 78
     0
170
     0
171
     2
172
     0
173
     0
174
     0
175
     0
176
     0
177
     0
178
     0
270
     2
271
     4
272
     4
273
     2
274
     2
340
11
275
     0
280
     0
281
     0
282
     0
283
     1
284
     0
285
     0
286
     0
287
     3
288
     0
  0
ENDTAB
  0
TABLE
  2
BLOCK_RECORD
  5
1
330
0
100
AcDbSymbolTable
 70
     1
  0
BLOCK_RECORD
  5
1F
330
1
100
AcDbSymbolTableRecord
100
AcDbBlockTableRecord
  2
*MODEL_SPACE
  0
BLOCK_RECORD
  5
1B
330
1
100
AcDbSymbolTableRecord
100
AcDbBlockTableRecord
  2
*PAPER_SPACE
  0
ENDTAB
  0
ENDSEC
  0
SECTION
  2
BLOCKS
  0
BLOCK
  5
20
330
1F
100
AcDbEntity
  8
0
100
AcDbBlockBegin
  2
*MODEL_SPACE
 70
     0
 10
0.0
 20
0.0
 30
0.0
  3
*MODEL_SPACE
  1

  0
ENDBLK
  5
21
330
1F
100
AcDbEntity
  8
0
100
AcDbBlockEnd
  0
BLOCK
  5
1C
330
1B
100
AcDbEntity
 67
     1
  8
0
100
AcDbBlockBegin
  2
*PAPER_SPACE
 70
     0
 10
0.0
 20
0.0
 30
0.0
  3
*PAPER_SPACE
  1

  0
ENDBLK
  5
1D
330
1B
100
AcDbEntity
 67
     1
  8
0
100
AcDbBlockEnd
  0
ENDSEC
  0
SECTION
  2
ENTITIES
  0
POINT
  5
41
330
1F
100
AcDbEntity
  8
61
  6
CONTINUOUS
 62
    23
100
AcDbPoint
 10
0.0
 20
0.0
 30
0.0
  0
LINE
  5
43
330
1F
100
AcDbEntity
  8
1
  6
CONTINUOUS
 62
   155
100
AcDbLine
 10
0.0
 20
0.0
 30
0.0
 11
609.6
 21
0.0
 31
0.0
  0
LINE
  5
45
330
1F
100
AcDbEntity
  8
1
  6
CONTINUOUS
 62
   155
100
AcDbLine
 10
609.6
 20
0.0
 30
0.0
 11
609.6
 21
609.6
 31
0.0
  0
LINE
  5
46
330
1F
100
AcDbEntity
  8
1
  6
CONTINUOUS
 62
   155
100
AcDbLine
 10
609.6
 20
609.6
 30
0.0
 11
0.0
 21
609.6
 31
0.0
  0
LINE
  5
47
330
1F
100
AcDbEntity
  8
1
  6
CONTINUOUS
 62
   155
100
AcDbLine
 10
0.0
 20
609.6
 30
0.0
 11
0.0
 21
0.0
 31
0.0
  0
LINE
  5
48
330
1F
100
AcDbEntity
  8
1
  6
CONTINUOUS
 62
   155
100
AcDbLine
 10
146.138864
 20
406.276371
 30
0.0
 11
149.365819
 21
418.319534
 31
0.0
  0
LINE
  5
49
330
1F
100
AcDbEntity
  8
1
  6
CONTINUOUS
 62
   155
100
AcDbLine
 10
161.510839
 20
377.893969
 30
0.0
 11
146.438565
 21
403.999914
 31
0.0
  0
LINE
  5
4A
330
1F
100
AcDbEntity
  8
1
  6
CONTINUOUS
 62
   155
100
AcDbLine
 10
177.811174
 20
386.975307
 30
0.0
 11
166.037278
 21
377.095836
 31
0.0
  0
LINE
  5
4B
330
1F
100
AcDbEntity
  8
1
  6
CONTINUOUS
 62
   155
100
AcDbLine
 10
180.629305
 20
395.396488
 30
0.0
 11
178.780589
 21
388.496983
 31
0.0
  0
LINE
  5
4C
330
1F
100
AcDbEntity
  8
1
  6
CONTINUOUS
 62
   155
100
AcDbLine
 10
154.19196
 20
419.84121
 30
0.0
 11
179.659891
 21
398.471078
 31
0.0
  0
LINE
  5
4D
330
1F
100
AcDbEntity
  8
1
  6
CONTINUOUS
 62
   155
100
AcDbLine
 10
212.8483
 20
340.885947
 30
0.0
 11
233.474257
 21
355.328398
 31
0.0
  0
LINE
  5
4E
330
1F
100
AcDbEntity
  8
1
  6
CONTINUOUS
 62
   155
100
AcDbLine
 10
247.077644
 20
338.261166
 30
0.0
 11
214.830496
 21
335.439907
 31
0.0
  0
LINE
  5
4F
330
1F
100
AcDbEntity
  8
1
  6
CONTINUOUS
 62
   155
100
AcDbLine
 10
237.316306
 20
354.992262
 30
0.0
 11
248.937497
 21
343.371071
 31
0.0
  0
LINE
  5
50
330
1F
100
AcDbEntity
  8
1
  6
CONTINUOUS
 62
   155
100
AcDbLine
 10
204.246834
 20
401.186786
 30
0.0
 11
225.044799
 21
394.82821
 31
0.0
  0
LINE
  5
51
330
1F
100
AcDbEntity
  8
1
  6
CONTINUOUS
 62
   155
100
AcDbLine
 10
199.291579
 20
371.749652
 30
0.0
 11
200.372175
 21
398.439235
 31
0.0
  0
LINE
  5
52
330
1F
100
AcDbEntity
  8
1
  6
CONTINUOUS
 62
   155
100
AcDbLine
 10
226.209857
 20
389.761677
 30
0.0
 11
204.331296
 21
369.43067
 31
0.0
  0
LINE
  5
53
330
1F
100
AcDbEntity
  8
1
  6
CONTINUOUS
 62
   155
100
AcDbLine
 10
116.388455
 20
295.246332
 30
0.0
 11
113.161499
 21
283.203169
 31
0.0
  0
LINE
  5
54
330
1F
100
AcDbEntity
  8
1
  6
CONTINUOUS
 62
   155
100
AcDbLine
 10
116.580221
 20
279.472289
 30
0.0
 11
149.321162
 21
285.2454
 31
0.0
  0
LINE
  5
55
330
1F
100
AcDbEntity
  8
1
  6
CONTINUOUS
 62
   155
100
AcDbLine
 10
151.697995
 20
287.423366
 30
0.0
 11
153.546711
 21
294.322871
 31
0.0
  0
LINE
  5
56
330
1F
100
AcDbEntity
  8
1
  6
CONTINUOUS
 62
   155
100
AcDbLine
 10
153.468012
 20
296.125389
 30
0.0
 11
148.211255
 21
310.56821
 31
0.0
  0
LINE
  5
57
330
1F
100
AcDbEntity
  8
1
  6
CONTINUOUS
 62
   155
100
AcDbLine
 10
143.892177
 20
312.140225
 30
0.0
 11
117.786232
 21
297.067951
 31
0.0
  0
LINE
  5
58
330
1F
100
AcDbEntity
  8
1
  6
CONTINUOUS
 62
   155
100
AcDbLine
 10
164.885285
 20
245.831199
 30
0.0
 11
114.271982
 21
236.906708
 31
0.0
  0
LINE
  5
59
330
1F
100
AcDbEntity
  8
1
  6
CONTINUOUS
 62
   155
100
AcDbLine
 10
114.271982
 20
236.906708
 30
0.0
 11
45.116186
 21
322.840506
 31
0.0
  0
LINE
  5
5A
330
1F
100
AcDbEntity
  8
1
  6
CONTINUOUS
 62
   155
100
AcDbLine
 10
43.757666
 20
324.067472
 30
0.0
 11
21.383303
 21
338.597553
 31
0.0
  0
LINE
  5
5B
330
1F
100
AcDbEntity
  8
1
  6
CONTINUOUS
 62
   155
100
AcDbLine
 10
21.383303
 20
338.597553
 30
0.0
 11
12.745787
 21
356.636215
 31
0.0
  0
LINE
  5
5C
330
1F
100
AcDbEntity
  8
1
  6
CONTINUOUS
 62
   155
100
AcDbLine
 10
12.745787
 20
356.636215
 30
0.0
 11
25.686739
 21
404.932506
 31
0.0
  0
LINE
  5
5D
330
1F
100
AcDbEntity
  8
1
  6
CONTINUOUS
 62
   155
100
AcDbLine
 10
42.186379
 20
416.235688
 30
0.0
 11
25.686739
 21
404.932506
 31
0.0
  0
LINE
  5
5E
330
1F
100
AcDbEntity
  8
1
  6
CONTINUOUS
 62
   155
100
AcDbLine
 10
68.828186
 20
417.631926
 30
0.0
 11
42.186379
 21
416.235688
 31
0.0
  0
LINE
  5
5F
330
1F
100
AcDbEntity
  8
1
  6
CONTINUOUS
 62
   155
100
AcDbLine
 10
173.475757
 20
457.858203
 30
0.0
 11
70.618182
 21
418.015249
 31
0.0
  0
LINE
  5
60
330
1F
100
AcDbEntity
  8
1
  6
CONTINUOUS
 62
   155
100
AcDbLine
 10
212.845917
 20
424.822716
 30
0.0
 11
173.475757
 21
457.858203
 31
0.0
  0
LINE
  5
61
330
1F
100
AcDbEntity
  8
1
  6
CONTINUOUS
 62
   155
100
AcDbLine
 10
281.994567
 20
310.373127
 30
0.0
 11
277.222624
 21
401.427209
 31
0.0
  0
LINE
  5
62
330
1F
100
AcDbEntity
  8
1
  6
CONTINUOUS
 62
   155
100
AcDbLine
 10
281.994567
 20
310.373127
 30
0.0
 11
232.334902
 21
233.903949
 31
0.0
  0
LINE
  5
63
330
1F
100
AcDbEntity
  8
1
  6
CONTINUOUS
 62
   155
100
AcDbLine
 10
105.88668
 20
366.907686
 30
0.0
 11
95.095447
 21
372.998695
 31
0.0
  0
LINE
  5
64
330
1F
100
AcDbEntity
  8
1
  6
CONTINUOUS
 62
   155
100
AcDbLine
 10
119.831776
 20
399.642214
 30
0.0
 11
111.716561
 21
369.35582
 31
0.0
  0
LINE
  5
65
330
1F
100
AcDbEntity
  8
1
  6
CONTINUOUS
 62
   155
100
AcDbLine
 10
102.634649
 20
403.070391
 30
0.0
 11
115.480595
 21
404.647674
 31
0.0
  0
LINE
  5
66
330
1F
100
AcDbEntity
  8
1
  6
CONTINUOUS
 62
   155
100
AcDbLine
 10
93.197921
 20
377.517381
 30
0.0
 11
99.258423
 21
400.135482
 31
0.0
  0
LINE
  5
67
330
1F
100
AcDbEntity
  8
1
  6
CONTINUOUS
 62
   155
100
AcDbLine
 10
90.651963
 20
311.985959
 30
0.0
 11
80.315689
 21
319.7749
 31
0.0
  0
LINE
  5
68
330
1F
100
AcDbEntity
  8
1
  6
CONTINUOUS
 62
   155
100
AcDbLine
 10
105.038141
 20
344.431618
 30
0.0
 11
96.922927
 21
314.145225
 31
0.0
  0
LINE
  5
69
330
1F
100
AcDbEntity
  8
1
  6
CONTINUOUS
 62
   155
100
AcDbLine
 10
88.822397
 20
349.587353
 30
0.0
 11
101.213383
 21
349.466705
 31
0.0
  0
LINE
  5
6A
330
1F
100
AcDbEntity
  8
1
  6
CONTINUOUS
 62
   155
100
AcDbLine
 10
78.859246
 20
324.004718
 30
0.0
 11
84.919748
 21
346.622819
 31
0.0
  0
LINE
  5
6B
330
1F
100
AcDbEntity
  8
1
  6
CONTINUOUS
 62
   155
100
AcDbLine
 10
169.256225
 20
270.600057
 30
0.0
 11
190.44708
 21
265.707763
 31
0.0
  0
LINE
  5
6C
330
1F
100
AcDbEntity
  8
1
  6
CONTINUOUS
 62
   155
100
AcDbLine
 10
193.989316
 20
269.51298
 30
0.0
 11
185.20743
 21
298.059429
 31
0.0
  0
LINE
  5
6D
330
1F
100
AcDbEntity
  8
1
  6
CONTINUOUS
 62
   155
100
AcDbLine
 10
179.683416
 20
298.57099
 30
0.0
 11
167.274448
 21
274.916835
 31
0.0
  0
LINE
  5
6E
330
1F
100
AcDbEntity
  8
1
  6
CONTINUOUS
 62
   155
100
AcDbLine
 10
206.855733
 20
318.521383
 30
0.0
 11
217.49711
 21
295.700875
 31
0.0
  0
LINE
  5
6F
330
1F
100
AcDbEntity
  8
1
  6
CONTINUOUS
 62
   155
100
AcDbLine
 10
220.992491
 20
294.070952
 30
0.0
 11
236.867333
 21
298.324603
 31
0.0
  0
LINE
  5
70
330
1F
100
AcDbEntity
  8
1
  6
CONTINUOUS
 62
   155
100
AcDbLine
 10
237.811605
 20
303.679837
 30
0.0
 11
211.295385
 21
322.246693
 31
0.0
  0
LINE
  5
71
330
1F
100
AcDbEntity
  8
1
  6
CONTINUOUS
 62
   155
100
AcDbLine
 10
456.057849
 20
394.867703
 30
0.0
 11
474.851701
 21
388.0273
 31
0.0
  0
LINE
  5
72
330
1F
100
AcDbEntity
  8
1
  6
CONTINUOUS
 62
   155
100
AcDbLine
 10
473.825641
 20
385.208222
 30
0.0
 11
455.031789
 21
392.048625
 31
0.0
  0
LINE
  5
73
330
1F
100
AcDbEntity
  8
1
  6
CONTINUOUS
 62
   155
100
AcDbLine
 10
521.836332
 20
370.926293
 30
0.0
 11
503.04248
 21
377.766695
 31
0.0
  0
LINE
  5
74
330
1F
100
AcDbEntity
  8
1
  6
CONTINUOUS
 62
   155
100
AcDbLine
 10
502.01642
 20
374.947618
 30
0.0
 11
520.810272
 21
368.107215
 31
0.0
  0
LINE
  5
75
330
1F
100
AcDbEntity
  8
1
  6
CONTINUOUS
 62
   155
100
AcDbLine
 10
441.675747
 20
296.877116
 30
0.0
 11
422.881895
 21
303.717518
 31
0.0
  0
LINE
  5
76
330
1F
100
AcDbEntity
  8
1
  6
CONTINUOUS
 62
   155
100
AcDbLine
 10
423.907955
 20
306.536596
 30
0.0
 11
442.701808
 21
299.696193
 31
0.0
  0
LINE
  5
77
330
1F
100
AcDbEntity
  8
1
  6
CONTINUOUS
 62
   155
100
AcDbLine
 10
457.750694
 20
341.042669
 30
0.0
 11
438.956842
 21
347.883072
 31
0.0
  0
LINE
  5
78
330
1F
100
AcDbEntity
  8
1
  6
CONTINUOUS
 62
   155
100
AcDbLine
 10
439.982902
 20
350.702149
 30
0.0
 11
458.776755
 21
343.861747
 31
0.0
  0
LINE
  5
79
330
1F
100
AcDbEntity
  8
1
  6
CONTINUOUS
 62
   155
100
AcDbLine
 10
590.647408
 20
342.156487
 30
0.0
 11
592.652524
 21
330.784907
 31
0.0
  0
LINE
  5
7A
330
1F
100
AcDbEntity
  8
1
  6
CONTINUOUS
 62
   155
100
AcDbLine
 10
592.652524
 20
330.784907
 30
0.0
 11
587.817238
 21
300.619474
 31
0.0
  0
LINE
  5
7B
330
1F
100
AcDbEntity
  8
1
  6
CONTINUOUS
 62
   155
100
AcDbLine
 10
587.817238
 20
300.619474
 30
0.0
 11
584.397037
 21
291.222548
 31
0.0
  0
LINE
  5
7C
330
1F
100
AcDbEntity
  8
1
  6
CONTINUOUS
 62
   155
100
AcDbLine
 10
584.397037
 20
291.222548
 30
0.0
 11
568.711114
 21
265.006423
 31
0.0
  0
LINE
  5
7D
330
1F
100
AcDbEntity
  8
1
  6
CONTINUOUS
 62
   155
100
AcDbLine
 10
568.711114
 20
265.006423
 30
0.0
 11
559.865595
 21
257.584151
 31
0.0
  0
LINE
  5
7E
330
1F
100
AcDbEntity
  8
1
  6
CONTINUOUS
 62
   155
100
AcDbLine
 10
537.66129
 20
265.665857
 30
0.0
 11
559.865595
 21
257.584151
 31
0.0
  0
LINE
  5
7F
330
1F
100
AcDbEntity
  8
1
  6
CONTINUOUS
 62
   155
100
AcDbLine
 10
522.970888
 20
261.453452
 30
0.0
 11
501.780936
 21
234.331551
 31
0.0
  0
LINE
  5
80
330
1F
100
AcDbEntity
  8
1
  6
CONTINUOUS
 62
   155
100
AcDbLine
 10
435.627513
 20
252.092035
 30
0.0
 11
384.428989
 21
247.612745
 31
0.0
  0
LINE
  5
81
330
1F
100
AcDbEntity
  8
1
  6
CONTINUOUS
 62
   155
100
AcDbLine
 10
384.428989
 20
247.612745
 30
0.0
 11
323.025976
 21
339.246864
 31
0.0
  0
LINE
  5
82
330
1F
100
AcDbEntity
  8
1
  6
CONTINUOUS
 62
   155
100
AcDbLine
 10
321.779562
 20
340.587564
 30
0.0
 11
300.756721
 21
357.012408
 31
0.0
  0
LINE
  5
83
330
1F
100
AcDbEntity
  8
1
  6
CONTINUOUS
 62
   155
100
AcDbLine
 10
300.756721
 20
357.012408
 30
0.0
 11
293.724246
 21
375.735236
 31
0.0
  0
LINE
  5
84
330
1F
100
AcDbEntity
  8
1
  6
CONTINUOUS
 62
   155
100
AcDbLine
 10
293.724246
 20
375.735236
 30
0.0
 11
310.825253
 21
422.719867
 31
0.0
  0
LINE
  5
85
330
1F
100
AcDbEntity
  8
1
  6
CONTINUOUS
 62
   155
100
AcDbLine
 10
310.825253
 20
422.719867
 30
0.0
 11
328.247243
 21
432.541998
 31
0.0
  0
LINE
  5
86
330
1F
100
AcDbEntity
  8
1
  6
CONTINUOUS
 62
   155
100
AcDbLine
 10
328.247243
 20
432.541998
 30
0.0
 11
354.90936
 21
431.610936
 31
0.0
  0
LINE
  5
87
330
1F
100
AcDbEntity
  8
1
  6
CONTINUOUS
 62
   155
100
AcDbLine
 10
356.725954
 20
431.836793
 30
0.0
 11
462.664667
 21
462.563504
 31
0.0
  0
LINE
  5
88
330
1F
100
AcDbEntity
  8
1
  6
CONTINUOUS
 62
   155
100
AcDbLine
 10
462.664667
 20
462.563504
 30
0.0
 11
499.00578
 21
426.222392
 31
0.0
  0
LINE
  5
89
330
1F
100
AcDbEntity
  8
1
  6
CONTINUOUS
 62
   155
100
AcDbLine
 10
561.098461
 20
397.305111
 30
0.0
 11
559.897284
 21
362.907891
 31
0.0
  0
LINE
  5
8A
330
1F
100
AcDbEntity
  8
1
  6
CONTINUOUS
 62
   155
100
AcDbLine
 10
568.443103
 20
350.238193
 30
0.0
 11
590.647408
 21
342.156487
 31
0.0
  0
LINE
  5
8B
330
1F
100
AcDbEntity
  8
1
  6
CONTINUOUS
 62
   155
100
AcDbLine
 10
504.735325
 20
323.941662
 30
0.0
 11
485.941473
 21
330.782064
 31
0.0
  0
LINE
  5
8C
330
1F
100
AcDbEntity
  8
1
  6
CONTINUOUS
 62
   155
100
AcDbLine
 10
486.967533
 20
333.601142
 30
0.0
 11
505.761386
 21
326.760739
 31
0.0
  0
LINE
  5
8D
330
1F
100
AcDbEntity
  8
1
  6
CONTINUOUS
 62
   155
100
AcDbLine
 10
469.866526
 20
286.616511
 30
0.0
 11
488.660379
 21
279.776108
 31
0.0
  0
LINE
  5
8E
330
1F
100
AcDbEntity
  8
1
  6
CONTINUOUS
 62
   155
100
AcDbLine
 10
489.686439
 20
282.595186
 30
0.0
 11
470.892587
 21
289.435589
 31
0.0
  0
LINE
  5
8F
330
1F
100
AcDbEntity
  8
1
  6
CONTINUOUS
 62
   155
100
AcDbLine
 10
571.923348
 20
299.487221
 30
0.0
 11
553.129495
 21
306.327624
 31
0.0
  0
LINE
  5
90
330
1F
100
AcDbEntity
  8
1
  6
CONTINUOUS
 62
   155
100
AcDbLine
 10
554.155556
 20
309.146702
 30
0.0
 11
572.949408
 21
302.306299
 31
0.0
  0
LINE
  5
91
330
1F
100
AcDbEntity
  8
1
  6
CONTINUOUS
 62
   155
100
AcDbLine
 10
357.824349
 20
333.125084
 30
0.0
 11
367.442439
 21
324.464917
 31
0.0
  0
LINE
  5
92
330
1F
100
AcDbEntity
  8
1
  6
CONTINUOUS
 62
   155
100
AcDbLine
 10
373.877732
 20
326.069416
 30
0.0
 11
384.601699
 21
355.533273
 31
0.0
  0
LINE
  5
93
330
1F
100
AcDbEntity
  8
1
  6
CONTINUOUS
 62
   155
100
AcDbLine
 10
381.230332
 20
360.882549
 30
0.0
 11
368.897012
 21
362.082684
 31
0.0
  0
LINE
  5
94
330
1F
100
AcDbEntity
  8
1
  6
CONTINUOUS
 62
   155
100
AcDbLine
 10
364.750838
 20
359.469569
 30
0.0
 11
356.742101
 21
337.465744
 31
0.0
  0
LINE
  5
95
330
1F
100
AcDbEntity
  8
1
  6
CONTINUOUS
 62
   155
100
AcDbLine
 10
377.186624
 20
384.858206
 30
0.0
 11
387.405927
 21
377.849857
 31
0.0
  0
LINE
  5
96
330
1F
100
AcDbEntity
  8
1
  6
CONTINUOUS
 62
   155
100
AcDbLine
 10
393.426993
 20
379.780568
 30
0.0
 11
404.15096
 21
409.244425
 31
0.0
  0
LINE
  5
97
330
1F
100
AcDbEntity
  8
1
  6
CONTINUOUS
 62
   155
100
AcDbLine
 10
400.252591
 20
414.610069
 30
0.0
 11
387.318058
 21
414.158385
 31
0.0
  0
LINE
  5
98
330
1F
100
AcDbEntity
  8
1
  6
CONTINUOUS
 62
   155
100
AcDbLine
 10
383.698886
 20
411.528902
 30
0.0
 11
375.690149
 21
389.525077
 31
0.0
  0
LINE
  5
99
330
1F
100
AcDbEntity
  8
1
  6
CONTINUOUS
 62
   155
100
AcDbLine
 10
493.192582
 20
337.006743
 30
0.0
 11
525.562908
 21
337.006743
 31
0.0
  0
LINE
  5
9A
330
1F
100
AcDbEntity
  8
1
  6
CONTINUOUS
 62
   155
100
AcDbLine
 10
527.861042
 20
341.935106
 30
0.0
 11
517.296927
 21
354.524928
 31
0.0
  0
LINE
  5
9B
330
1F
100
AcDbEntity
  8
1
  6
CONTINUOUS
 62
   155
100
AcDbLine
 10
513.498793
 20
355.194641
 30
0.0
 11
491.692582
 21
342.604819
 31
0.0
  0
LINE
  5
9C
330
1F
100
AcDbEntity
  8
1
  6
CONTINUOUS
 62
   155
100
AcDbLine
 10
492.385563
 20
297.186519
 30
0.0
 11
483.773618
 21
320.847645
 31
0.0
  0
LINE
  5
9D
330
1F
100
AcDbEntity
  8
1
  6
CONTINUOUS
 62
   155
100
AcDbLine
 10
511.910749
 20
298.112037
 30
0.0
 11
495.725586
 21
295.258157
 31
0.0
  0
LINE
  5
9E
330
1F
100
AcDbEntity
  8
1
  6
CONTINUOUS
 62
   155
100
AcDbLine
 10
488.521059
 20
324.171839
 30
0.0
 11
513.318168
 21
303.364594
 31
0.0
  0
LINE
  5
9F
330
1F
100
AcDbEntity
  8
1
  6
CONTINUOUS
 62
   163
100
AcDbLine
 10
553.56693
 20
32.517561
 30
0.0
 11
564.184071
 21
47.68041
 31
0.0
  0
LINE
  5
A0
330
1F
100
AcDbEntity
  8
1
  6
CONTINUOUS
 62
   163
100
AcDbLine
 10
546.996503
 20
69.780305
 30
0.0
 11
562.159352
 21
59.163163
 31
0.0
  0
LINE
  5
A1
330
1F
100
AcDbEntity
  8
1
  6
CONTINUOUS
 62
   163
100
AcDbLine
 10
535.51375
 20
67.755586
 30
0.0
 11
524.896608
 21
52.592736
 31
0.0
  0
LINE
  5
A2
330
1F
100
AcDbEntity
  8
1
  6
CONTINUOUS
 62
   163
100
AcDbLine
 10
526.921328
 20
41.109983
 30
0.0
 11
542.084177
 21
30.492842
 31
0.0
  0
LINE
  5
A3
330
1F
100
AcDbEntity
  8
1
  6
CONTINUOUS
 62
   163
100
AcDbLine
 10
463.643593
 20
157.006715
 30
0.0
 11
464.826897
 21
130.353425
 31
0.0
  0
LINE
  5
A4
330
1F
100
AcDbEntity
  8
1
  6
CONTINUOUS
 62
   163
100
AcDbLine
 10
442.745706
 20
136.538949
 30
0.0
 11
458.189089
 21
158.594387
 31
0.0
  0
LINE
  5
A5
330
1F
100
AcDbEntity
  8
1
  6
CONTINUOUS
 62
   163
100
AcDbLine
 10
461.030255
 20
127.328888
 30
0.0
 11
444.403568
 21
131.926741
 31
0.0
  0
LINE
  5
A6
330
1F
100
AcDbEntity
  8
1
  6
CONTINUOUS
 62
   163
100
AcDbLine
 10
478.100087
 20
204.464707
 30
0.0
 11
464.430919
 21
184.943112
 31
0.0
  0
LINE
  5
A7
330
1F
100
AcDbEntity
  8
1
  6
CONTINUOUS
 62
   163
100
AcDbLine
 10
400.819194
 20
197.703505
 30
0.0
 11
478.100087
 21
204.464707
 31
0.0
  0
LINE
  5
A8
330
1F
100
AcDbEntity
  8
1
  6
CONTINUOUS
 62
   163
100
AcDbLine
 10
461.29861
 20
183.740731
 30
0.0
 11
400.819194
 21
197.703505
 31
0.0
  0
LINE
  5
A9
330
1F
100
AcDbEntity
  8
1
  6
CONTINUOUS
 62
   163
100
AcDbLine
 10
403.01438
 20
186.933665
 30
0.0
 11
448.416674
 21
176.451719
 31
0.0
  0
LINE
  5
AA
330
1F
100
AcDbEntity
  8
1
  6
CONTINUOUS
 62
   163
100
AcDbLine
 10
426.114479
 20
143.291161
 30
0.0
 11
397.106175
 21
177.186151
 31
0.0
  0
LINE
  5
AB
330
1F
100
AcDbEntity
  8
1
  6
CONTINUOUS
 62
   163
100
AcDbLine
 10
451.98188
 20
167.16404
 30
0.0
 11
435.58789
 21
143.750996
 31
0.0
  0
LINE
  5
AC
330
1F
100
AcDbEntity
  8
1
  6
CONTINUOUS
 62
   163
100
AcDbLine
 10
543.484061
 20
122.563283
 30
0.0
 11
557.561557
 21
112.706114
 31
0.0
  0
LINE
  5
AD
330
1F
100
AcDbEntity
  8
1
  6
CONTINUOUS
 62
   163
100
AcDbLine
 10
545.264281
 20
108.042005
 30
0.0
 11
539.165256
 21
118.605827
 31
0.0
  0
LINE
  5
AE
330
1F
100
AcDbEntity
  8
1
  6
CONTINUOUS
 62
   163
100
AcDbLine
 10
554.255828
 20
104.661396
 30
0.0
 11
547.062764
 21
106.650526
 31
0.0
  0
LINE
  5
AF
330
1F
100
AcDbEntity
  8
1
  6
CONTINUOUS
 62
   163
100
AcDbLine
 10
558.721075
 20
109.409509
 30
0.0
 11
557.935669
 21
106.713726
 31
0.0
  0
LINE
  5
B0
330
1F
100
AcDbEntity
  8
1
  6
CONTINUOUS
 62
   163
100
AcDbLine
 10
508.155417
 20
142.531577
 30
0.0
 11
473.754936
 21
176.467589
 31
0.0
  0
LINE
  5
B1
330
1F
100
AcDbEntity
  8
1
  6
CONTINUOUS
 62
   163
100
AcDbLine
 10
486.575611
 20
191.693763
 30
0.0
 11
512.860347
 21
146.167266
 31
0.0
  0
LINE
  5
B2
330
1F
100
AcDbEntity
  8
1
  6
CONTINUOUS
 62
   163
100
AcDbLine
 10
473.404334
 20
180.324008
 30
0.0
 11
481.520079
 21
191.914493
 31
0.0
  0
LINE
  5
B3
330
1F
100
AcDbEntity
  8
1
  6
CONTINUOUS
 62
   163
100
AcDbLine
 10
474.308565
 20
142.250438
 30
0.0
 11
473.73654
 21
155.135013
 31
0.0
  0
LINE
  5
B4
330
1F
100
AcDbEntity
  8
1
  6
CONTINUOUS
 62
   163
100
AcDbLine
 10
516.843686
 20
111.036315
 30
0.0
 11
475.584884
 21
139.926039
 31
0.0
  0
LINE
  5
B5
330
1F
100
AcDbEntity
  8
1
  6
CONTINUOUS
 62
   163
100
AcDbLine
 10
518.480722
 20
110.404321
 30
0.0
 11
517.764822
 21
110.602292
 31
0.0
  0
LINE
  5
B6
330
1F
100
AcDbEntity
  8
1
  6
CONTINUOUS
 62
   163
100
AcDbLine
 10
478.840441
 20
157.40376
 30
0.0
 11
521.387169
 21
115.431489
 31
0.0
  0
LINE
  5
B7
330
1F
100
AcDbEntity
  8
1
  6
CONTINUOUS
 62
   163
100
AcDbLine
 10
356.717256
 20
134.719411
 30
0.0
 11
376.795427
 21
59.786658
 31
0.0
  0
LINE
  5
B8
330
1F
100
AcDbEntity
  8
1
  6
CONTINUOUS
 62
   163
100
AcDbLine
 10
376.795427
 20
59.786658
 30
0.0
 11
390.464595
 21
79.308253
 31
0.0
  0
LINE
  5
B9
330
1F
100
AcDbEntity
  8
1
  6
CONTINUOUS
 62
   163
100
AcDbLine
 10
390.52315
 20
82.662899
 30
0.0
 11
356.717256
 21
134.719411
 31
0.0
  0
LINE
  5
BA
330
1F
100
AcDbEntity
  8
1
  6
CONTINUOUS
 62
   163
100
AcDbLine
 10
496.626659
 20
22.358413
 30
0.0
 11
492.297315
 21
28.43736
 31
0.0
  0
LINE
  5
BB
330
1F
100
AcDbEntity
  8
1
  6
CONTINUOUS
 62
   163
100
AcDbLine
 10
490.374636
 20
29.651467
 30
0.0
 11
478.361901
 21
31.769636
 31
0.0
  0
LINE
  5
BC
330
1F
100
AcDbEntity
  8
1
  6
CONTINUOUS
 62
   163
100
AcDbLine
 10
476.120227
 20
26.357757
 30
0.0
 11
490.197722
 21
16.500589
 31
0.0
  0
LINE
  5
BD
330
1F
100
AcDbEntity
  8
1
  6
CONTINUOUS
 62
   163
100
AcDbLine
 10
493.692097
 20
16.538503
 30
0.0
 11
495.95668
 21
18.198555
 31
0.0
  0
LINE
  5
BE
330
1F
100
AcDbEntity
  8
1
  6
CONTINUOUS
 62
   163
100
AcDbLine
 10
367.588393
 20
136.340113
 30
0.0
 11
392.966699
 21
97.260949
 31
0.0
  0
LINE
  5
BF
330
1F
100
AcDbEntity
  8
1
  6
CONTINUOUS
 62
   163
100
AcDbLine
 10
402.913635
 20
97.087324
 30
0.0
 11
419.307625
 21
120.500368
 31
0.0
  0
LINE
  5
C0
330
1F
100
AcDbEntity
  8
1
  6
CONTINUOUS
 62
   163
100
AcDbLine
 10
416.499631
 20
129.559735
 30
0.0
 11
374.727335
 21
145.225856
 31
0.0
  0
LINE
  5
C1
330
1F
100
AcDbEntity
  8
1
  6
CONTINUOUS
 62
   163
100
AcDbLine
 10
340.883629
 20
186.634665
 30
0.0
 11
342.132016
 21
185.760534
 31
0.0
  0
LINE
  5
C2
330
1F
100
AcDbEntity
  8
1
  6
CONTINUOUS
 62
   163
100
AcDbLine
 10
343.852746
 20
188.21799
 30
0.0
 11
346.147052
 21
191.494599
 31
0.0
  0
LINE
  5
C3
330
1F
100
AcDbEntity
  8
1
  6
CONTINUOUS
 62
   163
100
AcDbLine
 10
347.867781
 20
193.952055
 30
0.0
 11
346.619393
 21
194.826185
 31
0.0
  0
LINE
  5
C4
330
1F
100
AcDbEntity
  8
1
  6
CONTINUOUS
 62
   163
100
AcDbLine
 10
344.898664
 20
192.368729
 30
0.0
 11
342.604358
 21
189.092121
 31
0.0
  0
LINE
  5
C5
330
1F
100
AcDbEntity
  8
1
  6
CONTINUOUS
 62
   163
100
AcDbLine
 10
480.847018
 20
64.215753
 30
0.0
 11
452.995849
 21
83.717351
 31
0.0
  0
LINE
  5
C6
330
1F
100
AcDbEntity
  8
1
  6
CONTINUOUS
 62
   163
100
AcDbLine
 10
511.490445
 20
94.031527
 30
0.0
 11
491.988846
 21
66.180357
 31
0.0
  0
LINE
  5
C7
330
1F
100
AcDbEntity
  8
1
  6
CONTINUOUS
 62
   163
100
AcDbLine
 10
481.674671
 20
124.674954
 30
0.0
 11
509.52584
 21
105.173355
 31
0.0
  0
LINE
  5
C8
330
1F
100
AcDbEntity
  8
1
  6
CONTINUOUS
 62
   163
100
AcDbLine
 10
451.031244
 20
94.859179
 30
0.0
 11
470.532843
 21
122.710349
 31
0.0
  0
LINE
  5
C9
330
1F
100
AcDbEntity
  8
1
  6
CONTINUOUS
 62
   163
100
AcDbLine
 10
324.928728
 20
163.848705
 30
0.0
 11
326.177116
 21
162.974575
 31
0.0
  0
LINE
  5
CA
330
1F
100
AcDbEntity
  8
1
  6
CONTINUOUS
 62
   163
100
AcDbLine
 10
327.897845
 20
165.432031
 30
0.0
 11
330.192151
 21
168.708639
 31
0.0
  0
LINE
  5
CB
330
1F
100
AcDbEntity
  8
1
  6
CONTINUOUS
 62
   163
100
AcDbLine
 10
331.91288
 20
171.166095
 30
0.0
 11
330.664493
 21
172.040226
 31
0.0
  0
LINE
  5
CC
330
1F
100
AcDbEntity
  8
1
  6
CONTINUOUS
 62
   163
100
AcDbLine
 10
328.943763
 20
169.58277
 30
0.0
 11
326.649458
 21
166.306162
 31
0.0
  0
LINE
  5
CD
330
1F
100
AcDbEntity
  8
1
  6
CONTINUOUS
 62
   163
100
AcDbLine
 10
362.574294
 20
217.612144
 30
0.0
 11
363.822681
 21
216.738014
 31
0.0
  0
LINE
  5
CE
330
1F
100
AcDbEntity
  8
1
  6
CONTINUOUS
 62
   163
100
AcDbLine
 10
358.559258
 20
211.87808
 30
0.0
 11
360.853564
 21
215.154688
 31
0.0
  0
LINE
  5
CF
330
1F
100
AcDbEntity
  8
1
  6
CONTINUOUS
 62
   163
100
AcDbLine
 10
358.086917
 20
208.546493
 30
0.0
 11
356.838529
 21
209.420624
 31
0.0
  0
LINE
  5
D0
330
1F
100
AcDbEntity
  8
1
  6
CONTINUOUS
 62
   163
100
AcDbLine
 10
362.101952
 20
214.280558
 30
0.0
 11
359.807646
 21
211.00395
 31
0.0
  0
LINE
  5
D1
330
1F
100
AcDbEntity
  8
1
  6
CONTINUOUS
 62
   163
100
AcDbLine
 10
367.535924
 20
184.829119
 30
0.0
 11
357.431672
 21
170.398753
 31
0.0
  0
LINE
  5
D2
330
1F
100
AcDbEntity
  8
1
  6
CONTINUOUS
 62
   163
100
AcDbLine
 10
360.239666
 20
161.339386
 30
0.0
 11
393.307516
 21
148.937748
 31
0.0
  0
LINE
  5
D3
330
1F
100
AcDbEntity
  8
1
  6
CONTINUOUS
 62
   163
100
AcDbLine
 10
399.972933
 20
158.45695
 30
0.0
 11
377.009334
 21
185.288954
 31
0.0
  0
LINE
  5
D4
330
1F
100
AcDbEntity
  8
1
  6
CONTINUOUS
 62
   163
100
AcDbLine
 10
443.44116
 20
102.209057
 30
0.0
 11
433.43393
 21
116.260474
 31
0.0
  0
LINE
  5
D5
330
1F
100
AcDbEntity
  8
1
  6
CONTINUOUS
 62
   163
100
AcDbLine
 10
428.53285
 20
116.240887
 30
0.0
 11
413.089466
 21
94.185449
 31
0.0
  0
LINE
  5
D6
330
1F
100
AcDbEntity
  8
1
  6
CONTINUOUS
 62
   163
100
AcDbLine
 10
416.44694
 20
89.602908
 30
0.0
 11
441.897554
 21
97.606929
 31
0.0
  0
LINE
  5
D7
330
1F
100
AcDbEntity
  8
1
  6
CONTINUOUS
 62
   163
100
AcDbLine
 10
478.994268
 20
54.01182
 30
0.0
 11
478.563384
 21
54.616836
 31
0.0
  0
LINE
  5
D8
330
1F
100
AcDbEntity
  8
1
  6
CONTINUOUS
 62
   163
100
AcDbLine
 10
477.840489
 20
55.333976
 30
0.0
 11
436.581686
 21
84.2237
 31
0.0
  0
LINE
  5
D9
330
1F
100
AcDbEntity
  8
1
  6
CONTINUOUS
 62
   163
100
AcDbLine
 10
433.960939
 20
84.628056
 30
0.0
 11
421.657755
 21
80.7588
 31
0.0
  0
LINE
  5
DA
330
1F
100
AcDbEntity
  8
1
  6
CONTINUOUS
 62
   163
100
AcDbLine
 10
421.271468
 20
75.186745
 30
0.0
 11
475.264338
 21
49.561261
 31
0.0
  0
LINE
  5
DB
330
1F
100
AcDbEntity
  8
1
  6
CONTINUOUS
 62
   163
100
AcDbLine
 10
397.874222
 20
72.455829
 30
0.0
 11
389.758476
 21
60.865343
 31
0.0
  0
LINE
  5
DC
330
1F
100
AcDbEntity
  8
1
  6
CONTINUOUS
 62
   163
100
AcDbLine
 10
391.694988
 20
56.190191
 30
0.0
 11
443.465811
 21
47.061598
 31
0.0
  0
LINE
  5
DD
330
1F
100
AcDbEntity
  8
1
  6
CONTINUOUS
 62
   163
100
AcDbLine
 10
445.27306
 20
52.726265
 30
0.0
 11
401.617983
 21
73.445343
 31
0.0
  0
LINE
  5
DE
330
1F
100
AcDbEntity
  8
1
  6
CONTINUOUS
 62
   163
100
AcDbLine
 10
578.997074
 20
38.317776
 30
0.0
 11
577.574036
 21
58.66816
 31
0.0
  0
LINE
  5
DF
330
1F
100
AcDbEntity
  8
1
  6
CONTINUOUS
 62
   163
100
AcDbLine
 10
567.431273
 20
21.800102
 30
0.0
 11
547.82146
 21
16.177078
 31
0.0
  0
LINE
  5
E0
330
1F
100
AcDbEntity
  8
1
  6
CONTINUOUS
 62
   163
100
AcDbLine
 10
292.026522
 20
153.702177
 30
0.0
 11
312.505323
 21
139.362766
 31
0.0
  0
LINE
  5
E1
330
1F
100
AcDbEntity
  8
1
  6
CONTINUOUS
 62
   163
100
AcDbLine
 10
303.498051
 20
170.085218
 30
0.0
 11
292.026522
 21
153.702177
 31
0.0
  0
LINE
  5
E2
330
1F
100
AcDbEntity
  8
1
  6
CONTINUOUS
 62
   163
100
AcDbLine
 10
352.331073
 20
218.90464
 30
0.0
 11
320.210792
 21
173.032125
 31
0.0
  0
LINE
  5
E3
330
1F
100
AcDbEntity
  8
1
  6
CONTINUOUS
 62
   163
100
AcDbLine
 10
360.855694
 20
252.000422
 30
0.0
 11
349.384165
 21
235.617381
 31
0.0
  0
LINE
  5
E4
330
1F
100
AcDbEntity
  8
1
  6
CONTINUOUS
 62
   163
100
AcDbLine
 10
381.334495
 20
237.661011
 30
0.0
 11
360.855694
 21
252.000422
 31
0.0
  0
LINE
  5
E5
330
1F
100
AcDbEntity
  8
1
  6
CONTINUOUS
 62
   163
100
AcDbLine
 10
359.823679
 20
194.736254
 30
0.0
 11
345.484268
 21
174.257453
 31
0.0
  0
LINE
  5
E6
330
1F
100
AcDbEntity
  8
1
  6
CONTINUOUS
 62
   163
100
AcDbLine
 10
347.122572
 20
173.1103
 30
0.0
 11
361.461983
 21
193.589101
 31
0.0
  0
LINE
  5
E7
330
1F
100
AcDbEntity
  8
1
  6
CONTINUOUS
 62
   163
100
AcDbLine
 10
275.799808
 20
79.38546
 30
0.0
 11
275.799808
 21
45.38546
 31
0.0
  0
LINE
  5
E8
330
1F
100
AcDbEntity
  8
1
  6
CONTINUOUS
 62
   163
100
AcDbLine
 10
309.799808
 20
99.38546
 30
0.0
 11
295.799808
 21
99.38546
 31
0.0
  0
LINE
  5
E9
330
1F
100
AcDbEntity
  8
1
  6
CONTINUOUS
 62
   163
100
AcDbLine
 10
329.799808
 20
45.38546
 30
0.0
 11
329.799808
 21
79.38546
 31
0.0
  0
LINE
  5
EA
330
1F
100
AcDbEntity
  8
1
  6
CONTINUOUS
 62
   163
100
AcDbLine
 10
295.799808
 20
25.38546
 30
0.0
 11
309.799808
 21
25.38546
 31
0.0
  0
LINE
  5
EB
330
1F
100
AcDbEntity
  8
1
  6
CONTINUOUS
 62
   163
100
AcDbLine
 10
295.021634
 20
68.042314
 30
0.0
 11
296.082294
 21
66.981654
 31
0.0
  0
LINE
  5
EC
330
1F
100
AcDbEntity
  8
1
  6
CONTINUOUS
 62
   163
100
AcDbLine
 10
298.203614
 20
69.102975
 30
0.0
 11
297.142954
 21
70.163635
 31
0.0
  0
LINE
  5
ED
330
1F
100
AcDbEntity
  8
1
  6
CONTINUOUS
 62
   163
100
AcDbLine
 10
309.517323
 20
57.789266
 30
0.0
 11
310.577983
 21
56.728606
 31
0.0
  0
LINE
  5
EE
330
1F
100
AcDbEntity
  8
1
  6
CONTINUOUS
 62
   163
100
AcDbLine
 10
308.456662
 20
54.607286
 30
0.0
 11
307.396002
 21
55.667946
 31
0.0
  0
LINE
  5
EF
330
1F
100
AcDbEntity
  8
1
  6
CONTINUOUS
 62
   163
100
AcDbLine
 10
296.082294
 20
57.789266
 30
0.0
 11
295.021634
 21
56.728606
 31
0.0
  0
LINE
  5
F0
330
1F
100
AcDbEntity
  8
1
  6
CONTINUOUS
 62
   163
100
AcDbLine
 10
297.142954
 20
54.607286
 30
0.0
 11
298.203614
 21
55.667946
 31
0.0
  0
LINE
  5
F1
330
1F
100
AcDbEntity
  8
1
  6
CONTINUOUS
 62
   163
100
AcDbLine
 10
308.456662
 20
70.163635
 30
0.0
 11
307.396002
 21
69.102975
 31
0.0
  0
LINE
  5
F2
330
1F
100
AcDbEntity
  8
1
  6
CONTINUOUS
 62
   163
100
AcDbLine
 10
309.517323
 20
66.981654
 30
0.0
 11
310.577983
 21
68.042314
 31
0.0
  0
LINE
  5
F3
330
1F
100
AcDbEntity
  8
1
  6
CONTINUOUS
 62
   163
100
AcDbLine
 10
188.191164
 20
175.358978
 30
0.0
 11
188.191164
 21
173.834978
 31
0.0
  0
LINE
  5
F4
330
1F
100
AcDbEntity
  8
1
  6
CONTINUOUS
 62
   163
100
AcDbLine
 10
181.191164
 20
175.358978
 30
0.0
 11
185.191164
 21
175.358978
 31
0.0
  0
LINE
  5
F5
330
1F
100
AcDbEntity
  8
1
  6
CONTINUOUS
 62
   163
100
AcDbLine
 10
178.191164
 20
173.834978
 30
0.0
 11
178.191164
 21
175.358978
 31
0.0
  0
LINE
  5
F6
330
1F
100
AcDbEntity
  8
1
  6
CONTINUOUS
 62
   163
100
AcDbLine
 10
185.191164
 20
173.834978
 30
0.0
 11
181.191164
 21
173.834978
 31
0.0
  0
LINE
  5
F7
330
1F
100
AcDbEntity
  8
1
  6
CONTINUOUS
 62
   163
100
AcDbLine
 10
122.558124
 20
175.358978
 30
0.0
 11
122.558124
 21
173.834978
 31
0.0
  0
LINE
  5
F8
330
1F
100
AcDbEntity
  8
1
  6
CONTINUOUS
 62
   163
100
AcDbLine
 10
125.558124
 20
173.834978
 30
0.0
 11
129.558124
 21
173.834978
 31
0.0
  0
LINE
  5
F9
330
1F
100
AcDbEntity
  8
1
  6
CONTINUOUS
 62
   163
100
AcDbLine
 10
132.558124
 20
173.834978
 30
0.0
 11
132.558124
 21
175.358978
 31
0.0
  0
LINE
  5
FA
330
1F
100
AcDbEntity
  8
1
  6
CONTINUOUS
 62
   163
100
AcDbLine
 10
129.558124
 20
175.358978
 30
0.0
 11
125.558124
 21
175.358978
 31
0.0
  0
LINE
  5
FB
330
1F
100
AcDbEntity
  8
1
  6
CONTINUOUS
 62
   163
100
AcDbLine
 10
93.900295
 20
98.825765
 30
0.0
 11
68.343045
 21
75.813914
 31
0.0
  0
LINE
  5
FC
330
1F
100
AcDbEntity
  8
1
  6
CONTINUOUS
 62
   163
100
AcDbLine
 10
67.923386
 20
71.821124
 30
0.0
 11
78.372533
 21
57.439107
 31
0.0
  0
LINE
  5
FD
330
1F
100
AcDbEntity
  8
1
  6
CONTINUOUS
 62
   163
100
AcDbLine
 10
83.581135
 20
58.078643
 30
0.0
 11
98.689238
 21
95.472511
 31
0.0
  0
LINE
  5
FE
330
1F
100
AcDbEntity
  8
1
  6
CONTINUOUS
 62
   163
100
AcDbLine
 10
130.000779
 20
135.598753
 30
0.0
 11
111.011058
 21
88.597545
 31
0.0
  0
LINE
  5
FF
330
1F
100
AcDbEntity
  8
1
  6
CONTINUOUS
 62
   163
100
AcDbLine
 10
115.526899
 20
85.02582
 30
0.0
 11
145.883222
 21
106.53262
 31
0.0
  0
LINE
  5
100
330
1F
100
AcDbEntity
  8
1
  6
CONTINUOUS
 62
   163
100
AcDbLine
 10
146.88894
 20
110.20215
 30
0.0
 11
135.522337
 21
135.696557
 31
0.0
  0
LINE
  5
101
330
1F
100
AcDbEntity
  8
1
  6
CONTINUOUS
 62
   163
100
AcDbLine
 10
163.860349
 20
110.20215
 30
0.0
 11
175.226951
 21
135.696557
 31
0.0
  0
LINE
  5
102
330
1F
100
AcDbEntity
  8
1
  6
CONTINUOUS
 62
   163
100
AcDbLine
 10
195.22239
 20
85.02582
 30
0.0
 11
164.866067
 21
106.53262
 31
0.0
  0
LINE
  5
103
330
1F
100
AcDbEntity
  8
1
  6
CONTINUOUS
 62
   163
100
AcDbLine
 10
180.748509
 20
135.598753
 30
0.0
 11
199.73823
 21
88.597545
 31
0.0
  0
LINE
  5
104
330
1F
100
AcDbEntity
  8
1
  6
CONTINUOUS
 62
   163
100
AcDbLine
 10
227.168153
 20
58.078643
 30
0.0
 11
212.06005
 21
95.472511
 31
0.0
  0
LINE
  5
105
330
1F
100
AcDbEntity
  8
1
  6
CONTINUOUS
 62
   163
100
AcDbLine
 10
242.825902
 20
71.821124
 30
0.0
 11
232.376756
 21
57.439107
 31
0.0
  0
LINE
  5
106
330
1F
100
AcDbEntity
  8
1
  6
CONTINUOUS
 62
   163
100
AcDbLine
 10
216.848993
 20
98.825765
 30
0.0
 11
242.406243
 21
75.813914
 31
0.0
  0
LINE
  5
107
330
1F
100
AcDbEntity
  8
1
  6
CONTINUOUS
 62
   163
100
AcDbLine
 10
95.374644
 20
196.491078
 30
0.0
 11
95.374644
 21
171.491078
 31
0.0
  0
LINE
  5
108
330
1F
100
AcDbEntity
  8
1
  6
CONTINUOUS
 62
   163
100
AcDbLine
 10
115.374644
 20
196.491078
 30
0.0
 11
95.374644
 21
196.491078
 31
0.0
  0
LINE
  5
109
330
1F
100
AcDbEntity
  8
1
  6
CONTINUOUS
 62
   163
100
AcDbLine
 10
183.374644
 20
184.491078
 30
0.0
 11
127.374644
 21
184.491078
 31
0.0
  0
LINE
  5
10A
330
1F
100
AcDbEntity
  8
1
  6
CONTINUOUS
 62
   163
100
AcDbLine
 10
215.374644
 20
196.491078
 30
0.0
 11
195.374644
 21
196.491078
 31
0.0
  0
LINE
  5
10B
330
1F
100
AcDbEntity
  8
1
  6
CONTINUOUS
 62
   163
100
AcDbLine
 10
215.374644
 20
171.491078
 30
0.0
 11
215.374644
 21
196.491078
 31
0.0
  0
LINE
  5
10C
330
1F
100
AcDbEntity
  8
1
  6
CONTINUOUS
 62
   163
100
AcDbLine
 10
152.634638
 20
126.783977
 30
0.0
 11
143.501251
 21
147.269455
 31
0.0
  0
LINE
  5
10D
330
1F
100
AcDbEntity
  8
1
  6
CONTINUOUS
 62
   163
100
AcDbLine
 10
167.248038
 20
147.269455
 30
0.0
 11
158.114651
 21
126.783977
 31
0.0
  0
LINE
  5
10E
330
1F
100
AcDbEntity
  8
1
  6
CONTINUOUS
 62
   163
100
AcDbLine
 10
146.241257
 20
151.491078
 30
0.0
 11
164.508031
 21
151.491078
 31
0.0
  0
LINE
  5
10F
330
1F
100
AcDbEntity
  8
1
  6
CONTINUOUS
 62
   163
100
AcDbLine
 10
188.528184
 20
68.38546
 30
0.0
 11
122.221104
 21
68.38546
 31
0.0
  0
LINE
  5
110
330
1F
100
AcDbEntity
  8
1
  6
CONTINUOUS
 62
   163
100
AcDbLine
 10
157.108933
 20
97.321935
 30
0.0
 11
190.262473
 21
73.833366
 31
0.0
  0
LINE
  5
111
330
1F
100
AcDbEntity
  8
1
  6
CONTINUOUS
 62
   163
100
AcDbLine
 10
120.486815
 20
73.833366
 30
0.0
 11
153.640356
 21
97.321935
 31
0.0
  0
LINE
  5
112
330
1F
100
AcDbEntity
  8
1
  6
CONTINUOUS
 62
   163
100
AcDbLine
 10
150.374644
 20
175.358978
 30
0.0
 11
150.374644
 21
173.834978
 31
0.0
  0
LINE
  5
113
330
1F
100
AcDbEntity
  8
1
  6
CONTINUOUS
 62
   163
100
AcDbLine
 10
153.374644
 20
173.834978
 30
0.0
 11
157.374644
 21
173.834978
 31
0.0
  0
LINE
  5
114
330
1F
100
AcDbEntity
  8
1
  6
CONTINUOUS
 62
   163
100
AcDbLine
 10
160.374644
 20
173.834978
 30
0.0
 11
160.374644
 21
175.358978
 31
0.0
  0
LINE
  5
115
330
1F
100
AcDbEntity
  8
1
  6
CONTINUOUS
 62
   163
100
AcDbLine
 10
157.374644
 20
175.358978
 30
0.0
 11
153.374644
 21
175.358978
 31
0.0
  0
LINE
  5
116
330
1F
100
AcDbEntity
  8
1
  6
CONTINUOUS
 62
   163
100
AcDbLine
 10
15.37448
 20
230.01046
 30
0.0
 11
72.52448
 21
230.01046
 31
0.0
  0
LINE
  5
117
330
1F
100
AcDbEntity
  8
1
  6
CONTINUOUS
 62
   163
100
AcDbLine
 10
72.52448
 20
230.01046
 30
0.0
 11
72.52448
 21
218.21046
 31
0.0
  0
LINE
  5
118
330
1F
100
AcDbEntity
  8
1
  6
CONTINUOUS
 62
   163
100
AcDbLine
 10
72.52448
 20
215.202127
 30
0.0
 11
74.52448
 21
215.202127
 31
0.0
  0
LINE
  5
119
330
1F
100
AcDbEntity
  8
1
  6
CONTINUOUS
 62
   163
100
AcDbLine
 10
74.52448
 20
215.202127
 30
0.0
 11
74.52448
 21
205.202127
 31
0.0
  0
LINE
  5
11A
330
1F
100
AcDbEntity
  8
1
  6
CONTINUOUS
 62
   163
100
AcDbLine
 10
74.52448
 20
205.202127
 30
0.0
 11
72.52448
 21
205.202127
 31
0.0
  0
LINE
  5
11B
330
1F
100
AcDbEntity
  8
1
  6
CONTINUOUS
 62
   163
100
AcDbLine
 10
72.52448
 20
202.193793
 30
0.0
 11
72.52448
 21
190.393793
 31
0.0
  0
LINE
  5
11C
330
1F
100
AcDbEntity
  8
1
  6
CONTINUOUS
 62
   163
100
AcDbLine
 10
72.52448
 20
187.38546
 30
0.0
 11
74.52448
 21
187.38546
 31
0.0
  0
LINE
  5
11D
330
1F
100
AcDbEntity
  8
1
  6
CONTINUOUS
 62
   163
100
AcDbLine
 10
74.52448
 20
187.38546
 30
0.0
 11
74.52448
 21
177.38546
 31
0.0
  0
LINE
  5
11E
330
1F
100
AcDbEntity
  8
1
  6
CONTINUOUS
 62
   163
100
AcDbLine
 10
74.52448
 20
177.38546
 30
0.0
 11
72.52448
 21
177.38546
 31
0.0
  0
LINE
  5
11F
330
1F
100
AcDbEntity
  8
1
  6
CONTINUOUS
 62
   163
100
AcDbLine
 10
72.52448
 20
174.377127
 30
0.0
 11
72.52448
 21
162.577127
 31
0.0
  0
LINE
  5
120
330
1F
100
AcDbEntity
  8
1
  6
CONTINUOUS
 62
   163
100
AcDbLine
 10
72.52448
 20
159.568793
 30
0.0
 11
74.52448
 21
159.568793
 31
0.0
  0
LINE
  5
121
330
1F
100
AcDbEntity
  8
1
  6
CONTINUOUS
 62
   163
100
AcDbLine
 10
74.52448
 20
159.568793
 30
0.0
 11
74.52448
 21
149.568793
 31
0.0
  0
LINE
  5
122
330
1F
100
AcDbEntity
  8
1
  6
CONTINUOUS
 62
   163
100
AcDbLine
 10
74.52448
 20
149.568793
 30
0.0
 11
72.52448
 21
149.568793
 31
0.0
  0
LINE
  5
123
330
1F
100
AcDbEntity
  8
1
  6
CONTINUOUS
 62
   163
100
AcDbLine
 10
72.52448
 20
146.56046
 30
0.0
 11
72.52448
 21
134.76046
 31
0.0
  0
LINE
  5
124
330
1F
100
AcDbEntity
  8
1
  6
CONTINUOUS
 62
   163
100
AcDbLine
 10
72.52448
 20
134.76046
 30
0.0
 11
15.37448
 21
134.76046
 31
0.0
  0
LINE
  5
125
330
1F
100
AcDbEntity
  8
1
  6
CONTINUOUS
 62
   163
100
AcDbLine
 10
15.37448
 20
134.76046
 30
0.0
 11
15.37448
 21
146.56046
 31
0.0
  0
LINE
  5
126
330
1F
100
AcDbEntity
  8
1
  6
CONTINUOUS
 62
   163
100
AcDbLine
 10
15.37448
 20
149.568793
 30
0.0
 11
13.37448
 21
149.568793
 31
0.0
  0
LINE
  5
127
330
1F
100
AcDbEntity
  8
1
  6
CONTINUOUS
 62
   163
100
AcDbLine
 10
13.37448
 20
149.568793
 30
0.0
 11
13.37448
 21
159.568793
 31
0.0
  0
LINE
  5
128
330
1F
100
AcDbEntity
  8
1
  6
CONTINUOUS
 62
   163
100
AcDbLine
 10
13.37448
 20
159.568793
 30
0.0
 11
15.37448
 21
159.568793
 31
0.0
  0
LINE
  5
129
330
1F
100
AcDbEntity
  8
1
  6
CONTINUOUS
 62
   163
100
AcDbLine
 10
15.37448
 20
162.577127
 30
0.0
 11
15.37448
 21
174.377127
 31
0.0
  0
LINE
  5
12A
330
1F
100
AcDbEntity
  8
1
  6
CONTINUOUS
 62
   163
100
AcDbLine
 10
15.37448
 20
177.38546
 30
0.0
 11
13.37448
 21
177.38546
 31
0.0
  0
LINE
  5
12B
330
1F
100
AcDbEntity
  8
1
  6
CONTINUOUS
 62
   163
100
AcDbLine
 10
13.37448
 20
177.38546
 30
0.0
 11
13.37448
 21
187.38546
 31
0.0
  0
LINE
  5
12C
330
1F
100
AcDbEntity
  8
1
  6
CONTINUOUS
 62
   163
100
AcDbLine
 10
13.37448
 20
187.38546
 30
0.0
 11
15.37448
 21
187.38546
 31
0.0
  0
LINE
  5
12D
330
1F
100
AcDbEntity
  8
1
  6
CONTINUOUS
 62
   163
100
AcDbLine
 10
15.37448
 20
190.393793
 30
0.0
 11
15.37448
 21
202.193793
 31
0.0
  0
LINE
  5
12E
330
1F
100
AcDbEntity
  8
1
  6
CONTINUOUS
 62
   163
100
AcDbLine
 10
15.37448
 20
205.202127
 30
0.0
 11
13.37448
 21
205.202127
 31
0.0
  0
LINE
  5
12F
330
1F
100
AcDbEntity
  8
1
  6
CONTINUOUS
 62
   163
100
AcDbLine
 10
13.37448
 20
205.202127
 30
0.0
 11
13.37448
 21
215.202127
 31
0.0
  0
LINE
  5
130
330
1F
100
AcDbEntity
  8
1
  6
CONTINUOUS
 62
   163
100
AcDbLine
 10
13.37448
 20
215.202127
 30
0.0
 11
15.37448
 21
215.202127
 31
0.0
  0
LINE
  5
131
330
1F
100
AcDbEntity
  8
1
  6
CONTINUOUS
 62
   163
100
AcDbLine
 10
15.37448
 20
218.21046
 30
0.0
 11
15.37448
 21
230.01046
 31
0.0
  0
ARC
  5
132
330
1F
100
AcDbEntity
  8
1
  6
CONTINUOUS
 62
   155
100
AcDbCircle
 10
169.931079
 20
273.523167
 30
0.0
 40
2.999999999999989
100
AcDbArc
 50
152.318499
 51
257.0
  0
ARC
  5
133
330
1F
100
AcDbEntity
  8
1
  6
CONTINUOUS
 62
   155
100
AcDbCircle
 10
191.121933
 20
268.630873
 30
0.0
 40
3.000000000000024
100
AcDbArc
 50
257.0
 51
17.099728
  0
ARC
  5
134
330
1F
100
AcDbEntity
  8
1
  6
CONTINUOUS
 62
   155
100
AcDbCircle
 10
182.340047
 20
297.177322
 30
0.0
 40
2.999999999999997
100
AcDbArc
 50
17.099728
 51
152.318499
  0
ARC
  5
135
330
1F
100
AcDbEntity
  8
1
  6
CONTINUOUS
 62
   155
100
AcDbCircle
 10
220.216034
 20
296.96873
 30
0.0
 40
2.999999999999989
100
AcDbArc
 50
205.0
 51
285.0
  0
ARC
  5
136
330
1F
100
AcDbEntity
  8
1
  6
CONTINUOUS
 62
   155
100
AcDbCircle
 10
236.090875
 20
301.222381
 30
0.0
 40
3.000000000000022
100
AcDbArc
 50
285.0
 51
55.0
  0
ARC
  5
137
330
1F
100
AcDbEntity
  8
1
  6
CONTINUOUS
 62
   155
100
AcDbCircle
 10
209.574656
 20
319.789237
 30
0.0
 40
2.999999999999997
100
AcDbArc
 50
55.0
 51
205.0
  0
ARC
  5
138
330
1F
100
AcDbEntity
  8
1
  6
CONTINUOUS
 62
   155
100
AcDbCircle
 10
-455.544819
 20
393.458164
 30
0.0
 40
1.5
210
0.0
220
0.0
230
-1.0
100
AcDbArc
 50
290.0
 51
110.0
  0
ARC
  5
139
330
1F
100
AcDbEntity
  8
1
  6
CONTINUOUS
 62
   155
100
AcDbCircle
 10
-474.338671
 20
386.617761
 30
0.0
 40
1.5
210
0.0
220
0.0
230
-1.0
100
AcDbArc
 50
110.0
 51
290.0
  0
ARC
  5
13A
330
1F
100
AcDbEntity
  8
1
  6
CONTINUOUS
 62
   155
100
AcDbCircle
 10
521.323302
 20
369.516754
 30
0.0
 40
1.5
100
AcDbArc
 50
250.0
 51
70.0
  0
ARC
  5
13B
330
1F
100
AcDbEntity
  8
1
  6
CONTINUOUS
 62
   155
100
AcDbCircle
 10
502.52945
 20
376.357156
 30
0.0
 40
1.5
100
AcDbArc
 50
70.0
 51
250.0
  0
ARC
  5
13C
330
1F
100
AcDbEntity
  8
1
  6
CONTINUOUS
 62
   155
100
AcDbCircle
 10
-442.188778
 20
298.286654
 30
0.0
 40
1.5
210
0.0
220
0.0
230
-1.0
100
AcDbArc
 50
110.0
 51
290.0
  0
ARC
  5
13D
330
1F
100
AcDbEntity
  8
1
  6
CONTINUOUS
 62
   155
100
AcDbCircle
 10
-423.394925
 20
305.127057
 30
0.0
 40
1.5
210
0.0
220
0.0
230
-1.0
100
AcDbArc
 50
290.0
 51
110.0
  0
ARC
  5
13E
330
1F
100
AcDbEntity
  8
1
  6
CONTINUOUS
 62
   155
100
AcDbCircle
 10
-458.263724
 20
342.452208
 30
0.0
 40
1.5
210
0.0
220
0.0
230
-1.0
100
AcDbArc
 50
110.0
 51
290.0
  0
ARC
  5
13F
330
1F
100
AcDbEntity
  8
1
  6
CONTINUOUS
 62
   155
100
AcDbCircle
 10
-439.469872
 20
349.29261
 30
0.0
 40
1.5
210
0.0
220
0.0
230
-1.0
100
AcDbArc
 50
290.0
 51
110.0
  0
ARC
  5
140
330
1F
100
AcDbEntity
  8
1
  6
CONTINUOUS
 62
   155
100
AcDbCircle
 10
-533.215028
 20
253.449853
 30
0.0
 40
12.99999999999995
210
0.0
220
0.0
230
-1.0
100
AcDbArc
 50
38.0
 51
110.0
  0
ARC
  5
141
330
1F
100
AcDbEntity
  8
1
  6
CONTINUOUS
 62
   155
100
AcDbCircle
 10
444.343088
 20
152.472565
 30
0.0
 40
100.0
100
AcDbArc
 50
54.943881
 51
95.0
  0
ARC
  5
142
330
1F
100
AcDbEntity
  8
1
  6
CONTINUOUS
 62
   155
100
AcDbCircle
 10
318.211638
 20
336.020829
 30
0.0
 40
5.795269615767754
100
AcDbArc
 50
33.825604
 51
52.0
  0
ARC
  5
143
330
1F
100
AcDbEntity
  8
1
  6
CONTINUOUS
 62
   155
100
AcDbCircle
 10
355.111612
 20
437.402676
 30
0.0
 40
5.795269615767733
100
AcDbArc
 50
268.0
 51
286.174396
  0
ARC
  5
144
330
1F
100
AcDbEntity
  8
1
  6
CONTINUOUS
 62
   155
100
AcDbCircle
 10
569.716458
 20
496.93307
 30
0.0
 40
100.0
100
AcDbArc
 50
225.0
 51
265.056119
  0
ARC
  5
145
330
1F
100
AcDbEntity
  8
1
  6
CONTINUOUS
 62
   155
100
AcDbCircle
 10
572.889365
 20
362.454197
 30
0.0
 40
13.00000000000005
100
AcDbArc
 50
178.0
 51
250.0
  0
CIRCLE
  5
146
330
1F
100
AcDbEntity
  8
1
  6
CONTINUOUS
 62
   155
100
AcDbCircle
 10
421.110674
 20
421.342106
 30
0.0
 40
1.5
  0
CIRCLE
  5
147
330
1F
100
AcDbEntity
  8
1
  6
CONTINUOUS
 62
   155
100
AcDbCircle
 10
359.208107
 20
378.505504
 30
0.0
 40
1.5
  0
CIRCLE
  5
148
330
1F
100
AcDbEntity
  8
1
  6
CONTINUOUS
 62
   155
100
AcDbCircle
 10
318.598446
 20
417.7623
 30
0.0
 40
1.5
  0
CIRCLE
  5
149
330
1F
100
AcDbEntity
  8
1
  6
CONTINUOUS
 62
   155
100
AcDbCircle
 10
302.86552
 20
374.53644
 30
0.0
 40
1.5
  0
CIRCLE
  5
14A
330
1F
100
AcDbEntity
  8
1
  6
CONTINUOUS
 62
   155
100
AcDbCircle
 10
379.093387
 20
305.90056
 30
0.0
 40
1.5
  0
CIRCLE
  5
14B
330
1F
100
AcDbEntity
  8
1
  6
CONTINUOUS
 62
   155
100
AcDbCircle
 10
480.99426
 20
358.122969
 30
0.0
 40
1.5
  0
CIRCLE
  5
14C
330
1F
100
AcDbEntity
  8
1
  6
CONTINUOUS
 62
   155
100
AcDbCircle
 10
438.708092
 20
373.513876
 30
0.0
 40
1.5
  0
CIRCLE
  5
14D
330
1F
100
AcDbEntity
  8
1
  6
CONTINUOUS
 62
   155
100
AcDbCircle
 10
423.317185
 20
331.227708
 30
0.0
 40
1.5
  0
CIRCLE
  5
14E
330
1F
100
AcDbEntity
  8
1
  6
CONTINUOUS
 62
   155
100
AcDbCircle
 10
465.603353
 20
315.836801
 30
0.0
 40
1.5
  0
CIRCLE
  5
14F
330
1F
100
AcDbEntity
  8
1
  6
CONTINUOUS
 62
   155
100
AcDbCircle
 10
-420.340764
 20
344.120006
 30
0.0
 40
7.5
210
0.0
220
0.0
230
-1.0
  0
ARC
  5
150
330
1F
100
AcDbEntity
  8
1
  6
CONTINUOUS
 62
   155
100
AcDbCircle
 10
-505.248355
 20
325.3512
 30
0.0
 40
1.5
210
0.0
220
0.0
230
-1.0
100
AcDbArc
 50
110.0
 51
290.0
  0
ARC
  5
151
330
1F
100
AcDbEntity
  8
1
  6
CONTINUOUS
 62
   155
100
AcDbCircle
 10
-486.454503
 20
332.191603
 30
0.0
 40
1.5
210
0.0
220
0.0
230
-1.0
100
AcDbArc
 50
290.0
 51
110.0
  0
ARC
  5
152
330
1F
100
AcDbEntity
  8
1
  6
CONTINUOUS
 62
   155
100
AcDbCircle
 10
470.379556
 20
288.02605
 30
0.0
 40
1.5
100
AcDbArc
 50
70.0
 51
250.0
  0
ARC
  5
153
330
1F
100
AcDbEntity
  8
1
  6
CONTINUOUS
 62
   155
100
AcDbCircle
 10
489.173409
 20
281.185647
 30
0.0
 40
1.500000000000019
100
AcDbArc
 50
250.0
 51
70.0
  0
ARC
  5
154
330
1F
100
AcDbEntity
  8
1
  6
CONTINUOUS
 62
   155
100
AcDbCircle
 10
-572.436378
 20
300.89676
 30
0.0
 40
1.5
210
0.0
220
0.0
230
-1.0
100
AcDbArc
 50
110.0
 51
290.0
  0
ARC
  5
155
330
1F
100
AcDbEntity
  8
1
  6
CONTINUOUS
 62
   155
100
AcDbCircle
 10
-553.642525
 20
307.737163
 30
0.0
 40
1.5
210
0.0
220
0.0
230
-1.0
100
AcDbArc
 50
290.0
 51
110.0
  0
CIRCLE
  5
156
330
1F
100
AcDbEntity
  8
1
  6
CONTINUOUS
 62
   155
100
AcDbCircle
 10
475.825638
 20
259.131972
 30
0.0
 40
1.5
  0
CIRCLE
  5
157
330
1F
100
AcDbEntity
  8
1
  6
CONTINUOUS
 62
   155
100
AcDbCircle
 10
514.191277
 20
288.042554
 30
0.0
 40
1.5
  0
CIRCLE
  5
158
330
1F
100
AcDbEntity
  8
1
  6
CONTINUOUS
 62
   155
100
AcDbCircle
 10
429.195463
 20
274.283034
 30
0.0
 40
1.5
  0
CIRCLE
  5
159
330
1F
100
AcDbEntity
  8
1
  6
CONTINUOUS
 62
   155
100
AcDbCircle
 10
371.874213
 20
295.146263
 30
0.0
 40
1.5
  0
CIRCLE
  5
15A
330
1F
100
AcDbEntity
  8
1
  6
CONTINUOUS
 62
   155
100
AcDbCircle
 10
454.05095
 20
309.931844
 30
0.0
 40
1.5
  0
CIRCLE
  5
15B
330
1F
100
AcDbEntity
  8
1
  6
CONTINUOUS
 62
   155
100
AcDbCircle
 10
398.625301
 20
336.517862
 30
0.0
 40
1.5
  0
CIRCLE
  5
15C
330
1F
100
AcDbEntity
  8
1
  6
CONTINUOUS
 62
   155
100
AcDbCircle
 10
343.023339
 20
332.831313
 30
0.0
 40
1.5
  0
CIRCLE
  5
15D
330
1F
100
AcDbEntity
  8
1
  6
CONTINUOUS
 62
   155
100
AcDbCircle
 10
314.665215
 20
406.955835
 30
0.0
 40
1.5
  0
CIRCLE
  5
15E
330
1F
100
AcDbEntity
  8
1
  6
CONTINUOUS
 62
   155
100
AcDbCircle
 10
310.731983
 20
396.14937
 30
0.0
 40
1.5
  0
CIRCLE
  5
15F
330
1F
100
AcDbEntity
  8
1
  6
CONTINUOUS
 62
   155
100
AcDbCircle
 10
306.798751
 20
385.342905
 30
0.0
 40
1.5
  0
CIRCLE
  5
160
330
1F
100
AcDbEntity
  8
1
  6
CONTINUOUS
 62
   155
100
AcDbCircle
 10
536.080566
 20
348.182882
 30
0.0
 40
1.5
  0
CIRCLE
  5
161
330
1F
100
AcDbEntity
  8
1
  6
CONTINUOUS
 62
   155
100
AcDbCircle
 10
525.274146
 20
394.99063
 30
0.0
 40
1.5
  0
CIRCLE
  5
162
330
1F
100
AcDbEntity
  8
1
  6
CONTINUOUS
 62
   155
100
AcDbCircle
 10
479.814445
 20
413.357542
 30
0.0
 40
1.5
  0
CIRCLE
  5
163
330
1F
100
AcDbEntity
  8
1
  6
CONTINUOUS
 62
   155
100
AcDbCircle
 10
422.493195
 20
434.220771
 30
0.0
 40
1.5
  0
CIRCLE
  5
164
330
1F
100
AcDbEntity
  8
1
  6
CONTINUOUS
 62
   155
100
AcDbCircle
 10
416.392565
 20
385.333019
 30
0.0
 40
1.5
  0
CIRCLE
  5
165
330
1F
100
AcDbEntity
  8
1
  6
CONTINUOUS
 62
   155
100
AcDbCircle
 10
475.940239
 20
370.072171
 30
0.0
 40
1.5
  0
CIRCLE
  5
166
330
1F
100
AcDbEntity
  8
1
  6
CONTINUOUS
 62
   155
100
AcDbCircle
 10
376.168659
 20
423.897332
 30
0.0
 40
1.5
  0
CIRCLE
  5
167
330
1F
100
AcDbEntity
  8
1
  6
CONTINUOUS
 62
   155
100
AcDbCircle
 10
354.897536
 20
380.074423
 30
0.0
 40
1.5
  0
CIRCLE
  5
168
330
1F
100
AcDbEntity
  8
1
  6
CONTINUOUS
 62
   155
100
AcDbCircle
 10
356.924988
 20
413.083533
 30
0.0
 40
1.5
  0
CIRCLE
  5
169
330
1F
100
AcDbEntity
  8
1
  6
CONTINUOUS
 62
   155
100
AcDbCircle
 10
346.771177
 20
413.438112
 30
0.0
 40
1.5
  0
CIRCLE
  5
16A
330
1F
100
AcDbEntity
  8
1
  6
CONTINUOUS
 62
   155
100
AcDbCircle
 10
336.617366
 20
413.792691
 30
0.0
 40
1.5
  0
CIRCLE
  5
16B
330
1F
100
AcDbEntity
  8
1
  6
CONTINUOUS
 62
   155
100
AcDbCircle
 10
337.06059
 20
426.484954
 30
0.0
 40
1.5
  0
CIRCLE
  5
16C
330
1F
100
AcDbEntity
  8
1
  6
CONTINUOUS
 62
   155
100
AcDbCircle
 10
347.214401
 20
426.130375
 30
0.0
 40
1.5
  0
CIRCLE
  5
16D
330
1F
100
AcDbEntity
  8
1
  6
CONTINUOUS
 62
   155
100
AcDbCircle
 10
357.368212
 20
425.775797
 30
0.0
 40
1.5
  0
CIRCLE
  5
16E
330
1F
100
AcDbEntity
  8
1
  6
CONTINUOUS
 62
   155
100
AcDbCircle
 10
475.576946
 20
441.525476
 30
0.0
 40
1.5
  0
CIRCLE
  5
16F
330
1F
100
AcDbEntity
  8
1
  6
CONTINUOUS
 62
   155
100
AcDbCircle
 10
466.59669
 20
432.54522
 30
0.0
 40
1.5
  0
CIRCLE
  5
170
330
1F
100
AcDbEntity
  8
1
  6
CONTINUOUS
 62
   155
100
AcDbCircle
 10
459.412485
 20
439.729425
 30
0.0
 40
1.5
  0
CIRCLE
  5
171
330
1F
100
AcDbEntity
  8
1
  6
CONTINUOUS
 62
   155
100
AcDbCircle
 10
468.392741
 20
448.709681
 30
0.0
 40
1.5
  0
CIRCLE
  5
172
330
1F
100
AcDbEntity
  8
1
  6
CONTINUOUS
 62
   155
100
AcDbCircle
 10
461.208536
 20
455.893886
 30
0.0
 40
1.5
  0
CIRCLE
  5
173
330
1F
100
AcDbEntity
  8
1
  6
CONTINUOUS
 62
   155
100
AcDbCircle
 10
452.22828
 20
446.91363
 30
0.0
 40
1.5
  0
CIRCLE
  5
174
330
1F
100
AcDbEntity
  8
1
  6
CONTINUOUS
 62
   155
100
AcDbCircle
 10
554.665833
 20
377.736441
 30
0.0
 40
1.5
  0
CIRCLE
  5
175
330
1F
100
AcDbEntity
  8
1
  6
CONTINUOUS
 62
   155
100
AcDbCircle
 10
554.311255
 20
367.58263
 30
0.0
 40
1.5
  0
CIRCLE
  5
176
330
1F
100
AcDbEntity
  8
1
  6
CONTINUOUS
 62
   155
100
AcDbCircle
 10
555.020412
 20
387.890252
 30
0.0
 40
1.5
  0
CIRCLE
  5
177
330
1F
100
AcDbEntity
  8
1
  6
CONTINUOUS
 62
   155
100
AcDbCircle
 10
542.328149
 20
388.333475
 30
0.0
 40
1.5
  0
CIRCLE
  5
178
330
1F
100
AcDbEntity
  8
1
  6
CONTINUOUS
 62
   155
100
AcDbCircle
 10
541.97357
 20
378.179665
 30
0.0
 40
1.5
  0
CIRCLE
  5
179
330
1F
100
AcDbEntity
  8
1
  6
CONTINUOUS
 62
   155
100
AcDbCircle
 10
541.618991
 20
368.025854
 30
0.0
 40
1.5
  0
CIRCLE
  5
17A
330
1F
100
AcDbEntity
  8
1
  6
CONTINUOUS
 62
   155
100
AcDbCircle
 10
505.67914
 20
269.281925
 30
0.0
 40
1.5
  0
CIRCLE
  5
17B
330
1F
100
AcDbEntity
  8
1
  6
CONTINUOUS
 62
   155
100
AcDbCircle
 10
499.42402
 20
261.275736
 30
0.0
 40
1.5
  0
CIRCLE
  5
17C
330
1F
100
AcDbEntity
  8
1
  6
CONTINUOUS
 62
   155
100
AcDbCircle
 10
509.431756
 20
253.456835
 30
0.0
 40
1.5
  0
CIRCLE
  5
17D
330
1F
100
AcDbEntity
  8
1
  6
CONTINUOUS
 62
   155
100
AcDbCircle
 10
503.176636
 20
245.450646
 30
0.0
 40
1.5
  0
CIRCLE
  5
17E
330
1F
100
AcDbEntity
  8
1
  6
CONTINUOUS
 62
   155
100
AcDbCircle
 10
493.168899
 20
253.269547
 30
0.0
 40
1.5
  0
CIRCLE
  5
17F
330
1F
100
AcDbEntity
  8
1
  6
CONTINUOUS
 62
   155
100
AcDbCircle
 10
515.686877
 20
261.463025
 30
0.0
 40
1.5
  0
CIRCLE
  5
180
330
1F
100
AcDbEntity
  8
1
  6
CONTINUOUS
 62
   155
100
AcDbCircle
 10
387.600675
 20
253.657952
 30
0.0
 40
1.5
  0
CIRCLE
  5
181
330
1F
100
AcDbEntity
  8
1
  6
CONTINUOUS
 62
   155
100
AcDbCircle
 10
386.493798
 20
266.309624
 30
0.0
 40
1.5
  0
CIRCLE
  5
182
330
1F
100
AcDbEntity
  8
1
  6
CONTINUOUS
 62
   155
100
AcDbCircle
 10
396.615136
 20
267.195127
 30
0.0
 40
1.5
  0
CIRCLE
  5
183
330
1F
100
AcDbEntity
  8
1
  6
CONTINUOUS
 62
   155
100
AcDbCircle
 10
397.722014
 20
254.543454
 30
0.0
 40
1.5
  0
CIRCLE
  5
184
330
1F
100
AcDbEntity
  8
1
  6
CONTINUOUS
 62
   155
100
AcDbCircle
 10
407.843352
 20
255.428956
 30
0.0
 40
1.5
  0
CIRCLE
  5
185
330
1F
100
AcDbEntity
  8
1
  6
CONTINUOUS
 62
   155
100
AcDbCircle
 10
406.736474
 20
268.080629
 30
0.0
 40
1.5
  0
CIRCLE
  5
186
330
1F
100
AcDbEntity
  8
1
  6
CONTINUOUS
 62
   155
100
AcDbCircle
 10
311.401528
 20
355.987262
 30
0.0
 40
1.5
  0
CIRCLE
  5
187
330
1F
100
AcDbEntity
  8
1
  6
CONTINUOUS
 62
   155
100
AcDbCircle
 10
319.220429
 20
365.994999
 30
0.0
 40
1.5
  0
CIRCLE
  5
188
330
1F
100
AcDbEntity
  8
1
  6
CONTINUOUS
 62
   155
100
AcDbCircle
 10
327.226618
 20
359.739878
 30
0.0
 40
1.5
  0
CIRCLE
  5
189
330
1F
100
AcDbEntity
  8
1
  6
CONTINUOUS
 62
   155
100
AcDbCircle
 10
319.407718
 20
349.732141
 30
0.0
 40
1.5
  0
CIRCLE
  5
18A
330
1F
100
AcDbEntity
  8
1
  6
CONTINUOUS
 62
   155
100
AcDbCircle
 10
327.413907
 20
343.477021
 30
0.0
 40
1.5
  0
CIRCLE
  5
18B
330
1F
100
AcDbEntity
  8
1
  6
CONTINUOUS
 62
   155
100
AcDbCircle
 10
335.232808
 20
353.484757
 30
0.0
 40
1.5
  0
CIRCLE
  5
18C
330
1F
100
AcDbEntity
  8
1
  6
CONTINUOUS
 62
   155
100
AcDbCircle
 10
374.445231
 20
310.085779
 30
0.0
 40
1.5
  0
CIRCLE
  5
18D
330
1F
100
AcDbEntity
  8
1
  6
CONTINUOUS
 62
   155
100
AcDbCircle
 10
486.869087
 20
289.473596
 30
0.0
 40
1.5
  0
CIRCLE
  5
18E
330
1F
100
AcDbEntity
  8
1
  6
CONTINUOUS
 62
   155
100
AcDbCircle
 10
514.230698
 20
364.649006
 30
0.0
 40
1.5
  0
CIRCLE
  5
18F
330
1F
100
AcDbEntity
  8
1
  6
CONTINUOUS
 62
   155
100
AcDbCircle
 10
414.859773
 20
421.12382
 30
0.0
 40
1.5
  0
CIRCLE
  5
190
330
1F
100
AcDbEntity
  8
1
  6
CONTINUOUS
 62
   155
100
AcDbCircle
 10
394.652502
 20
365.604799
 30
0.0
 40
1.5
  0
CIRCLE
  5
191
330
1F
100
AcDbEntity
  8
1
  6
CONTINUOUS
 62
   155
100
AcDbCircle
 10
461.711839
 20
324.968485
 30
0.0
 40
1.5
  0
CIRCLE
  5
192
330
1F
100
AcDbEntity
  8
1
  6
CONTINUOUS
 62
   155
100
AcDbCircle
 10
433.051215
 20
335.4001
 30
0.0
 40
1.5
  0
CIRCLE
  5
193
330
1F
100
AcDbEntity
  8
1
  6
CONTINUOUS
 62
   155
100
AcDbCircle
 10
443.482829
 20
364.060725
 30
0.0
 40
1.5
  0
CIRCLE
  5
194
330
1F
100
AcDbEntity
  8
1
  6
CONTINUOUS
 62
   155
100
AcDbCircle
 10
472.143454
 20
353.62911
 30
0.0
 40
1.5
  0
ARC
  5
195
330
1F
100
AcDbEntity
  8
1
  6
CONTINUOUS
 62
   155
100
AcDbCircle
 10
360.500871
 20
336.097663
 30
0.0
 40
3.999999999999989
100
AcDbArc
 50
160.0
 51
228.0
  0
ARC
  5
196
330
1F
100
AcDbEntity
  8
1
  6
CONTINUOUS
 62
   155
100
AcDbCircle
 10
370.118962
 20
327.437496
 30
0.0
 40
4.000000000000032
100
AcDbArc
 50
228.0
 51
340.0
  0
ARC
  5
197
330
1F
100
AcDbEntity
  8
1
  6
CONTINUOUS
 62
   155
100
AcDbCircle
 10
380.842928
 20
356.901353
 30
0.0
 40
3.999999999999989
100
AcDbArc
 50
340.0
 51
84.44214
  0
ARC
  5
198
330
1F
100
AcDbEntity
  8
1
  6
CONTINUOUS
 62
   155
100
AcDbCircle
 10
368.509609
 20
358.101488
 30
0.0
 40
3.999999999999989
100
AcDbArc
 50
84.44214
 51
160.0
  0
ARC
  5
199
330
1F
100
AcDbEntity
  8
1
  6
CONTINUOUS
 62
   155
100
AcDbCircle
 10
379.448919
 20
388.156997
 30
0.0
 40
3.999999999999989
100
AcDbArc
 50
160.0
 51
235.55786
  0
ARC
  5
19A
330
1F
100
AcDbEntity
  8
1
  6
CONTINUOUS
 62
   155
100
AcDbCircle
 10
389.668222
 20
381.148648
 30
0.0
 40
3.999999999999998
100
AcDbArc
 50
235.55786
 51
340.0
  0
ARC
  5
19B
330
1F
100
AcDbEntity
  8
1
  6
CONTINUOUS
 62
   155
100
AcDbCircle
 10
400.392189
 20
410.612505
 30
0.0
 40
3.999999999999989
100
AcDbArc
 50
340.0
 51
92.0
  0
ARC
  5
19C
330
1F
100
AcDbEntity
  8
1
  6
CONTINUOUS
 62
   155
100
AcDbCircle
 10
387.457656
 20
410.160822
 30
0.0
 40
4.000000000000012
100
AcDbArc
 50
92.0
 51
160.0
  0
ARC
  5
19D
330
1F
100
AcDbEntity
  8
1
  6
CONTINUOUS
 62
   155
100
AcDbCircle
 10
493.192582
 20
340.006743
 30
0.0
 40
3.0
100
AcDbArc
 50
120.0
 51
270.0
  0
ARC
  5
19E
330
1F
100
AcDbEntity
  8
1
  6
CONTINUOUS
 62
   155
100
AcDbCircle
 10
525.562908
 20
340.006743
 30
0.0
 40
3.0
100
AcDbArc
 50
270.0
 51
40.0
  0
ARC
  5
19F
330
1F
100
AcDbEntity
  8
1
  6
CONTINUOUS
 62
   155
100
AcDbCircle
 10
514.998793
 20
352.596565
 30
0.0
 40
2.999999999999979
100
AcDbArc
 50
40.0
 51
120.0
  0
ARC
  5
1A0
330
1F
100
AcDbEntity
  8
1
  6
CONTINUOUS
 62
   155
100
AcDbCircle
 10
-495.204641
 20
298.21258
 30
0.0
 40
2.999999999999989
210
0.0
220
0.0
230
-1.0
100
AcDbArc
 50
260.0
 51
340.0
  0
ARC
  5
1A1
330
1F
100
AcDbEntity
  8
1
  6
CONTINUOUS
 62
   155
100
AcDbCircle
 10
-511.389805
 20
301.066461
 30
0.0
 40
3.000000000000016
210
0.0
220
0.0
230
-1.0
100
AcDbArc
 50
130.0
 51
260.0
  0
ARC
  5
1A2
330
1F
100
AcDbEntity
  8
1
  6
CONTINUOUS
 62
   155
100
AcDbCircle
 10
-486.592696
 20
321.873706
 30
0.0
 40
3.000000000000019
210
0.0
220
0.0
230
-1.0
100
AcDbArc
 50
340.0
 51
130.0
  0
ARC
  5
1A3
330
1F
100
AcDbEntity
  8
1
  6
CONTINUOUS
 62
   155
100
AcDbCircle
 10
-152.263597
 20
417.543076
 30
0.0
 40
2.999999999999994
210
0.0
220
0.0
230
-1.0
100
AcDbArc
 50
15.0
 51
130.0
  0
ARC
  5
1A4
330
1F
100
AcDbEntity
  8
1
  6
CONTINUOUS
 62
   155
100
AcDbCircle
 10
-149.036641
 20
405.499914
 30
0.0
 40
3.0
210
0.0
220
0.0
230
-1.0
100
AcDbArc
 50
330.0
 51
15.0
  0
ARC
  5
1A5
330
1F
100
AcDbEntity
  8
1
  6
CONTINUOUS
 62
   155
100
AcDbCircle
 10
-164.108915
 20
379.393969
 30
0.0
 40
3.000000000000041
210
0.0
220
0.0
230
-1.0
100
AcDbArc
 50
230.0
 51
330.0
  0
ARC
  5
1A6
330
1F
100
AcDbEntity
  8
1
  6
CONTINUOUS
 62
   155
100
AcDbCircle
 10
-175.882811
 20
389.27344
 30
0.0
 40
2.999999999999994
210
0.0
220
0.0
230
-1.0
100
AcDbArc
 50
195.0
 51
230.0
  0
ARC
  5
1A7
330
1F
100
AcDbEntity
  8
1
  6
CONTINUOUS
 62
   155
100
AcDbCircle
 10
-177.731528
 20
396.172945
 30
0.0
 40
2.999999999999979
210
0.0
220
0.0
230
-1.0
100
AcDbArc
 50
130.0
 51
195.0
  0
ARC
  5
1A8
330
1F
100
AcDbEntity
  8
1
  6
CONTINUOUS
 62
   155
100
AcDbCircle
 10
-235.194986
 20
352.870941
 30
0.0
 40
2.999999999999997
210
0.0
220
0.0
230
-1.0
100
AcDbArc
 50
55.0
 51
135.0
  0
ARC
  5
1A9
330
1F
100
AcDbEntity
  8
1
  6
CONTINUOUS
 62
   155
100
AcDbCircle
 10
-214.569029
 20
338.428491
 30
0.0
 40
2.999999999999974
210
0.0
220
0.0
230
-1.0
100
AcDbArc
 50
265.0
 51
55.0
  0
ARC
  5
1AA
330
1F
100
AcDbEntity
  8
1
  6
CONTINUOUS
 62
   155
100
AcDbCircle
 10
-246.816177
 20
341.249751
 30
0.0
 40
3.000000000000004
210
0.0
220
0.0
230
-1.0
100
AcDbArc
 50
135.0
 51
265.0
  0
ARC
  5
1AB
330
1F
100
AcDbEntity
  8
1
  6
CONTINUOUS
 62
   155
100
AcDbCircle
 10
-203.369719
 20
398.317872
 30
0.0
 40
2.999999999999994
210
0.0
220
0.0
230
-1.0
100
AcDbArc
 50
2.318499
 51
107.0
  0
ARC
  5
1AC
330
1F
100
AcDbEntity
  8
1
  6
CONTINUOUS
 62
   155
100
AcDbCircle
 10
-202.289123
 20
371.628289
 30
0.0
 40
3.000000000000012
210
0.0
220
0.0
230
-1.0
100
AcDbArc
 50
227.099728
 51
2.318499
  0
ARC
  5
1AD
330
1F
100
AcDbEntity
  8
1
  6
CONTINUOUS
 62
   155
100
AcDbCircle
 10
-224.167684
 20
391.959296
 30
0.0
 40
3.00000000000002
210
0.0
220
0.0
230
-1.0
100
AcDbArc
 50
107.0
 51
227.099728
  0
ARC
  5
1AE
330
1F
100
AcDbEntity
  8
1
  6
CONTINUOUS
 62
   155
100
AcDbCircle
 10
116.059276
 20
282.426712
 30
0.0
 40
2.999999999999994
100
AcDbArc
 50
165.0
 51
280.0
  0
ARC
  5
1AF
330
1F
100
AcDbEntity
  8
1
  6
CONTINUOUS
 62
   155
100
AcDbCircle
 10
148.800217
 20
288.199824
 30
0.0
 40
2.999999999999994
100
AcDbArc
 50
280.0
 51
345.0
  0
ARC
  5
1B0
330
1F
100
AcDbEntity
  8
1
  6
CONTINUOUS
 62
   155
100
AcDbCircle
 10
150.648934
 20
295.099328
 30
0.0
 40
2.999999999999994
100
AcDbArc
 50
345.0
 51
20.0
  0
ARC
  5
1B1
330
1F
100
AcDbEntity
  8
1
  6
CONTINUOUS
 62
   155
100
AcDbCircle
 10
145.392177
 20
309.542149
 30
0.0
 40
3.000000000000046
100
AcDbArc
 50
20.0
 51
120.0
  0
ARC
  5
1B2
330
1F
100
AcDbEntity
  8
1
  6
CONTINUOUS
 62
   155
100
AcDbCircle
 10
119.286232
 20
294.469875
 30
0.0
 40
3.0
100
AcDbArc
 50
120.0
 51
165.0
  0
CIRCLE
  5
1B3
330
1F
100
AcDbEntity
  8
1
  6
CONTINUOUS
 62
   155
100
AcDbCircle
 10
180.205849
 20
363.529236
 30
0.0
 40
7.5
  0
CIRCLE
  5
1B4
330
1F
100
AcDbEntity
  8
1
  6
CONTINUOUS
 62
   155
100
AcDbCircle
 10
167.264897
 20
315.232944
 30
0.0
 40
7.5
  0
CIRCLE
  5
1B5
330
1F
100
AcDbEntity
  8
1
  6
CONTINUOUS
 62
   155
100
AcDbCircle
 10
149.587227
 20
345.851566
 30
0.0
 40
7.5
  0
CIRCLE
  5
1B6
330
1F
100
AcDbEntity
  8
1
  6
CONTINUOUS
 62
   155
100
AcDbCircle
 10
27.909596
 20
378.454989
 30
0.0
 40
1.5
  0
CIRCLE
  5
1B7
330
1F
100
AcDbEntity
  8
1
  6
CONTINUOUS
 62
   155
100
AcDbCircle
 10
33.862434
 20
400.671283
 30
0.0
 40
1.5
  0
CIRCLE
  5
1B8
330
1F
100
AcDbEntity
  8
1
  6
CONTINUOUS
 62
   155
100
AcDbCircle
 10
21.956758
 20
356.238695
 30
0.0
 40
1.5
  0
CIRCLE
  5
1B9
330
1F
100
AcDbEntity
  8
1
  6
CONTINUOUS
 62
   155
100
AcDbCircle
 10
233.379374
 20
364.810575
 30
0.0
 40
1.5
  0
CIRCLE
  5
1BA
330
1F
100
AcDbEntity
  8
1
  6
CONTINUOUS
 62
   155
100
AcDbCircle
 10
212.673851
 20
287.536509
 30
0.0
 40
1.5
  0
CIRCLE
  5
1BB
330
1F
100
AcDbEntity
  8
1
  6
CONTINUOUS
 62
   155
100
AcDbCircle
 10
98.881331
 20
298.271871
 30
0.0
 40
1.5
  0
CIRCLE
  5
1BC
330
1F
100
AcDbEntity
  8
1
  6
CONTINUOUS
 62
   155
100
AcDbCircle
 10
129.464481
 20
412.409739
 30
0.0
 40
1.5
  0
CIRCLE
  5
1BD
330
1F
100
AcDbEntity
  8
1
  6
CONTINUOUS
 62
   155
100
AcDbCircle
 10
114.172906
 20
355.340805
 30
0.0
 40
1.5
  0
CIRCLE
  5
1BE
330
1F
100
AcDbEntity
  8
1
  6
CONTINUOUS
 62
   155
100
AcDbCircle
 10
192.412732
 20
350.164469
 30
0.0
 40
1.5
  0
CIRCLE
  5
1BF
330
1F
100
AcDbEntity
  8
1
  6
CONTINUOUS
 62
   155
100
AcDbCircle
 10
184.518751
 20
320.703731
 30
0.0
 40
1.5
  0
CIRCLE
  5
1C0
330
1F
100
AcDbEntity
  8
1
  6
CONTINUOUS
 62
   155
100
AcDbCircle
 10
162.951994
 20
358.058449
 30
0.0
 40
1.5
  0
CIRCLE
  5
1C1
330
1F
100
AcDbEntity
  8
1
  6
CONTINUOUS
 62
   155
100
AcDbCircle
 10
155.058013
 20
328.597712
 30
0.0
 40
1.5
  0
ARC
  5
1C2
330
1F
100
AcDbEntity
  8
1
  6
CONTINUOUS
 62
   155
100
AcDbCircle
 10
40.601336
 20
319.20715
 30
0.0
 40
5.795269615767761
100
AcDbArc
 50
38.825604
 51
57.0
  0
ARC
  5
1C3
330
1F
100
AcDbEntity
  8
1
  6
CONTINUOUS
 62
   155
100
AcDbCircle
 10
-68.524885
 20
423.419253
 30
0.0
 40
5.795269615767721
210
0.0
220
0.0
230
-1.0
100
AcDbArc
 50
248.825604
 51
267.0
  0
ARC
  5
1C4
330
1F
100
AcDbEntity
  8
1
  6
CONTINUOUS
 62
   155
100
AcDbCircle
 10
-277.124678
 20
501.427161
 30
0.0
 40
100.0
210
0.0
220
0.0
230
-1.0
100
AcDbArc
 50
269.943881
 51
310.0
  0
ARC
  5
1C5
330
1F
100
AcDbEntity
  8
1
  6
CONTINUOUS
 62
   155
100
AcDbCircle
 10
182.250103
 20
147.350424
 30
0.0
 40
100.0
100
AcDbArc
 50
59.943881
 51
100.0
  0
CIRCLE
  5
1C6
330
1F
100
AcDbEntity
  8
1
  6
CONTINUOUS
 62
   155
100
AcDbCircle
 10
173.735373
 20
339.38109
 30
0.0
 40
7.5
  0
CIRCLE
  5
1C7
330
1F
100
AcDbEntity
  8
1
  6
CONTINUOUS
 62
   155
100
AcDbCircle
 10
197.883518
 20
332.910614
 30
0.0
 40
7.5
  0
ARC
  5
1C8
330
1F
100
AcDbEntity
  8
1
  6
CONTINUOUS
 62
   155
100
AcDbCircle
 10
107.852858
 20
370.391096
 30
0.0
 40
3.999999999999996
100
AcDbArc
 50
240.55786
 51
345.0
  0
ARC
  5
1C9
330
1F
100
AcDbEntity
  8
1
  6
CONTINUOUS
 62
   155
100
AcDbCircle
 10
115.968072
 20
400.67749
 30
0.0
 40
4.000000000000011
100
AcDbArc
 50
345.0
 51
97.0
  0
ARC
  5
1CA
330
1F
100
AcDbEntity
  8
1
  6
CONTINUOUS
 62
   155
100
AcDbCircle
 10
103.122126
 20
399.100206
 30
0.0
 40
3.999999999999995
100
AcDbArc
 50
97.0
 51
165.0
  0
ARC
  5
1CB
330
1F
100
AcDbEntity
  8
1
  6
CONTINUOUS
 62
   155
100
AcDbCircle
 10
97.061624
 20
376.482105
 30
0.0
 40
4.000000000000011
100
AcDbArc
 50
165.0
 51
240.55786
  0
ARC
  5
1CC
330
1F
100
AcDbEntity
  8
1
  6
CONTINUOUS
 62
   155
100
AcDbCircle
 10
93.059223
 20
315.180501
 30
0.0
 40
3.999999999999996
100
AcDbArc
 50
233.0
 51
345.0
  0
ARC
  5
1CD
330
1F
100
AcDbEntity
  8
1
  6
CONTINUOUS
 62
   155
100
AcDbCircle
 10
101.174438
 20
345.466894
 30
0.0
 40
4.000000000000011
100
AcDbArc
 50
345.0
 51
89.44214
  0
ARC
  5
1CE
330
1F
100
AcDbEntity
  8
1
  6
CONTINUOUS
 62
   155
100
AcDbCircle
 10
88.783452
 20
345.587543
 30
0.0
 40
3.999999999999972
100
AcDbArc
 50
89.44214
 51
165.0
  0
ARC
  5
1CF
330
1F
100
AcDbEntity
  8
1
  6
CONTINUOUS
 62
   155
100
AcDbCircle
 10
82.72295
 20
322.969442
 30
0.0
 40
4.000000000000011
100
AcDbArc
 50
165.0
 51
233.0
  0
CIRCLE
  5
1D0
330
1F
100
AcDbEntity
  8
1
  6
CONTINUOUS
 62
   155
100
AcDbCircle
 10
-222.105081
 20
252.019292
 30
0.0
 40
1.5
210
0.0
220
0.0
230
-1.0
  0
CIRCLE
  5
1D1
330
1F
100
AcDbEntity
  8
1
  6
CONTINUOUS
 62
   155
100
AcDbCircle
 10
-227.638614
 20
260.540185
 30
0.0
 40
1.5
210
0.0
220
0.0
230
-1.0
  0
CIRCLE
  5
1D2
330
1F
100
AcDbEntity
  8
1
  6
CONTINUOUS
 62
   155
100
AcDbCircle
 10
-233.172147
 20
269.061078
 30
0.0
 40
1.5
210
0.0
220
0.0
230
-1.0
  0
CIRCLE
  5
1D3
330
1F
100
AcDbEntity
  8
1
  6
CONTINUOUS
 62
   155
100
AcDbCircle
 10
-243.823263
 20
262.144162
 30
0.0
 40
1.5
210
0.0
220
0.0
230
-1.0
  0
CIRCLE
  5
1D4
330
1F
100
AcDbEntity
  8
1
  6
CONTINUOUS
 62
   155
100
AcDbCircle
 10
-238.28973
 20
253.623269
 30
0.0
 40
1.5
210
0.0
220
0.0
230
-1.0
  0
CIRCLE
  5
1D5
330
1F
100
AcDbEntity
  8
1
  6
CONTINUOUS
 62
   155
100
AcDbCircle
 10
-232.756198
 20
245.102376
 30
0.0
 40
1.5
210
0.0
220
0.0
230
-1.0
  0
CIRCLE
  5
1D6
330
1F
100
AcDbEntity
  8
1
  6
CONTINUOUS
 62
   155
100
AcDbCircle
 10
-259.305668
 20
390.853772
 30
0.0
 40
1.5
210
0.0
220
0.0
230
-1.0
  0
CIRCLE
  5
1D7
330
1F
100
AcDbEntity
  8
1
  6
CONTINUOUS
 62
   155
100
AcDbCircle
 10
-271.988263
 20
391.518439
 30
0.0
 40
1.5
210
0.0
220
0.0
230
-1.0
  0
CIRCLE
  5
1D8
330
1F
100
AcDbEntity
  8
1
  6
CONTINUOUS
 62
   155
100
AcDbCircle
 10
-272.519997
 20
381.372363
 30
0.0
 40
1.5
210
0.0
220
0.0
230
-1.0
  0
CIRCLE
  5
1D9
330
1F
100
AcDbEntity
  8
1
  6
CONTINUOUS
 62
   155
100
AcDbCircle
 10
-259.837402
 20
380.707696
 30
0.0
 40
1.5
210
0.0
220
0.0
230
-1.0
  0
CIRCLE
  5
1DA
330
1F
100
AcDbEntity
  8
1
  6
CONTINUOUS
 62
   155
100
AcDbCircle
 10
-260.369135
 20
370.56162
 30
0.0
 40
1.5
210
0.0
220
0.0
230
-1.0
  0
CIRCLE
  5
1DB
330
1F
100
AcDbEntity
  8
1
  6
CONTINUOUS
 62
   155
100
AcDbCircle
 10
-273.05173
 20
371.226287
 30
0.0
 40
1.5
210
0.0
220
0.0
230
-1.0
  0
CIRCLE
  5
1DC
330
1F
100
AcDbEntity
  8
1
  6
CONTINUOUS
 62
   155
100
AcDbCircle
 10
-188.172485
 20
438.025611
 30
0.0
 40
1.5
210
0.0
220
0.0
230
-1.0
  0
CIRCLE
  5
1DD
330
1F
100
AcDbEntity
  8
1
  6
CONTINUOUS
 62
   155
100
AcDbCircle
 10
-180.009083
 20
428.296847
 30
0.0
 40
1.5
210
0.0
220
0.0
230
-1.0
  0
CIRCLE
  5
1DE
330
1F
100
AcDbEntity
  8
1
  6
CONTINUOUS
 62
   155
100
AcDbCircle
 10
-172.226071
 20
434.827569
 30
0.0
 40
1.5
210
0.0
220
0.0
230
-1.0
  0
CIRCLE
  5
1DF
330
1F
100
AcDbEntity
  8
1
  6
CONTINUOUS
 62
   155
100
AcDbCircle
 10
-164.44306
 20
441.358291
 30
0.0
 40
1.5
210
0.0
220
0.0
230
-1.0
  0
CIRCLE
  5
1E0
330
1F
100
AcDbEntity
  8
1
  6
CONTINUOUS
 62
   155
100
AcDbCircle
 10
-172.606462
 20
451.087055
 30
0.0
 40
1.5
210
0.0
220
0.0
230
-1.0
  0
CIRCLE
  5
1E1
330
1F
100
AcDbEntity
  8
1
  6
CONTINUOUS
 62
   155
100
AcDbCircle
 10
-180.389474
 20
444.556333
 30
0.0
 40
1.5
210
0.0
220
0.0
230
-1.0
  0
CIRCLE
  5
1E2
330
1F
100
AcDbEntity
  8
1
  6
CONTINUOUS
 62
   155
100
AcDbCircle
 10
-51.494094
 20
410.969827
 30
0.0
 40
1.5
210
0.0
220
0.0
230
-1.0
  0
CIRCLE
  5
1E3
330
1F
100
AcDbEntity
  8
1
  6
CONTINUOUS
 62
   155
100
AcDbCircle
 10
-52.158761
 20
398.287232
 30
0.0
 40
1.5
210
0.0
220
0.0
230
-1.0
  0
CIRCLE
  5
1E4
330
1F
100
AcDbEntity
  8
1
  6
CONTINUOUS
 62
   155
100
AcDbCircle
 10
-62.304837
 20
398.818965
 30
0.0
 40
1.5
210
0.0
220
0.0
230
-1.0
  0
CIRCLE
  5
1E5
330
1F
100
AcDbEntity
  8
1
  6
CONTINUOUS
 62
   155
100
AcDbCircle
 10
-61.64017
 20
411.50156
 30
0.0
 40
1.5
210
0.0
220
0.0
230
-1.0
  0
CIRCLE
  5
1E6
330
1F
100
AcDbEntity
  8
1
  6
CONTINUOUS
 62
   155
100
AcDbCircle
 10
-71.786246
 20
412.033293
 30
0.0
 40
1.5
210
0.0
220
0.0
230
-1.0
  0
CIRCLE
  5
1E7
330
1F
100
AcDbEntity
  8
1
  6
CONTINUOUS
 62
   155
100
AcDbCircle
 10
-72.450913
 20
399.350698
 30
0.0
 40
1.5
210
0.0
220
0.0
230
-1.0
  0
CIRCLE
  5
1E8
330
1F
100
AcDbEntity
  8
1
  6
CONTINUOUS
 62
   155
100
AcDbCircle
 10
-49.118738
 20
327.437
 30
0.0
 40
1.5
210
0.0
220
0.0
230
-1.0
  0
CIRCLE
  5
1E9
330
1F
100
AcDbEntity
  8
1
  6
CONTINUOUS
 62
   155
100
AcDbCircle
 10
-40.597845
 20
332.970532
 30
0.0
 40
1.5
210
0.0
220
0.0
230
-1.0
  0
CIRCLE
  5
1EA
330
1F
100
AcDbEntity
  8
1
  6
CONTINUOUS
 62
   155
100
AcDbCircle
 10
-32.076952
 20
338.504065
 30
0.0
 40
1.5
210
0.0
220
0.0
230
-1.0
  0
CIRCLE
  5
1EB
330
1F
100
AcDbEntity
  8
1
  6
CONTINUOUS
 62
   155
100
AcDbCircle
 10
-38.993867
 20
349.155181
 30
0.0
 40
1.5
210
0.0
220
0.0
230
-1.0
  0
CIRCLE
  5
1EC
330
1F
100
AcDbEntity
  8
1
  6
CONTINUOUS
 62
   155
100
AcDbCircle
 10
-47.51476
 20
343.621649
 30
0.0
 40
1.5
210
0.0
220
0.0
230
-1.0
  0
CIRCLE
  5
1ED
330
1F
100
AcDbEntity
  8
1
  6
CONTINUOUS
 62
   155
100
AcDbCircle
 10
-56.035653
 20
338.088116
 30
0.0
 40
1.5
210
0.0
220
0.0
230
-1.0
  0
CIRCLE
  5
1EE
330
1F
100
AcDbEntity
  8
1
  6
CONTINUOUS
 62
   155
100
AcDbCircle
 10
-116.904725
 20
243.205342
 30
0.0
 40
1.5
210
0.0
220
0.0
230
-1.0
  0
CIRCLE
  5
1EF
330
1F
100
AcDbEntity
  8
1
  6
CONTINUOUS
 62
   155
100
AcDbCircle
 10
-136.916019
 20
246.733873
 30
0.0
 40
1.5
210
0.0
220
0.0
230
-1.0
  0
CIRCLE
  5
1F0
330
1F
100
AcDbEntity
  8
1
  6
CONTINUOUS
 62
   155
100
AcDbCircle
 10
-126.910372
 20
244.969607
 30
0.0
 40
1.5
210
0.0
220
0.0
230
-1.0
  0
CIRCLE
  5
1F1
330
1F
100
AcDbEntity
  8
1
  6
CONTINUOUS
 62
   155
100
AcDbCircle
 10
-114.699393
 20
255.7124
 30
0.0
 40
1.5
210
0.0
220
0.0
230
-1.0
  0
CIRCLE
  5
1F2
330
1F
100
AcDbEntity
  8
1
  6
CONTINUOUS
 62
   155
100
AcDbCircle
 10
-124.70504
 20
257.476666
 30
0.0
 40
1.5
210
0.0
220
0.0
230
-1.0
  0
CIRCLE
  5
1F3
330
1F
100
AcDbEntity
  8
1
  6
CONTINUOUS
 62
   155
100
AcDbCircle
 10
-134.710687
 20
259.240931
 30
0.0
 40
1.5
210
0.0
220
0.0
230
-1.0
  0
CIRCLE
  5
1F4
330
1F
100
AcDbEntity
  8
1
  6
CONTINUOUS
 62
   155
100
AcDbCircle
 10
24.933177
 20
367.346842
 30
0.0
 40
1.5
  0
CIRCLE
  5
1F5
330
1F
100
AcDbEntity
  8
1
  6
CONTINUOUS
 62
   155
100
AcDbCircle
 10
73.30811
 20
366.290494
 30
0.0
 40
1.5
  0
CIRCLE
  5
1F6
330
1F
100
AcDbEntity
  8
1
  6
CONTINUOUS
 62
   155
100
AcDbCircle
 10
65.596606
 20
318.192254
 30
0.0
 40
1.5
  0
CIRCLE
  5
1F7
330
1F
100
AcDbEntity
  8
1
  6
CONTINUOUS
 62
   155
100
AcDbCircle
 10
97.622162
 20
283.165126
 30
0.0
 40
1.5
  0
CIRCLE
  5
1F8
330
1F
100
AcDbEntity
  8
1
  6
CONTINUOUS
 62
   155
100
AcDbCircle
 10
178.197543
 20
305.056617
 30
0.0
 40
1.5
  0
CIRCLE
  5
1F9
330
1F
100
AcDbEntity
  8
1
  6
CONTINUOUS
 62
   155
100
AcDbCircle
 10
240.016796
 20
288.492199
 30
0.0
 40
1.5
  0
CIRCLE
  5
1FA
330
1F
100
AcDbEntity
  8
1
  6
CONTINUOUS
 62
   155
100
AcDbCircle
 10
204.316873
 20
256.347844
 30
0.0
 40
1.5
  0
CIRCLE
  5
1FB
330
1F
100
AcDbEntity
  8
1
  6
CONTINUOUS
 62
   155
100
AcDbCircle
 10
156.543638
 20
267.377164
 30
0.0
 40
1.5
  0
CIRCLE
  5
1FC
330
1F
100
AcDbEntity
  8
1
  6
CONTINUOUS
 62
   155
100
AcDbCircle
 10
120.665681
 20
326.710805
 30
0.0
 40
1.5
  0
CIRCLE
  5
1FD
330
1F
100
AcDbEntity
  8
1
  6
CONTINUOUS
 62
   155
100
AcDbCircle
 10
-30.886015
 20
389.563136
 30
0.0
 40
1.5
210
0.0
220
0.0
230
-1.0
  0
CIRCLE
  5
1FE
330
1F
100
AcDbEntity
  8
1
  6
CONTINUOUS
 62
   155
100
AcDbCircle
 10
-90.678872
 20
411.800544
 30
0.0
 40
1.5
210
0.0
220
0.0
230
-1.0
  0
CIRCLE
  5
1FF
330
1F
100
AcDbEntity
  8
1
  6
CONTINUOUS
 62
   155
100
AcDbCircle
 10
-135.927381
 20
426.122148
 30
0.0
 40
1.5
210
0.0
220
0.0
230
-1.0
  0
CIRCLE
  5
200
330
1F
100
AcDbEntity
  8
1
  6
CONTINUOUS
 62
   155
100
AcDbCircle
 10
-194.761962
 20
366.87587
 30
0.0
 40
1.5
210
0.0
220
0.0
230
-1.0
  0
CIRCLE
  5
201
330
1F
100
AcDbEntity
  8
1
  6
CONTINUOUS
 62
   155
100
AcDbCircle
 10
-256.581215
 20
350.311451
 30
0.0
 40
1.5
210
0.0
220
0.0
230
-1.0
  0
CIRCLE
  5
202
330
1F
100
AcDbEntity
  8
1
  6
CONTINUOUS
 62
   155
100
AcDbCircle
 10
-241.736352
 20
395.999241
 30
0.0
 40
1.5
210
0.0
220
0.0
230
-1.0
  0
CIRCLE
  5
203
330
1F
100
AcDbEntity
  8
1
  6
CONTINUOUS
 62
   155
100
AcDbCircle
 10
-194.848856
 20
410.334187
 30
0.0
 40
1.5
210
0.0
220
0.0
230
-1.0
  0
CIRCLE
  5
204
330
1F
100
AcDbEntity
  8
1
  6
CONTINUOUS
 62
   155
100
AcDbCircle
 10
-134.110814
 20
376.888725
 30
0.0
 40
1.5
210
0.0
220
0.0
230
-1.0
  0
CIRCLE
  5
205
330
1F
100
AcDbEntity
  8
1
  6
CONTINUOUS
 62
   163
100
AcDbCircle
 10
-548.285368
 20
28.897464
 30
0.0
 40
1.5
210
0.0
220
0.0
230
-1.0
  0
CIRCLE
  5
206
330
1F
100
AcDbEntity
  8
1
  6
CONTINUOUS
 62
   163
100
AcDbCircle
 10
-565.779449
 20
53.881601
 30
0.0
 40
1.5
210
0.0
220
0.0
230
-1.0
  0
CIRCLE
  5
207
330
1F
100
AcDbEntity
  8
1
  6
CONTINUOUS
 62
   163
100
AcDbCircle
 10
-540.795312
 20
71.375683
 30
0.0
 40
1.5
210
0.0
220
0.0
230
-1.0
  0
CIRCLE
  5
208
330
1F
100
AcDbEntity
  8
1
  6
CONTINUOUS
 62
   163
100
AcDbCircle
 10
-523.30123
 20
46.391545
 30
0.0
 40
1.5
210
0.0
220
0.0
230
-1.0
  0
ARC
  5
209
330
1F
100
AcDbEntity
  8
1
  6
CONTINUOUS
 62
   163
100
AcDbCircle
 10
-562.136191
 20
49.114352
 30
0.0
 40
2.5
210
0.0
220
0.0
230
-1.0
100
AcDbArc
 50
127.388015
 51
215.0
  0
ARC
  5
20A
330
1F
100
AcDbEntity
  8
1
  6
CONTINUOUS
 62
   163
100
AcDbCircle
 10
565.779449
 20
53.881601
 30
0.0
 40
3.50000000000011
100
AcDbArc
 50
147.388015
 51
232.611985
  0
ARC
  5
20B
330
1F
100
AcDbEntity
  8
1
  6
CONTINUOUS
 62
   163
100
AcDbCircle
 10
-560.725411
 20
57.115283
 30
0.0
 40
2.5
210
0.0
220
0.0
230
-1.0
100
AcDbArc
 50
125.0
 51
212.611985
  0
ARC
  5
20C
330
1F
100
AcDbEntity
  8
1
  6
CONTINUOUS
 62
   163
100
AcDbCircle
 10
-545.562562
 20
67.732425
 30
0.0
 40
2.50000000000002
210
0.0
220
0.0
230
-1.0
100
AcDbArc
 50
37.388015
 51
125.0
  0
ARC
  5
20D
330
1F
100
AcDbEntity
  8
1
  6
CONTINUOUS
 62
   163
100
AcDbCircle
 10
540.795312
 20
71.375683
 30
0.0
 40
3.49999999999999
100
AcDbArc
 50
237.388015
 51
322.611985
  0
ARC
  5
20E
330
1F
100
AcDbEntity
  8
1
  6
CONTINUOUS
 62
   163
100
AcDbCircle
 10
-537.56163
 20
66.321645
 30
0.0
 40
2.5
210
0.0
220
0.0
230
-1.0
100
AcDbArc
 50
35.0
 51
122.611985
  0
ARC
  5
20F
330
1F
100
AcDbEntity
  8
1
  6
CONTINUOUS
 62
   163
100
AcDbCircle
 10
526.944488
 20
51.158795
 30
0.0
 40
2.5
100
AcDbArc
 50
145.0
 51
232.611985
  0
ARC
  5
210
330
1F
100
AcDbEntity
  8
1
  6
CONTINUOUS
 62
   163
100
AcDbCircle
 10
-523.30123
 20
46.391545
 30
0.0
 40
3.49999999999999
210
0.0
220
0.0
230
-1.0
100
AcDbArc
 50
127.388015
 51
212.611985
  0
ARC
  5
211
330
1F
100
AcDbEntity
  8
1
  6
CONTINUOUS
 62
   163
100
AcDbCircle
 10
528.355269
 20
43.157863
 30
0.0
 40
2.50000000000002
100
AcDbArc
 50
147.388015
 51
235.0
  0
ARC
  5
212
330
1F
100
AcDbEntity
  8
1
  6
CONTINUOUS
 62
   163
100
AcDbCircle
 10
543.518118
 20
32.540722
 30
0.0
 40
2.5
100
AcDbArc
 50
235.0
 51
322.611985
  0
ARC
  5
213
330
1F
100
AcDbEntity
  8
1
  6
CONTINUOUS
 62
   163
100
AcDbCircle
 10
-548.285368
 20
28.897464
 30
0.0
 40
3.50000000000011
210
0.0
220
0.0
230
-1.0
100
AcDbArc
 50
37.388015
 51
122.611985
  0
ARC
  5
214
330
1F
100
AcDbEntity
  8
1
  6
CONTINUOUS
 62
   163
100
AcDbCircle
 10
551.51905
 20
33.951502
 30
0.0
 40
2.5
100
AcDbArc
 50
237.388015
 51
325.0
  0
ARC
  5
215
330
1F
100
AcDbEntity
  8
1
  6
CONTINUOUS
 62
   163
100
AcDbCircle
 10
460.646546
 20
156.873658
 30
0.0
 40
3.0
100
AcDbArc
 50
2.542042
 51
145.0
  0
ARC
  5
216
330
1F
100
AcDbEntity
  8
1
  6
CONTINUOUS
 62
   163
100
AcDbCircle
 10
445.203162
 20
134.81822
 30
0.0
 40
3.0
100
AcDbArc
 50
145.0
 51
254.542042
  0
ARC
  5
217
330
1F
100
AcDbEntity
  8
1
  6
CONTINUOUS
 62
   163
100
AcDbCircle
 10
461.829849
 20
130.220367
 30
0.0
 40
3.0
100
AcDbArc
 50
254.542042
 51
2.542042
  0
ARC
  5
218
330
1F
100
AcDbEntity
  8
1
  6
CONTINUOUS
 62
   163
100
AcDbCircle
 10
461.973463
 20
186.663841
 30
0.0
 40
3.0
100
AcDbArc
 50
257.0
 51
325.0
  0
ARC
  5
219
330
1F
100
AcDbEntity
  8
1
  6
CONTINUOUS
 62
   163
100
AcDbCircle
 10
-447.066967
 20
170.605499
 30
0.0
 40
6.0
210
0.0
220
0.0
230
-1.0
100
AcDbArc
 50
103.0
 51
215.0
  0
ARC
  5
21A
330
1F
100
AcDbEntity
  8
1
  6
CONTINUOUS
 62
   163
100
AcDbCircle
 10
-401.664673
 20
181.087445
 30
0.0
 40
6.0
210
0.0
220
0.0
230
-1.0
100
AcDbArc
 50
319.44214
 51
103.0
  0
ARC
  5
21B
330
1F
100
AcDbEntity
  8
1
  6
CONTINUOUS
 62
   163
100
AcDbCircle
 10
-430.672977
 20
147.192455
 30
0.0
 40
5.99999999999999
210
0.0
220
0.0
230
-1.0
100
AcDbArc
 50
215.0
 51
319.44214
  0
ARC
  5
21C
330
1F
100
AcDbEntity
  8
1
  6
CONTINUOUS
 62
   163
100
AcDbCircle
 10
541.763332
 20
120.105827
 30
0.0
 40
3.0
100
AcDbArc
 50
55.0
 51
210.0
  0
ARC
  5
21D
330
1F
100
AcDbEntity
  8
1
  6
CONTINUOUS
 62
   163
100
AcDbCircle
 10
547.862357
 20
109.542005
 30
0.0
 40
3.0
100
AcDbArc
 50
210.0
 51
254.542042
  0
ARC
  5
21E
330
1F
100
AcDbEntity
  8
1
  6
CONTINUOUS
 62
   163
100
AcDbCircle
 10
555.055421
 20
107.552875
 30
0.0
 40
3.0
100
AcDbArc
 50
254.542042
 51
343.756724
  0
ARC
  5
21F
330
1F
100
AcDbEntity
  8
1
  6
CONTINUOUS
 62
   163
100
AcDbCircle
 10
555.840827
 20
110.248658
 30
0.0
 40
3.0
100
AcDbArc
 50
343.756724
 51
55.0
  0
ARC
  5
220
330
1F
100
AcDbEntity
  8
1
  6
CONTINUOUS
 62
   163
100
AcDbCircle
 10
510.26227
 20
144.667266
 30
0.0
 40
3.0
100
AcDbArc
 50
225.389421
 51
30.0
  0
ARC
  5
221
330
1F
100
AcDbEntity
  8
1
  6
CONTINUOUS
 62
   163
100
AcDbCircle
 10
483.977535
 20
190.193763
 30
0.0
 40
3.0
100
AcDbArc
 50
30.0
 51
145.0
  0
ARC
  5
222
330
1F
100
AcDbEntity
  8
1
  6
CONTINUOUS
 62
   163
100
AcDbCircle
 10
475.86179
 20
178.603278
 30
0.0
 40
3.0
100
AcDbArc
 50
145.0
 51
225.389421
  0
ARC
  5
223
330
1F
100
AcDbEntity
  8
1
  6
CONTINUOUS
 62
   163
100
AcDbCircle
 10
477.305613
 20
142.383496
 30
0.0
 40
3.0
100
AcDbArc
 50
182.542042
 51
235.0
  0
ARC
  5
224
330
1F
100
AcDbEntity
  8
1
  6
CONTINUOUS
 62
   163
100
AcDbCircle
 10
518.564416
 20
113.493771
 30
0.0
 40
3.0
100
AcDbArc
 50
235.0
 51
254.542042
  0
ARC
  5
225
330
1F
100
AcDbEntity
  8
1
  6
CONTINUOUS
 62
   163
100
AcDbCircle
 10
519.280315
 20
113.2958
 30
0.0
 40
3.0
100
AcDbArc
 50
254.542042
 51
45.389421
  0
ARC
  5
226
330
1F
100
AcDbEntity
  8
1
  6
CONTINUOUS
 62
   163
100
AcDbCircle
 10
476.733588
 20
155.26807
 30
0.0
 40
3.0
100
AcDbArc
 50
45.389421
 51
182.542042
  0
ARC
  5
227
330
1F
100
AcDbEntity
  8
1
  6
CONTINUOUS
 62
   163
100
AcDbCircle
 10
388.007139
 20
81.028982
 30
0.0
 40
3.0
100
AcDbArc
 50
325.0
 51
33.0
  0
ARC
  5
228
330
1F
100
AcDbEntity
  8
1
  6
CONTINUOUS
 62
   163
100
AcDbCircle
 10
489.853691
 20
26.697044
 30
0.0
 40
3.0
100
AcDbArc
 50
35.457958
 51
80.0
  0
ARC
  5
229
330
1F
100
AcDbEntity
  8
1
  6
CONTINUOUS
 62
   163
100
AcDbCircle
 10
477.840956
 20
28.815213
 30
0.0
 40
3.0
100
AcDbArc
 50
80.0
 51
235.0
  0
ARC
  5
22A
330
1F
100
AcDbEntity
  8
1
  6
CONTINUOUS
 62
   163
100
AcDbCircle
 10
491.918452
 20
18.958045
 30
0.0
 40
3.0
100
AcDbArc
 50
235.0
 51
306.243276
  0
ARC
  5
22B
330
1F
100
AcDbEntity
  8
1
  6
CONTINUOUS
 62
   163
100
AcDbCircle
 10
494.183035
 20
20.618097
 30
0.0
 40
3.0
100
AcDbArc
 50
306.243276
 51
35.457958
  0
ARC
  5
22C
330
1F
100
AcDbEntity
  8
1
  6
CONTINUOUS
 62
   163
100
AcDbCircle
 10
397.998722
 20
100.528783
 30
0.0
 40
6.0
100
AcDbArc
 50
213.0
 51
325.0
  0
ARC
  5
22D
330
1F
100
AcDbEntity
  8
1
  6
CONTINUOUS
 62
   163
100
AcDbCircle
 10
414.392712
 20
123.941827
 30
0.0
 40
5.99999999999999
100
AcDbArc
 50
325.0
 51
69.44214
  0
ARC
  5
22E
330
1F
100
AcDbEntity
  8
1
  6
CONTINUOUS
 62
   163
100
AcDbCircle
 10
372.620417
 20
139.607947
 30
0.0
 40
6.0
100
AcDbArc
 50
69.44214
 51
213.0
  0
ARC
  5
22F
330
1F
100
AcDbEntity
  8
1
  6
CONTINUOUS
 62
   163
100
AcDbCircle
 10
341.743993
 20
187.863393
 30
0.0
 40
1.5
100
AcDbArc
 50
55.0
 51
235.0
  0
ARC
  5
230
330
1F
100
AcDbEntity
  8
1
  6
CONTINUOUS
 62
   163
100
AcDbCircle
 10
342.992381
 20
186.989262
 30
0.0
 40
1.5
100
AcDbArc
 50
235.0
 51
55.0
  0
ARC
  5
231
330
1F
100
AcDbEntity
  8
1
  6
CONTINUOUS
 62
   163
100
AcDbCircle
 10
347.007416
 20
192.723327
 30
0.0
 40
1.5
100
AcDbArc
 50
235.0
 51
55.0
  0
ARC
  5
232
330
1F
100
AcDbEntity
  8
1
  6
CONTINUOUS
 62
   163
100
AcDbCircle
 10
345.759028
 20
193.597457
 30
0.0
 40
1.5
100
AcDbArc
 50
55.0
 51
235.0
  0
ARC
  5
233
330
1F
100
AcDbEntity
  8
1
  6
CONTINUOUS
 62
   163
100
AcDbCircle
 10
-485.43563
 20
70.768969
 30
0.0
 40
8.0
210
0.0
220
0.0
230
-1.0
100
AcDbArc
 50
215.0
 51
305.0
  0
ARC
  5
234
330
1F
100
AcDbEntity
  8
1
  6
CONTINUOUS
 62
   163
100
AcDbCircle
 10
-504.937229
 20
98.620138
 30
0.0
 40
8.0
210
0.0
220
0.0
230
-1.0
100
AcDbArc
 50
125.0
 51
215.0
  0
ARC
  5
235
330
1F
100
AcDbEntity
  8
1
  6
CONTINUOUS
 62
   163
100
AcDbCircle
 10
-477.086059
 20
118.121737
 30
0.0
 40
8.0
210
0.0
220
0.0
230
-1.0
100
AcDbArc
 50
35.0
 51
125.0
  0
ARC
  5
236
330
1F
100
AcDbEntity
  8
1
  6
CONTINUOUS
 62
   163
100
AcDbCircle
 10
-457.58446
 20
90.270568
 30
0.0
 40
8.0
210
0.0
220
0.0
230
-1.0
100
AcDbArc
 50
305.0
 51
35.0
  0
CIRCLE
  5
237
330
1F
100
AcDbEntity
  8
1
  6
CONTINUOUS
 62
   163
100
AcDbCircle
 10
-345.19578
 20
161.641322
 30
0.0
 40
1.5
210
0.0
220
0.0
230
-1.0
  0
CIRCLE
  5
238
330
1F
100
AcDbEntity
  8
1
  6
CONTINUOUS
 62
   163
100
AcDbCircle
 10
-371.580296
 20
199.322316
 30
0.0
 40
1.5
210
0.0
220
0.0
230
-1.0
  0
CIRCLE
  5
239
330
1F
100
AcDbEntity
  8
1
  6
CONTINUOUS
 62
   163
100
AcDbCircle
 10
-465.431622
 20
177.65503
 30
0.0
 40
1.5
210
0.0
220
0.0
230
-1.0
  0
CIRCLE
  5
23A
330
1F
100
AcDbEntity
  8
1
  6
CONTINUOUS
 62
   163
100
AcDbCircle
 10
-546.799808
 20
97.38546
 30
0.0
 40
1.5
210
0.0
220
0.0
230
-1.0
  0
CIRCLE
  5
23B
330
1F
100
AcDbEntity
  8
1
  6
CONTINUOUS
 62
   163
100
AcDbCircle
 10
-500.913693
 20
31.853297
 30
0.0
 40
1.5
210
0.0
220
0.0
230
-1.0
  0
CIRCLE
  5
23C
330
1F
100
AcDbEntity
  8
1
  6
CONTINUOUS
 62
   163
100
AcDbCircle
 10
-431.543517
 20
129.2578
 30
0.0
 40
1.5
210
0.0
220
0.0
230
-1.0
  0
CIRCLE
  5
23D
330
1F
100
AcDbEntity
  8
1
  6
CONTINUOUS
 62
   163
100
AcDbCircle
 10
-397.655413
 20
80.860571
 30
0.0
 40
1.5
210
0.0
220
0.0
230
-1.0
  0
ARC
  5
23E
330
1F
100
AcDbEntity
  8
1
  6
CONTINUOUS
 62
   163
100
AcDbCircle
 10
325.789093
 20
165.077434
 30
0.0
 40
1.5
100
AcDbArc
 50
55.0
 51
235.0
  0
ARC
  5
23F
330
1F
100
AcDbEntity
  8
1
  6
CONTINUOUS
 62
   163
100
AcDbCircle
 10
327.037481
 20
164.203303
 30
0.0
 40
1.50000000000001
100
AcDbArc
 50
235.0
 51
55.0
  0
ARC
  5
240
330
1F
100
AcDbEntity
  8
1
  6
CONTINUOUS
 62
   163
100
AcDbCircle
 10
331.052516
 20
169.937367
 30
0.0
 40
1.5
100
AcDbArc
 50
235.0
 51
55.0
  0
ARC
  5
241
330
1F
100
AcDbEntity
  8
1
  6
CONTINUOUS
 62
   163
100
AcDbCircle
 10
329.804128
 20
170.811498
 30
0.0
 40
1.5
100
AcDbArc
 50
55.0
 51
235.0
  0
ARC
  5
242
330
1F
100
AcDbEntity
  8
1
  6
CONTINUOUS
 62
   163
100
AcDbCircle
 10
-361.713929
 20
216.383416
 30
0.0
 40
1.5
210
0.0
220
0.0
230
-1.0
100
AcDbArc
 50
305.0
 51
125.0
  0
ARC
  5
243
330
1F
100
AcDbEntity
  8
1
  6
CONTINUOUS
 62
   163
100
AcDbCircle
 10
-357.698894
 20
210.649352
 30
0.0
 40
1.5
210
0.0
220
0.0
230
-1.0
100
AcDbArc
 50
305.0
 51
125.0
  0
ARC
  5
244
330
1F
100
AcDbEntity
  8
1
  6
CONTINUOUS
 62
   163
100
AcDbCircle
 10
-358.947282
 20
209.775222
 30
0.0
 40
1.5
210
0.0
220
0.0
230
-1.0
100
AcDbArc
 50
125.0
 51
305.0
  0
ARC
  5
245
330
1F
100
AcDbEntity
  8
1
  6
CONTINUOUS
 62
   163
100
AcDbCircle
 10
-362.962317
 20
215.509286
 30
0.0
 40
1.50000000000001
210
0.0
220
0.0
230
-1.0
100
AcDbArc
 50
125.0
 51
305.0
  0
ARC
  5
246
330
1F
100
AcDbEntity
  8
1
  6
CONTINUOUS
 62
   163
100
AcDbCircle
 10
362.346585
 20
166.957295
 30
0.0
 40
6.0
100
AcDbArc
 50
145.0
 51
249.44214
  0
ARC
  5
247
330
1F
100
AcDbEntity
  8
1
  6
CONTINUOUS
 62
   163
100
AcDbCircle
 10
395.414435
 20
154.555656
 30
0.0
 40
6.0
100
AcDbArc
 50
249.44214
 51
40.55786
  0
ARC
  5
248
330
1F
100
AcDbEntity
  8
1
  6
CONTINUOUS
 62
   163
100
AcDbCircle
 10
372.450836
 20
181.387661
 30
0.0
 40
6.0
100
AcDbArc
 50
40.55786
 51
145.0
  0
ARC
  5
249
330
1F
100
AcDbEntity
  8
1
  6
CONTINUOUS
 62
   163
100
AcDbCircle
 10
430.990306
 20
114.520158
 30
0.0
 40
3.0
100
AcDbArc
 50
35.457958
 51
145.0
  0
ARC
  5
24A
330
1F
100
AcDbEntity
  8
1
  6
CONTINUOUS
 62
   163
100
AcDbCircle
 10
415.546922
 20
92.46472
 30
0.0
 40
3.0
100
AcDbArc
 50
145.0
 51
287.457958
  0
ARC
  5
24B
330
1F
100
AcDbEntity
  8
1
  6
CONTINUOUS
 62
   163
100
AcDbCircle
 10
440.997536
 20
100.468741
 30
0.0
 40
3.0
100
AcDbArc
 50
287.457958
 51
35.457958
  0
ARC
  5
24C
330
1F
100
AcDbEntity
  8
1
  6
CONTINUOUS
 62
   163
100
AcDbCircle
 10
476.119759
 20
52.87652
 30
0.0
 40
3.0
100
AcDbArc
 50
35.457958
 51
55.0
  0
ARC
  5
24D
330
1F
100
AcDbEntity
  8
1
  6
CONTINUOUS
 62
   163
100
AcDbCircle
 10
434.860957
 20
81.766244
 30
0.0
 40
3.0
100
AcDbArc
 50
55.0
 51
107.457958
  0
ARC
  5
24E
330
1F
100
AcDbEntity
  8
1
  6
CONTINUOUS
 62
   163
100
AcDbCircle
 10
422.557773
 20
77.896988
 30
0.0
 40
3.0
100
AcDbArc
 50
107.457958
 51
244.610579
  0
ARC
  5
24F
330
1F
100
AcDbEntity
  8
1
  6
CONTINUOUS
 62
   163
100
AcDbCircle
 10
476.550643
 20
52.271504
 30
0.0
 40
3.0
100
AcDbArc
 50
244.610579
 51
35.457958
  0
ARC
  5
250
330
1F
100
AcDbEntity
  8
1
  6
CONTINUOUS
 62
   163
100
AcDbCircle
 10
392.215933
 20
59.144614
 30
0.0
 40
3.0
100
AcDbArc
 50
145.0
 51
260.0
  0
ARC
  5
251
330
1F
100
AcDbEntity
  8
1
  6
CONTINUOUS
 62
   163
100
AcDbCircle
 10
443.986755
 20
50.016021
 30
0.0
 40
3.0
100
AcDbArc
 50
260.0
 51
64.610579
  0
ARC
  5
252
330
1F
100
AcDbEntity
  8
1
  6
CONTINUOUS
 62
   163
100
AcDbCircle
 10
400.331678
 20
70.735099
 30
0.0
 40
3.0
100
AcDbArc
 50
64.610579
 51
145.0
  0
CIRCLE
  5
253
330
1F
100
AcDbEntity
  8
1
  6
CONTINUOUS
 62
   163
100
AcDbCircle
 10
448.746555
 20
117.212103
 30
0.0
 40
3.175
  0
ARC
  5
254
330
1F
100
AcDbEntity
  8
1
  6
CONTINUOUS
 62
   163
100
AcDbCircle
 10
-736.836282
 20
-84.510495
 30
0.0
 40
200.0
210
0.0
220
0.0
230
-1.0
100
AcDbArc
 50
32.110444
 51
37.889556
  0
ARC
  5
255
330
1F
100
AcDbEntity
  8
1
  6
CONTINUOUS
 62
   163
100
AcDbCircle
 10
-528.458276
 20
0.363568
 30
0.0
 40
25.0
210
0.0
220
0.0
230
-1.0
100
AcDbArc
 50
59.158813
 51
140.762201
  0
ARC
  5
256
330
1F
100
AcDbEntity
  8
1
  6
CONTINUOUS
 62
   163
100
AcDbCircle
 10
-597.667403
 20
-115.546297
 30
0.0
 40
160.0
210
0.0
220
0.0
230
-1.0
100
AcDbArc
 50
47.960966
 51
59.158813
  0
ARC
  5
257
330
1F
100
AcDbEntity
  8
1
  6
CONTINUOUS
 62
   163
100
AcDbCircle
 10
-389.578578
 20
-93.719768
 30
0.0
 40
140.0
210
0.0
220
0.0
230
-1.0
100
AcDbArc
 50
79.635665
 51
136.141208
  0
ARC
  5
258
330
1F
100
AcDbEntity
  8
1
  6
CONTINUOUS
 62
   163
100
AcDbCircle
 10
-245.077724
 20
56.809797
 30
0.0
 40
120.0
210
0.0
220
0.0
230
-1.0
100
AcDbArc
 50
148.317394
 51
186.129851
  0
ARC
  5
259
330
1F
100
AcDbEntity
  8
1
  6
CONTINUOUS
 62
   163
100
AcDbCircle
 10
-328.888364
 20
127.891237
 30
0.0
 40
20.0
210
0.0
220
0.0
230
-1.0
100
AcDbArc
 50
35.0
 51
203.752836
  0
ARC
  5
25A
330
1F
100
AcDbEntity
  8
1
  6
CONTINUOUS
 62
   163
100
AcDbCircle
 10
-310.380968
 20
179.915042
 30
0.0
 40
12.0
210
0.0
220
0.0
230
-1.0
100
AcDbArc
 50
215.0
 51
305.0
  0
ARC
  5
25B
330
1F
100
AcDbEntity
  8
1
  6
CONTINUOUS
 62
   163
100
AcDbCircle
 10
-342.501248
 20
225.787557
 30
0.0
 40
12.0
210
0.0
220
0.0
230
-1.0
100
AcDbArc
 50
125.0
 51
215.0
  0
ARC
  5
25C
330
1F
100
AcDbEntity
  8
1
  6
CONTINUOUS
 62
   163
100
AcDbCircle
 10
-397.717536
 20
226.189483
 30
0.0
 40
20.0
210
0.0
220
0.0
230
-1.0
100
AcDbArc
 50
226.247164
 51
35.0
  0
ARC
  5
25D
330
1F
100
AcDbEntity
  8
1
  6
CONTINUOUS
 62
   163
100
AcDbCircle
 10
-435.847314
 20
329.257007
 30
0.0
 40
120.0
210
0.0
220
0.0
230
-1.0
100
AcDbArc
 50
243.870149
 51
281.682606
  0
ARC
  5
25E
330
1F
100
AcDbEntity
  8
1
  6
CONTINUOUS
 62
   163
100
AcDbCircle
 10
-626.721038
 20
244.954763
 30
0.0
 40
140.0
210
0.0
220
0.0
230
-1.0
100
AcDbArc
 50
293.858792
 51
350.364335
  0
ARC
  5
25F
330
1F
100
AcDbEntity
  8
1
  6
CONTINUOUS
 62
   163
100
AcDbCircle
 10
-718.401836
 20
56.880343
 30
0.0
 40
160.0
210
0.0
220
0.0
230
-1.0
100
AcDbArc
 50
10.841187
 51
22.039034
  0
ARC
  5
260
330
1F
100
AcDbEntity
  8
1
  6
CONTINUOUS
 62
   163
100
AcDbCircle
 10
-585.811276
 20
82.27214
 30
0.0
 40
25.0
210
0.0
220
0.0
230
-1.0
100
AcDbArc
 50
289.237799
 51
10.841187
  0
CIRCLE
  5
261
330
1F
100
AcDbEntity
  8
1
  6
CONTINUOUS
 62
   163
100
AcDbCircle
 10
-305.38023
 20
155.338781
 30
0.0
 40
1.5
210
0.0
220
0.0
230
-1.0
  0
CIRCLE
  5
262
330
1F
100
AcDbEntity
  8
1
  6
CONTINUOUS
 62
   163
100
AcDbCircle
 10
-363.885027
 20
238.892289
 30
0.0
 40
1.5
210
0.0
220
0.0
230
-1.0
  0
ARC
  5
263
330
1F
100
AcDbEntity
  8
1
  6
CONTINUOUS
 62
   163
100
AcDbCircle
 10
346.30342
 20
173.683877
 30
0.0
 40
0.999999999999997
100
AcDbArc
 50
145.0
 51
325.0
  0
ARC
  5
264
330
1F
100
AcDbEntity
  8
1
  6
CONTINUOUS
 62
   163
100
AcDbCircle
 10
360.642831
 20
194.162678
 30
0.0
 40
0.9999999999999981
100
AcDbArc
 50
325.0
 51
145.0
  0
ARC
  5
265
330
1F
100
AcDbEntity
  8
1
  6
CONTINUOUS
 62
   163
100
AcDbCircle
 10
295.799808
 20
45.38546
 30
0.0
 40
20.0
100
AcDbArc
 50
180.0
 51
270.0
  0
ARC
  5
266
330
1F
100
AcDbEntity
  8
1
  6
CONTINUOUS
 62
   163
100
AcDbCircle
 10
295.799808
 20
79.38546
 30
0.0
 40
20.0
100
AcDbArc
 50
90.0
 51
180.0
  0
ARC
  5
267
330
1F
100
AcDbEntity
  8
1
  6
CONTINUOUS
 62
   163
100
AcDbCircle
 10
309.799808
 20
79.38546
 30
0.0
 40
20.0
100
AcDbArc
 50
0.0
 51
90.0
  0
ARC
  5
268
330
1F
100
AcDbEntity
  8
1
  6
CONTINUOUS
 62
   163
100
AcDbCircle
 10
309.799808
 20
45.38546
 30
0.0
 40
20.0
100
AcDbArc
 50
270.0
 51
360.0
  0
ARC
  5
269
330
1F
100
AcDbEntity
  8
1
  6
CONTINUOUS
 62
   163
100
AcDbCircle
 10
297.142954
 20
68.042314
 30
0.0
 40
1.5
100
AcDbArc
 50
225.0
 51
45.0
  0
ARC
  5
26A
330
1F
100
AcDbEntity
  8
1
  6
CONTINUOUS
 62
   163
100
AcDbCircle
 10
296.082294
 20
69.102975
 30
0.0
 40
1.5
100
AcDbArc
 50
45.0
 51
225.0
  0
ARC
  5
26B
330
1F
100
AcDbEntity
  8
1
  6
CONTINUOUS
 62
   163
100
AcDbCircle
 10
-308.456662
 20
56.728606
 30
0.0
 40
1.5
210
0.0
220
0.0
230
-1.0
100
AcDbArc
 50
315.0
 51
135.0
  0
ARC
  5
26C
330
1F
100
AcDbEntity
  8
1
  6
CONTINUOUS
 62
   163
100
AcDbCircle
 10
-309.517323
 20
55.667946
 30
0.0
 40
1.5
210
0.0
220
0.0
230
-1.0
100
AcDbArc
 50
135.0
 51
315.0
  0
CIRCLE
  5
26D
330
1F
100
AcDbEntity
  8
1
  6
CONTINUOUS
 62
   163
100
AcDbCircle
 10
-302.799808
 20
34.38546
 30
0.0
 40
4.500000000000001
210
0.0
220
0.0
230
-1.0
  0
CIRCLE
  5
26E
330
1F
100
AcDbEntity
  8
1
  6
CONTINUOUS
 62
   163
100
AcDbCircle
 10
-285.299808
 20
42.38546
 30
0.0
 40
4.500000000000001
210
0.0
220
0.0
230
-1.0
  0
CIRCLE
  5
26F
330
1F
100
AcDbEntity
  8
1
  6
CONTINUOUS
 62
   163
100
AcDbCircle
 10
-320.299808
 20
42.38546
 30
0.0
 40
4.500000000000001
210
0.0
220
0.0
230
-1.0
  0
CIRCLE
  5
270
330
1F
100
AcDbEntity
  8
1
  6
CONTINUOUS
 62
   163
100
AcDbCircle
 10
-302.799808
 20
62.38546
 30
0.0
 40
4.500000000000001
210
0.0
220
0.0
230
-1.0
  0
CIRCLE
  5
271
330
1F
100
AcDbEntity
  8
1
  6
CONTINUOUS
 62
   163
100
AcDbCircle
 10
-320.799808
 20
62.38546
 30
0.0
 40
4.500000000000001
210
0.0
220
0.0
230
-1.0
  0
CIRCLE
  5
272
330
1F
100
AcDbEntity
  8
1
  6
CONTINUOUS
 62
   163
100
AcDbCircle
 10
-284.799808
 20
62.38546
 30
0.0
 40
3.175
210
0.0
220
0.0
230
-1.0
  0
CIRCLE
  5
273
330
1F
100
AcDbEntity
  8
1
  6
CONTINUOUS
 62
   163
100
AcDbCircle
 10
-285.299808
 20
82.38546
 30
0.0
 40
4.500000000000001
210
0.0
220
0.0
230
-1.0
  0
CIRCLE
  5
274
330
1F
100
AcDbEntity
  8
1
  6
CONTINUOUS
 62
   163
100
AcDbCircle
 10
-320.299808
 20
82.38546
 30
0.0
 40
4.500000000000001
210
0.0
220
0.0
230
-1.0
  0
CIRCLE
  5
275
330
1F
100
AcDbEntity
  8
1
  6
CONTINUOUS
 62
   163
100
AcDbCircle
 10
-302.799808
 20
90.38546
 30
0.0
 40
4.500000000000001
210
0.0
220
0.0
230
-1.0
  0
ARC
  5
276
330
1F
100
AcDbEntity
  8
1
  6
CONTINUOUS
 62
   163
100
AcDbCircle
 10
296.082294
 20
55.667946
 30
0.0
 40
1.5
100
AcDbArc
 50
135.0
 51
315.0
  0
ARC
  5
277
330
1F
100
AcDbEntity
  8
1
  6
CONTINUOUS
 62
   163
100
AcDbCircle
 10
297.142954
 20
56.728606
 30
0.0
 40
1.49999999999999
100
AcDbArc
 50
315.0
 51
135.0
  0
ARC
  5
278
330
1F
100
AcDbEntity
  8
1
  6
CONTINUOUS
 62
   163
100
AcDbCircle
 10
308.456662
 20
68.042314
 30
0.0
 40
1.5
100
AcDbArc
 50
135.0
 51
315.0
  0
ARC
  5
279
330
1F
100
AcDbEntity
  8
1
  6
CONTINUOUS
 62
   163
100
AcDbCircle
 10
309.517323
 20
69.102975
 30
0.0
 40
1.5
100
AcDbArc
 50
315.0
 51
135.0
  0
CIRCLE
  5
27A
330
1F
100
AcDbEntity
  8
1
  6
CONTINUOUS
 62
   163
100
AcDbCircle
 10
-104.374644
 20
186.491078
 30
0.0
 40
1.5
210
0.0
220
0.0
230
-1.0
  0
CIRCLE
  5
27B
330
1F
100
AcDbEntity
  8
1
  6
CONTINUOUS
 62
   163
100
AcDbCircle
 10
-206.374644
 20
186.491078
 30
0.0
 40
1.5
210
0.0
220
0.0
230
-1.0
  0
ARC
  5
27C
330
1F
100
AcDbEntity
  8
1
  6
CONTINUOUS
 62
   163
100
AcDbCircle
 10
-186.691164
 20
175.358978
 30
0.0
 40
1.5
210
0.0
220
0.0
230
-1.0
100
AcDbArc
 50
0.0
 51
180.0
  0
ARC
  5
27D
330
1F
100
AcDbEntity
  8
1
  6
CONTINUOUS
 62
   163
100
AcDbCircle
 10
-179.691164
 20
175.358978
 30
0.0
 40
1.5
210
0.0
220
0.0
230
-1.0
100
AcDbArc
 50
0.0
 51
180.0
  0
ARC
  5
27E
330
1F
100
AcDbEntity
  8
1
  6
CONTINUOUS
 62
   163
100
AcDbCircle
 10
-179.691164
 20
173.834978
 30
0.0
 40
1.5
210
0.0
220
0.0
230
-1.0
100
AcDbArc
 50
180.0
 51
0.0
  0
ARC
  5
27F
330
1F
100
AcDbEntity
  8
1
  6
CONTINUOUS
 62
   163
100
AcDbCircle
 10
-186.691164
 20
173.834978
 30
0.0
 40
1.50000000000001
210
0.0
220
0.0
230
-1.0
100
AcDbArc
 50
180.0
 51
0.0
  0
ARC
  5
280
330
1F
100
AcDbEntity
  8
1
  6
CONTINUOUS
 62
   163
100
AcDbCircle
 10
124.058124
 20
175.358978
 30
0.0
 40
1.5
100
AcDbArc
 50
0.0
 51
180.0
  0
ARC
  5
281
330
1F
100
AcDbEntity
  8
1
  6
CONTINUOUS
 62
   163
100
AcDbCircle
 10
124.058124
 20
173.834978
 30
0.0
 40
1.50000000000001
100
AcDbArc
 50
180.0
 51
0.0
  0
ARC
  5
282
330
1F
100
AcDbEntity
  8
1
  6
CONTINUOUS
 62
   163
100
AcDbCircle
 10
131.058124
 20
173.834978
 30
0.0
 40
1.5
100
AcDbArc
 50
180.0
 51
0.0
  0
ARC
  5
283
330
1F
100
AcDbEntity
  8
1
  6
CONTINUOUS
 62
   163
100
AcDbCircle
 10
131.058124
 20
175.358978
 30
0.0
 40
1.5
100
AcDbArc
 50
0.0
 51
180.0
  0
ARC
  5
284
330
1F
100
AcDbEntity
  8
1
  6
CONTINUOUS
 62
   163
100
AcDbCircle
 10
70.350437
 20
73.58448
 30
0.0
 40
3.0
100
AcDbArc
 50
132.0
 51
216.0
  0
ARC
  5
285
330
1F
100
AcDbEntity
  8
1
  6
CONTINUOUS
 62
   163
100
AcDbCircle
 10
80.799584
 20
59.202463
 30
0.0
 40
3.0
100
AcDbArc
 50
216.0
 51
338.0
  0
ARC
  5
286
330
1F
100
AcDbEntity
  8
1
  6
CONTINUOUS
 62
   163
100
AcDbCircle
 10
95.907687
 20
96.596331
 30
0.0
 40
3.0
100
AcDbArc
 50
338.0
 51
132.0
  0
ARC
  5
287
330
1F
100
AcDbEntity
  8
1
  6
CONTINUOUS
 62
   163
100
AcDbCircle
 10
113.79261
 20
87.473726
 30
0.0
 40
3.0
100
AcDbArc
 50
158.0
 51
305.316749
  0
ARC
  5
288
330
1F
100
AcDbEntity
  8
1
  6
CONTINUOUS
 62
   163
100
AcDbCircle
 10
144.148933
 20
108.980526
 30
0.0
 40
3.0
100
AcDbArc
 50
305.316749
 51
24.029555
  0
ARC
  5
289
330
1F
100
AcDbEntity
  8
1
  6
CONTINUOUS
 62
   163
100
AcDbCircle
 10
132.78233
 20
134.474933
 30
0.0
 40
3.0
100
AcDbArc
 50
24.029555
 51
158.0
  0
ARC
  5
28A
330
1F
100
AcDbEntity
  8
1
  6
CONTINUOUS
 62
   163
100
AcDbCircle
 10
166.600355
 20
108.980526
 30
0.0
 40
3.0
100
AcDbArc
 50
155.970445
 51
234.683251
  0
ARC
  5
28B
330
1F
100
AcDbEntity
  8
1
  6
CONTINUOUS
 62
   163
100
AcDbCircle
 10
196.956678
 20
87.473726
 30
0.0
 40
3.0
100
AcDbArc
 50
234.683251
 51
22.0
  0
ARC
  5
28C
330
1F
100
AcDbEntity
  8
1
  6
CONTINUOUS
 62
   163
100
AcDbCircle
 10
177.966958
 20
134.474933
 30
0.0
 40
3.0
100
AcDbArc
 50
22.0
 51
155.970445
  0
ARC
  5
28D
330
1F
100
AcDbEntity
  8
1
  6
CONTINUOUS
 62
   163
100
AcDbCircle
 10
229.949705
 20
59.202463
 30
0.0
 40
3.0
100
AcDbArc
 50
202.0
 51
324.0
  0
ARC
  5
28E
330
1F
100
AcDbEntity
  8
1
  6
CONTINUOUS
 62
   163
100
AcDbCircle
 10
240.398851
 20
73.58448
 30
0.0
 40
3.0
100
AcDbArc
 50
324.0
 51
48.0
  0
ARC
  5
28F
330
1F
100
AcDbEntity
  8
1
  6
CONTINUOUS
 62
   163
100
AcDbCircle
 10
214.841601
 20
96.596331
 30
0.0
 40
3.0
100
AcDbArc
 50
48.0
 51
202.0
  0
CIRCLE
  5
290
330
1F
100
AcDbEntity
  8
1
  6
CONTINUOUS
 62
   163
100
AcDbCircle
 10
-93.94948
 20
62.38546
 30
0.0
 40
1.5
210
0.0
220
0.0
230
-1.0
  0
CIRCLE
  5
291
330
1F
100
AcDbEntity
  8
1
  6
CONTINUOUS
 62
   163
100
AcDbCircle
 10
-216.799808
 20
62.38546
 30
0.0
 40
1.5
210
0.0
220
0.0
230
-1.0
  0
CIRCLE
  5
292
330
1F
100
AcDbEntity
  8
1
  6
CONTINUOUS
 62
   163
100
AcDbCircle
 10
-155.374644
 20
105.903864
 30
0.0
 40
1.5
210
0.0
220
0.0
230
-1.0
  0
CIRCLE
  5
293
330
1F
100
AcDbEntity
  8
1
  6
CONTINUOUS
 62
   163
100
AcDbCircle
 10
-178.374644
 20
157.491078
 30
0.0
 40
1.5
210
0.0
220
0.0
230
-1.0
  0
CIRCLE
  5
294
330
1F
100
AcDbEntity
  8
1
  6
CONTINUOUS
 62
   163
100
AcDbCircle
 10
-132.374644
 20
157.491078
 30
0.0
 40
1.5
210
0.0
220
0.0
230
-1.0
  0
ARC
  5
295
330
1F
100
AcDbEntity
  8
1
  6
CONTINUOUS
 62
   163
100
AcDbCircle
 10
-362.097275
 20
-25.334285
 30
0.0
 40
140.0
210
0.0
220
0.0
230
-1.0
100
AcDbArc
 50
28.046057
 51
45.364335
  0
ARC
  5
296
330
1F
100
AcDbEntity
  8
1
  6
CONTINUOUS
 62
   163
100
AcDbCircle
 10
-155.374644
 20
-141.398838
 30
0.0
 40
200.0
210
0.0
220
0.0
230
-1.0
100
AcDbArc
 50
65.429399
 51
114.570601
  0
ARC
  5
297
330
1F
100
AcDbEntity
  8
1
  6
CONTINUOUS
 62
   163
100
AcDbCircle
 10
51.347987
 20
-25.334285
 30
0.0
 40
140.0
210
0.0
220
0.0
230
-1.0
100
AcDbArc
 50
134.635665
 51
151.953943
  0
ARC
  5
298
330
1F
100
AcDbEntity
  8
1
  6
CONTINUOUS
 62
   163
100
AcDbCircle
 10
10.923672
 20
179.374096
 30
0.0
 40
120.0
210
0.0
220
0.0
230
-1.0
100
AcDbArc
 50
203.317394
 51
241.129851
  0
ARC
  5
299
330
1F
100
AcDbEntity
  8
1
  6
CONTINUOUS
 62
   163
100
AcDbCircle
 10
-95.374644
 20
151.491078
 30
0.0
 40
20.0
210
0.0
220
0.0
230
-1.0
100
AcDbArc
 50
90.0
 51
258.752836
  0
ARC
  5
29A
330
1F
100
AcDbEntity
  8
1
  6
CONTINUOUS
 62
   163
100
AcDbCircle
 10
-127.374644
 20
196.491078
 30
0.0
 40
12.0
210
0.0
220
0.0
230
-1.0
100
AcDbArc
 50
270.0
 51
0.0
  0
ARC
  5
29B
330
1F
100
AcDbEntity
  8
1
  6
CONTINUOUS
 62
   163
100
AcDbCircle
 10
-183.374644
 20
196.491078
 30
0.0
 40
12.0
210
0.0
220
0.0
230
-1.0
100
AcDbArc
 50
180.0
 51
270.0
  0
ARC
  5
29C
330
1F
100
AcDbEntity
  8
1
  6
CONTINUOUS
 62
   163
100
AcDbCircle
 10
-215.374644
 20
151.491078
 30
0.0
 40
20.0
210
0.0
220
0.0
230
-1.0
100
AcDbArc
 50
281.247164
 51
90.0
  0
ARC
  5
29D
330
1F
100
AcDbEntity
  8
1
  6
CONTINUOUS
 62
   163
100
AcDbCircle
 10
-321.67296
 20
179.374096
 30
0.0
 40
120.0
210
0.0
220
0.0
230
-1.0
100
AcDbArc
 50
298.870149
 51
336.682606
  0
ARC
  5
29E
330
1F
100
AcDbEntity
  8
1
  6
CONTINUOUS
 62
   163
100
AcDbCircle
 10
155.374644
 20
128.005601
 30
0.0
 40
3.0
100
AcDbArc
 50
204.029555
 51
335.970445
  0
ARC
  5
29F
330
1F
100
AcDbEntity
  8
1
  6
CONTINUOUS
 62
   163
100
AcDbCircle
 10
164.508031
 20
148.491078
 30
0.0
 40
3.0
100
AcDbArc
 50
335.970445
 51
90.0
  0
ARC
  5
2A0
330
1F
100
AcDbEntity
  8
1
  6
CONTINUOUS
 62
   163
100
AcDbCircle
 10
146.241257
 20
148.491078
 30
0.0
 40
3.0
100
AcDbArc
 50
90.0
 51
204.029555
  0
ARC
  5
2A1
330
1F
100
AcDbEntity
  8
1
  6
CONTINUOUS
 62
   163
100
AcDbCircle
 10
188.528184
 20
71.38546
 30
0.0
 40
3.0
100
AcDbArc
 50
270.0
 51
54.683251
  0
ARC
  5
2A2
330
1F
100
AcDbEntity
  8
1
  6
CONTINUOUS
 62
   163
100
AcDbCircle
 10
155.374644
 20
94.874029
 30
0.0
 40
3.0
100
AcDbArc
 50
54.683251
 51
125.316749
  0
ARC
  5
2A3
330
1F
100
AcDbEntity
  8
1
  6
CONTINUOUS
 62
   163
100
AcDbCircle
 10
122.221104
 20
71.38546
 30
0.0
 40
3.0
100
AcDbArc
 50
125.316749
 51
270.0
  0
ARC
  5
2A4
330
1F
100
AcDbEntity
  8
1
  6
CONTINUOUS
 62
   163
100
AcDbCircle
 10
151.874644
 20
175.358978
 30
0.0
 40
1.5
100
AcDbArc
 50
0.0
 51
180.0
  0
ARC
  5
2A5
330
1F
100
AcDbEntity
  8
1
  6
CONTINUOUS
 62
   163
100
AcDbCircle
 10
151.874644
 20
173.834978
 30
0.0
 40
1.5
100
AcDbArc
 50
180.0
 51
0.0
  0
ARC
  5
2A6
330
1F
100
AcDbEntity
  8
1
  6
CONTINUOUS
 62
   163
100
AcDbCircle
 10
158.874644
 20
173.834978
 30
0.0
 40
1.5
100
AcDbArc
 50
180.0
 51
0.0
  0
ARC
  5
2A7
330
1F
100
AcDbEntity
  8
1
  6
CONTINUOUS
 62
   163
100
AcDbCircle
 10
158.874644
 20
175.358978
 30
0.0
 40
1.5
100
AcDbArc
 50
0.0
 51
180.0
  0
ARC
  5
2A8
330
1F
100
AcDbEntity
  8
1
  6
CONTINUOUS
 62
   163
100
AcDbCircle
 10
72.52448
 20
216.706293
 30
0.0
 40
1.50416666666668
100
AcDbArc
 50
90.0
 51
270.0
  0
ARC
  5
2A9
330
1F
100
AcDbEntity
  8
1
  6
CONTINUOUS
 62
   163
100
AcDbCircle
 10
72.52448
 20
203.69796
 30
0.0
 40
1.50416666666667
100
AcDbArc
 50
90.0
 51
270.0
  0
ARC
  5
2AA
330
1F
100
AcDbEntity
  8
1
  6
CONTINUOUS
 62
   163
100
AcDbCircle
 10
72.52448
 20
188.889627
 30
0.0
 40
1.50416666666668
100
AcDbArc
 50
90.0
 51
270.0
  0
ARC
  5
2AB
330
1F
100
AcDbEntity
  8
1
  6
CONTINUOUS
 62
   163
100
AcDbCircle
 10
72.52448
 20
175.881293
 30
0.0
 40
1.50416666666667
100
AcDbArc
 50
90.0
 51
270.0
  0
ARC
  5
2AC
330
1F
100
AcDbEntity
  8
1
  6
CONTINUOUS
 62
   163
100
AcDbCircle
 10
72.52448
 20
161.07296
 30
0.0
 40
1.50416666666668
100
AcDbArc
 50
90.0
 51
270.0
  0
ARC
  5
2AD
330
1F
100
AcDbEntity
  8
1
  6
CONTINUOUS
 62
   163
100
AcDbCircle
 10
72.52448
 20
148.064627
 30
0.0
 40
1.50416666666667
100
AcDbArc
 50
90.0
 51
270.0
  0
ARC
  5
2AE
330
1F
100
AcDbEntity
  8
1
  6
CONTINUOUS
 62
   163
100
AcDbCircle
 10
15.37448
 20
148.064627
 30
0.0
 40
1.50416666666667
100
AcDbArc
 50
270.0
 51
90.0
  0
ARC
  5
2AF
330
1F
100
AcDbEntity
  8
1
  6
CONTINUOUS
 62
   163
100
AcDbCircle
 10
15.37448
 20
161.07296
 30
0.0
 40
1.50416666666667
100
AcDbArc
 50
270.0
 51
90.0
  0
ARC
  5
2B0
330
1F
100
AcDbEntity
  8
1
  6
CONTINUOUS
 62
   163
100
AcDbCircle
 10
15.37448
 20
175.881293
 30
0.0
 40
1.50416666666668
100
AcDbArc
 50
270.0
 51
90.0
  0
ARC
  5
2B1
330
1F
100
AcDbEntity
  8
1
  6
CONTINUOUS
 62
   163
100
AcDbCircle
 10
15.37448
 20
188.889627
 30
0.0
 40
1.50416666666667
100
AcDbArc
 50
270.0
 51
90.0
  0
ARC
  5
2B2
330
1F
100
AcDbEntity
  8
1
  6
CONTINUOUS
 62
   163
100
AcDbCircle
 10
15.37448
 20
203.69796
 30
0.0
 40
1.50416666666668
100
AcDbArc
 50
270.0
 51
90.0
  0
ARC
  5
2B3
330
1F
100
AcDbEntity
  8
1
  6
CONTINUOUS
 62
   163
100
AcDbCircle
 10
15.37448
 20
216.706293
 30
0.0
 40
1.50416666666666
100
AcDbArc
 50
270.0
 51
90.0
  0
CIRCLE
  5
2B4
330
1F
100
AcDbEntity
  8
1
  6
CONTINUOUS
 62
   163
100
AcDbCircle
 10
-43.94948
 20
210.38546
 30
0.0
 40
4.500000000000001
210
0.0
220
0.0
230
-1.0
  0
CIRCLE
  5
2B5
330
1F
100
AcDbEntity
  8
1
  6
CONTINUOUS
 62
   163
100
AcDbCircle
 10
-61.44948
 20
202.38546
 30
0.0
 40
4.500000000000001
210
0.0
220
0.0
230
-1.0
  0
CIRCLE
  5
2B6
330
1F
100
AcDbEntity
  8
1
  6
CONTINUOUS
 62
   163
100
AcDbCircle
 10
-26.44948
 20
202.38546
 30
0.0
 40
4.500000000000001
210
0.0
220
0.0
230
-1.0
  0
CIRCLE
  5
2B7
330
1F
100
AcDbEntity
  8
1
  6
CONTINUOUS
 62
   163
100
AcDbCircle
 10
-61.94948
 20
182.38546
 30
0.0
 40
6.0
210
0.0
220
0.0
230
-1.0
  0
CIRCLE
  5
2B8
330
1F
100
AcDbEntity
  8
1
  6
CONTINUOUS
 62
   163
100
AcDbCircle
 10
-43.94948
 20
182.38546
 30
0.0
 40
4.500000000000001
210
0.0
220
0.0
230
-1.0
  0
CIRCLE
  5
2B9
330
1F
100
AcDbEntity
  8
1
  6
CONTINUOUS
 62
   163
100
AcDbCircle
 10
-25.94948
 20
182.38546
 30
0.0
 40
4.500000000000001
210
0.0
220
0.0
230
-1.0
  0
CIRCLE
  5
2BA
330
1F
100
AcDbEntity
  8
1
  6
CONTINUOUS
 62
   163
100
AcDbCircle
 10
-61.44948
 20
162.38546
 30
0.0
 40
4.500000000000001
210
0.0
220
0.0
230
-1.0
  0
CIRCLE
  5
2BB
330
1F
100
AcDbEntity
  8
1
  6
CONTINUOUS
 62
   163
100
AcDbCircle
 10
-26.44948
 20
162.38546
 30
0.0
 40
4.500000000000001
210
0.0
220
0.0
230
-1.0
  0
CIRCLE
  5
2BC
330
1F
100
AcDbEntity
  8
1
  6
CONTINUOUS
 62
   163
100
AcDbCircle
 10
-43.94948
 20
154.38546
 30
0.0
 40
4.500000000000001
210
0.0
220
0.0
230
-1.0
  0
ENDSEC
  0
SECTION
  2
OBJECTS
  0
DICTIONARY
  5
C
330
0
100
AcDbDictionary
  3
ACAD_GROUP
350
D
  3
ACAD_LAYOUT
350
1A
  3
ACAD_MLEADERSTYLE
350
2F0
  3
ACAD_MLINESTYLE
350
17
  3
ACAD_PLOTSETTINGS
350
19
  3
ACAD_VISUALSTYLE
350
2A
  3
ACDBHEADERROUNDTRIPXREC
350
2CE
  3
ACDBVARIABLEDICTIONARY
350
2EE
  0
DICTIONARY
  5
D
102
{ACAD_REACTORS
330
C
102
}
330
C
100
AcDbDictionary
  0
DICTIONARY
  5
1A
102
{ACAD_REACTORS
330
C
102
}
330
C
100
AcDbDictionary
  0
DICTIONARY
  5
2F0
102
{ACAD_REACTORS
330
C
102
}
330
C
100
AcDbDictionary
  0
DICTIONARY
  5
17
102
{ACAD_REACTORS
330
C
102
}
330
C
100
AcDbDictionary
  3
STANDARD
350
18
  0
DICTIONARY
  5
19
102
{ACAD_REACTORS
330
C
102
}
330
C
100
AcDbDictionary
  0
DICTIONARY
  5
2A
102
{ACAD_REACTORS
330
C
102
}
330
C
100
AcDbDictionary
  3
2DWIREFRAME
350
2F
  3
3D_HIDDEN
350
31
  3
3DWIREFRAME
350
30
  3
BASIC
350
32
  3
BRIGHTEN
350
36
  3
COLORCHANGE
350
3A
  3
CONCEPTUAL
350
34
  3
DIM
350
35
  3
FACEPATTERN
350
39
  3
FLAT
350
2B
  3
FLATWITHEDGES
350
2C
  3
GOURAUD
350
2D
  3
GOURAUDWITHEDGES
350
2E
  3
LINEPATTERN
350
38
  3
REALISTIC
350
33
  3
THICKEN
350
37
  0
DICTIONARY
  5
2CE
102
{ACAD_REACTORS
330
C
102
}
330
C
100
AcDbDictionary
  3
CEPSNTYPE
350
2D7
  3
DIMSTYLEDATA
350
2ED
  3
FINGERPRINTGUID
350
2D8
  3
HYPERLINKBASE
350
2D1
  3
INSUNITS
350
2D6
  3
LAYOUTDICT
350
2D3
  3
LWETCUNION
350
2D5
  3
PLOTSETDICT
350
2D4
  3
PSVPSCALE
350
2DA
  3
PUCSBASE
350
2DD
  3
PUCSORGBACK
350
2E3
  3
PUCSORGBOTTOM
350
2DF
  3
PUCSORGFRONT
350
2E2
  3
PUCSORGLEFT
350
2E0
  3
PUCSORGRIGHT
350
2E1
  3
PUCSORGTOP
350
2DE
  3
PUCSORTHOREF
350
2DB
  3
PUCSORTHOVIEW
350
2DC
  3
STYLESHEET
350
2D2
  3
TSTACKALIGN
350
2CF
  3
TSTACKSIZE
350
2D0
  3
UCSBASE
350
2E6
  3
UCSORGBACK
350
2EC
  3
UCSORGBOTTOM
350
2E8
  3
UCSORGFRONT
350
2EB
  3
UCSORGLEFT
350
2E9
  3
UCSORGRIGHT
350
2EA
  3
UCSORGTOP
350
2E7
  3
UCSORTHOREF
350
2E4
  3
UCSORTHOVIEW
350
2E5
  3
VERSIONGUID
350
2D9
  0
DICTIONARY
  5
2EE
102
{ACAD_REACTORS
330
C
102
}
330
C
100
AcDbDictionary
  3
DIMASSOC
350
2F1
  3
HIDETEXT
350
2F2
  0
MLINESTYLE
  5
18
102
{ACAD_REACTORS
330
17
102
}
330
17
100
AcDbMlineStyle
  2
Standard
 70
     0
  3

 62
   256
 51
90.0
 52
90.0
 71
     2
 49
0.5
 62
   256
  6
BYLAYER
 49
-0.5
 62
   256
  6
BYLAYER
  0
ACAD_PROXY_OBJECT
  5
2F
102
{ACAD_REACTORS
330
2A
102
}
330
2A
100
AcDbProxyObject
 90
      499
 91
      501
 93
      436
310
42CC9915DA5C99599C985B595049028333333333333E3BF0000000000000FB0107901411070040501600405405064090741402480A0340
1001
ACAD
1000
AcDbSavedByObjectVersion
1070
     0
  0
ACAD_PROXY_OBJECT
  5
31
102
{ACAD_REACTORS
330
2A
102
}
330
2A
100
AcDbProxyObject
 90
      499
 91
      501
 93
      500
310
424CD108121A5919195B90640502408333333333333E3BF0000000000000FB01079024090700405020000000000001110200405405064090740C02480A0340
1001
ACAD
1000
AcDbSavedByObjectVersion
1070
     0
  0
ACAD_PROXY_OBJECT
  5
30
102
{ACAD_REACTORS
330
2A
102
}
330
2A
100
AcDbProxyObject
 90
      499
 91
      501
 93
      436
310
42CCD915DA5C99599C985B595059028333333333333E3BF0000000000000FB0107901411070040501600405405064090741402480A0340
1001
ACAD
1000
AcDbSavedByObjectVersion
1070
     0
  0
ACAD_PROXY_OBJECT
  5
32
102
{ACAD_REACTORS
330
2A
102
}
330
2A
100
AcDbProxyObject
 90
      499
 91
      501
 93
      388
310
4150985CDA58D07406404333333333333E3BF0000000000000FB0107A41107004050150841D405064090741402480A0350
1001
ACAD
1000
AcDbSavedByObjectVersion
1070
     0
  0
ACAD_PROXY_OBJECT
  5
36
102
{ACAD_REACTORS
330
2A
102
}
330
2A
100
AcDbProxyObject
 90
      499
 91
      501
 93
      428
310
42109C9A59DA1D195B90C409028333333333333E3BF0000000000000FB010790141107004050150841D405064090741402480A029950
1001
ACAD
1000
AcDbSavedByObjectVersion
1070
     0
  0
ACAD_PROXY_OBJECT
  5
3A
102
{ACAD_REACTORS
330
2A
102
}
330
2A
100
AcDbProxyObject
 90
      499
 91
      501
 93
      452
310
42D0DBDB1BDC90DA185B99D95104090240C333333333333E3BF0000000000000FB0108901411070040501508421405064090741402480A0350
1001
ACAD
1000
AcDbSavedByObjectVersion
1070
     0
  0
ACAD_PROXY_OBJECT
  5
34
102
{ACAD_REACTORS
330
2A
102
}
330
2A
100
AcDbProxyObject
 90
      499
 91
      501
 93
      500
310
4290DBDB98D95C1D1D585B10940D028333333333333E3BF0000000000000FB0107902409070040501000000000000111010841D405064090740C02480A0340
1001
ACAD
1000
AcDbSavedByObjectVersion
1070
     0
  0
ACAD_PROXY_OBJECT
  5
35
102
{ACAD_REACTORS
330
2A
102
}
330
2A
100
AcDbProxyObject
 90
      499
 91
      501
 93
      412
310
40D11A5B50B409028333333333333E3BF0000000000000FB010790141107004050150841D405064090741402480A02677FFFFFD0
1001
ACAD
1000
AcDbSavedByObjectVersion
1070
     0
  0
ACAD_PROXY_OBJECT
  5
39
102
{ACAD_REACTORS
330
2A
102
}
330
2A
100
AcDbProxyObject
 90
      499
 91
      501
 93
      444
310
42D19858D95C185D1D195C9B90F409028333333333333E3BF0000000000000FB010790141107004050150841D405064090741402480A0350
1001
ACAD
1000
AcDbSavedByObjectVersion
1070
     0
  0
ACAD_PROXY_OBJECT
  5
2B
102
{ACAD_REACTORS
330
2A
102
}
330
2A
100
AcDbProxyObject
 90
      499
 91
      501
 93
      388
310
41119B185D240901404333333333333E3BF0000000000000F9010740A41107004050150841D405064090741402480A1B50
1001
ACAD
1000
AcDbSavedByObjectVersion
1070
     0
  0
ACAD_PROXY_OBJECT
  5
2C
102
{ACAD_REACTORS
330
2A
102
}
330
2A
100
AcDbProxyObject
 90
      499
 91
      501
 93
      476
310
43519B185D15DA5D1A115919D95CD0140901404333333333333E3BF0000000000000F9010740901411070040501600405405064090741402480A1B50
1001
ACAD
1000
AcDbSavedByObjectVersion
1070
     0
  0
ACAD_PROXY_OBJECT
  5
2D
102
{ACAD_REACTORS
330
2A
102
}
330
2A
100
AcDbProxyObject
 90
      499
 91
      501
 93
      412
310
41D1DBDD5C985D5910240902404333333333333E3BF0000000000000F9010740A411070040501641D405064090741402480A1B50
1001
ACAD
1000
AcDbSavedByObjectVersion
1070
     0
  0
ACAD_PROXY_OBJECT
  5
2E
102
{ACAD_REACTORS
330
2A
102
}
330
2A
100
AcDbProxyObject
 90
      499
 91
      501
 93
      500
310
4411DBDD5C985D5915DA5D1A115919D95CD0340902404333333333333E3BF0000000000000F9010740901411070040501600405405064090741402480A1B50
1001
ACAD
1000
AcDbSavedByObjectVersion
1070
     0
  0
ACAD_PROXY_OBJECT
  5
38
102
{ACAD_REACTORS
330
2A
102
}
330
2A
100
AcDbProxyObject
 90
      499
 91
      501
 93
      444
310
42D31A5B995C185D1D195C9B90E409028333333333333E3BF0000000000000FB010790141107004050750841D405064090741402483A0350
1001
ACAD
1000
AcDbSavedByObjectVersion
1070
     0
  0
ACAD_PROXY_OBJECT
  5
33
102
{ACAD_REACTORS
330
2A
102
}
330
2A
100
AcDbProxyObject
 90
      499
 91
      501
 93
      420
310
425499585B1A5CDD1A58D08409028333333333333E3BF0000000000000FB01079019070040501508421405064090741402480A1B40
1001
ACAD
1000
AcDbSavedByObjectVersion
1070
     0
  0
ACAD_PROXY_OBJECT
  5
37
102
{ACAD_REACTORS
330
2A
102
}
330
2A
100
AcDbProxyObject
 90
      499
 91
      501
 93
      412
310
41D51A1A58DAD95B90D409028333333333333E3BF0000000000000FB010790141107004050150C41D405064090741402480A0350
1001
ACAD
1000
AcDbSavedByObjectVersion
1070
     0
  0
ACAD_PROXY_OBJECT
  5
2D7
102
{ACAD_REACTORS
330
2CE
102
}
330
2CE
100
AcDbProxyObject
 90
      499
 91
      503
 93
       58
310
4196800000000000
  0
ACAD_PROXY_OBJECT
  5
2ED
102
{ACAD_REACTORS
330
2CE
102
}
330
2CE
100
AcDbProxyObject
 90
      499
 91
      503
 93
     1970
310
7D7A00C180079114D51653117A80C040079ECB812AC0118000800B8123C00A001999999999998E500B810480518000800B810A400A0002B5E8DC0F42B1CFCB8123400A0002B5E8DC0F42ADCFCB8103C0518001000B810AC00A0014AE07A17AD4760FCB81058051800B800B810B000A0002B5E8DC0F42B1CFCB810A800A0000
310
00000000002C0FCB8124C00A0002B5E8DC0F42ADCFCB811340118000000B810400518001000B811240118000400B812B00118000000B811280118000400B8106C0518000400B811500550044400000000000000B8123000A0002B5E8DC0F42B1CFCB810700518000000B811380118000003A80C040079F40
  0
ACAD_PROXY_OBJECT
  5
2D8
102
{ACAD_REACTORS
330
2CE
102
}
330
2CE
100
AcDbProxyObject
 90
      499
 91
      503
 93
      354
310
4AC0400980079ED1504C8DD14DD0CD8B508C4DCD0B4D0D4D0C8B4E109110CB504DCD0D8E508E508D0E4D909F40
  0
ACAD_PROXY_OBJECT
  5
2D1
102
{ACAD_REACTORS
330
2CE
102
}
330
2CE
100
AcDbProxyObject
 90
      499
 91
      503
 93
       50
310
41404000000780
  0
ACAD_PROXY_OBJECT
  5
2D6
102
{ACAD_REACTORS
330
2CE
102
}
330
2CE
100
AcDbProxyObject
 90
      499
 91
      503
 93
       58
310
4196800100000000
  0
ACAD_PROXY_OBJECT
  5
2D3
102
{ACAD_REACTORS
330
2CE
102
}
330
2CE
100
AcDbProxyObject
 90
      499
 91
      503
 93
       90
310
429500468000000000000000
  0
ACAD_PROXY_OBJECT
  5
2D5
102
{ACAD_REACTORS
330
2CE
102
}
330
2CE
100
AcDbProxyObject
 90
      499
 91
      503
 93
       58
310
419680074A800000
  0
ACAD_PROXY_OBJECT
  5
2D4
102
{ACAD_REACTORS
330
2CE
102
}
330
2CE
100
AcDbProxyObject
 90
      499
 91
      503
 93
       90
310
429500464000000000000000
  0
ACAD_PROXY_OBJECT
  5
2DA
102
{ACAD_REACTORS
330
2CE
102
}
330
2CE
100
AcDbProxyObject
 90
      499
 91
      503
 93
       90
310
428A00000000000000000000
  0
ACAD_PROXY_OBJECT
  5
2DD
102
{ACAD_REACTORS
330
2CE
102
}
330
2CE
100
AcDbProxyObject
 90
      499
 91
      503
 93
       90
310
429500400000000000000000
  0
ACAD_PROXY_OBJECT
  5
2E3
102
{ACAD_REACTORS
330
2CE
102
}
330
2CE
100
AcDbProxyObject
 90
      499
 91
      503
 93
      218
310
46828000000000000000000000000000000000000000000000000000
  0
ACAD_PROXY_OBJECT
  5
2DF
102
{ACAD_REACTORS
330
2CE
102
}
330
2CE
100
AcDbProxyObject
 90
      499
 91
      503
 93
      218
310
46828000000000000000000000000000000000000000000000000000
  0
ACAD_PROXY_OBJECT
  5
2E2
102
{ACAD_REACTORS
330
2CE
102
}
330
2CE
100
AcDbProxyObject
 90
      499
 91
      503
 93
      218
310
46828000000000000000000000000000000000000000000000000000
  0
ACAD_PROXY_OBJECT
  5
2E0
102
{ACAD_REACTORS
330
2CE
102
}
330
2CE
100
AcDbProxyObject
 90
      499
 91
      503
 93
      218
310
46828000000000000000000000000000000000000000000000000000
  0
ACAD_PROXY_OBJECT
  5
2E1
102
{ACAD_REACTORS
330
2CE
102
}
330
2CE
100
AcDbProxyObject
 90
      499
 91
      503
 93
      218
310
46828000000000000000000000000000000000000000000000000000
  0
ACAD_PROXY_OBJECT
  5
2DE
102
{ACAD_REACTORS
330
2CE
102
}
330
2CE
100
AcDbProxyObject
 90
      499
 91
      503
 93
      218
310
46828000000000000000000000000000000000000000000000000000
  0
ACAD_PROXY_OBJECT
  5
2DB
102
{ACAD_REACTORS
330
2CE
102
}
330
2CE
100
AcDbProxyObject
 90
      499
 91
      503
 93
       90
310
429500400000000000000000
  0
ACAD_PROXY_OBJECT
  5
2DC
102
{ACAD_REACTORS
330
2CE
102
}
330
2CE
100
AcDbProxyObject
 90
      499
 91
      503
 93
       42
310
411180000000
  0
ACAD_PROXY_OBJECT
  5
2D2
102
{ACAD_REACTORS
330
2CE
102
}
330
2CE
100
AcDbProxyObject
 90
      499
 91
      503
 93
       50
310
41404000000780
  0
ACAD_PROXY_OBJECT
  5
2CF
102
{ACAD_REACTORS
330
2CE
102
}
330
2CE
100
AcDbProxyObject
 90
      499
 91
      503
 93
       58
310
4196800040000000
  0
ACAD_PROXY_OBJECT
  5
2D0
102
{ACAD_REACTORS
330
2CE
102
}
330
2CE
100
AcDbProxyObject
 90
      499
 91
      503
 93
       58
310
4196801180000000
  0
ACAD_PROXY_OBJECT
  5
2E6
102
{ACAD_REACTORS
330
2CE
102
}
330
2CE
100
AcDbProxyObject
 90
      499
 91
      503
 93
       90
310
429500400000000000000000
  0
ACAD_PROXY_OBJECT
  5
2EC
102
{ACAD_REACTORS
330
2CE
102
}
330
2CE
100
AcDbProxyObject
 90
      499
 91
      503
 93
      218
310
46828000000000000000000000000000000000000000000000000000
  0
ACAD_PROXY_OBJECT
  5
2E8
102
{ACAD_REACTORS
330
2CE
102
}
330
2CE
100
AcDbProxyObject
 90
      499
 91
      503
 93
      218
310
46828000000000000000000000000000000000000000000000000000
  0
ACAD_PROXY_OBJECT
  5
2EB
102
{ACAD_REACTORS
330
2CE
102
}
330
2CE
100
AcDbProxyObject
 90
      499
 91
      503
 93
      218
310
46828000000000000000000000000000000000000000000000000000
  0
ACAD_PROXY_OBJECT
  5
2E9
102
{ACAD_REACTORS
330
2CE
102
}
330
2CE
100
AcDbProxyObject
 90
      499
 91
      503
 93
      218
310
46828000000000000000000000000000000000000000000000000000
  0
ACAD_PROXY_OBJECT
  5
2EA
102
{ACAD_REACTORS
330
2CE
102
}
330
2CE
100
AcDbProxyObject
 90
      499
 91
      503
 93
      218
310
46828000000000000000000000000000000000000000000000000000
  0
ACAD_PROXY_OBJECT
  5
2E7
102
{ACAD_REACTORS
330
2CE
102
}
330
2CE
100
AcDbProxyObject
 90
      499
 91
      503
 93
      218
310
46828000000000000000000000000000000000000000000000000000
  0
ACAD_PROXY_OBJECT
  5
2E4
102
{ACAD_REACTORS
330
2CE
102
}
330
2CE
100
AcDbProxyObject
 90
      499
 91
      503
 93
       90
310
429500400000000000000000
  0
ACAD_PROXY_OBJECT
  5
2E5
102
{ACAD_REACTORS
330
2CE
102
}
330
2CE
100
AcDbProxyObject
 90
      499
 91
      503
 93
       42
310
411180000000
  0
ACAD_PROXY_OBJECT
  5
2D9
102
{ACAD_REACTORS
330
2CE
102
}
330
2CE
100
AcDbProxyObject
 90
      499
 91
      503
 93
      354
310
4AC0400980079ED19051508C50CCCC8B514C0C4E4B4C4C510D4B4E4C8E508B4C0C10CC11118C8D4D9150CD1F40
  0
DICTIONARYVAR
  5
2F1
102
{ACAD_REACTORS
330
2EE
102
}
330
2EE
100
DictionaryVariables
280
     0
  1
2
  0
DICTIONARYVAR
  5
2F2
102
{ACAD_REACTORS
330
2EE
102
}
330
2EE
100
DictionaryVariables
280
     0
  1
1
  0
ENDSEC
  0
EOF
